<svg width="190" height="37" viewBox="0 0 190 37" fill="none" xmlns="http://www.w3.org/2000/svg">
<path d="M174.451 36.9134C171.686 36.9134 169.181 36.1652 166.936 34.6689C164.692 33.1726 162.919 31.0907 161.618 28.4233C160.349 25.7234 159.715 22.6169 159.715 19.1037C159.715 15.558 160.349 12.4678 161.618 9.83291C162.886 7.16552 164.627 5.09992 166.839 3.63611C169.051 2.13977 171.555 1.3916 174.353 1.3916C177.183 1.3916 179.704 2.13977 181.916 3.63611C184.128 5.09992 185.868 7.16552 187.137 9.83291C188.438 12.5003 189.089 15.6068 189.089 19.1525C189.089 22.6982 188.438 25.8047 187.137 28.4721C185.868 31.1395 184.128 33.2214 181.916 34.7177C179.737 36.1815 177.248 36.9134 174.451 36.9134ZM174.402 30.1311C175.833 30.1311 177.069 29.7245 178.11 28.9112C179.151 28.0655 179.948 26.8294 180.501 25.2029C181.086 23.5439 181.379 21.5271 181.379 19.1525C181.379 16.7454 181.086 14.7285 180.501 13.1021C179.948 11.4756 179.151 10.2558 178.11 9.44256C177.069 8.5968 175.817 8.17393 174.353 8.17393C172.954 8.17393 171.718 8.58054 170.645 9.39377C169.604 10.207 168.807 11.4268 168.254 13.0533C167.701 14.6798 167.424 16.6966 167.424 19.1037C167.424 21.5109 167.701 23.5277 168.254 25.1541C168.807 26.7806 169.604 28.0167 170.645 28.8625C171.718 29.7082 172.97 30.1311 174.402 30.1311Z" fill="white"/>
<path d="M137.024 36.3767L147.857 21.2994L150.687 21.1043C150.264 21.8524 149.792 22.5193 149.272 23.1048C148.784 23.6578 148.149 24.0969 147.369 24.4222C146.621 24.715 145.612 24.8614 144.344 24.8614C142.262 24.8614 140.342 24.3734 138.586 23.3976C136.862 22.3892 135.479 21.0392 134.438 19.3477C133.43 17.6236 132.926 15.6719 132.926 13.4924C132.926 11.2154 133.495 9.16606 134.634 7.34443C135.772 5.5228 137.301 4.07525 139.22 3.00179C141.139 1.92833 143.303 1.3916 145.71 1.3916C148.117 1.3916 150.28 1.92833 152.199 3.00179C154.119 4.04273 155.631 5.47401 156.737 7.29564C157.876 9.08474 158.445 11.1178 158.445 13.3949C158.445 16.3225 157.436 19.2664 155.42 22.2265L145.71 36.3767H137.024ZM145.71 19.1525C146.718 19.1525 147.629 18.9085 148.442 18.4206C149.255 17.9327 149.89 17.2821 150.345 16.4689C150.801 15.6231 151.028 14.6798 151.028 13.6388C151.028 12.5654 150.801 11.6057 150.345 10.76C149.89 9.91423 149.255 9.26365 148.442 8.80824C147.629 8.32031 146.718 8.07634 145.71 8.07634C144.669 8.07634 143.742 8.32031 142.928 8.80824C142.148 9.26365 141.513 9.91423 141.026 10.76C140.57 11.6057 140.342 12.5654 140.342 13.6388C140.342 14.6798 140.57 15.6231 141.026 16.4689C141.513 17.2821 142.164 17.9327 142.977 18.4206C143.791 18.9085 144.701 19.1525 145.71 19.1525Z" fill="white"/>
<path d="M111.977 36.3767V2.85547H119.442V36.3767H111.977ZM106.609 19.0062V12.663H124.809V19.0062H106.609Z" fill="white"/>
<path d="M93.9166 36.9137C91.4769 36.9137 89.265 36.3769 87.2807 35.3035C85.3289 34.1975 83.7838 32.7011 82.6453 30.8145C81.5068 28.9278 80.9375 26.8134 80.9375 24.4713C80.9375 22.1292 81.5068 20.031 82.6453 18.1769C83.7838 16.3227 85.3289 14.8589 87.2807 13.7854C89.2324 12.6795 91.4444 12.1265 93.9166 12.1265C96.3888 12.1265 98.6008 12.6632 100.553 13.7367C102.504 14.8101 104.049 16.2902 105.188 18.1769C106.326 20.031 106.896 22.1292 106.896 24.4713C106.896 26.8134 106.326 28.9278 105.188 30.8145C104.049 32.7011 102.504 34.1975 100.553 35.3035C98.6008 36.3769 96.3888 36.9137 93.9166 36.9137ZM93.9166 30.1313C94.9901 30.1313 95.9334 29.9036 96.7467 29.4482C97.5599 28.9603 98.1779 28.2934 98.6008 27.4477C99.0562 26.5694 99.2839 25.5773 99.2839 24.4713C99.2839 23.3653 99.0562 22.4057 98.6008 21.5924C98.1454 20.7467 97.5111 20.0961 96.6979 19.6407C95.9172 19.1528 94.9901 18.9088 93.9166 18.9088C92.8757 18.9088 91.9486 19.1528 91.1354 19.6407C90.3222 20.0961 89.6878 20.7467 89.2324 21.5924C88.777 22.4382 88.5493 23.4141 88.5493 24.5201C88.5493 25.5935 88.777 26.5694 89.2324 27.4477C89.6878 28.2934 90.3222 28.9603 91.1354 29.4482C91.9486 29.9036 92.8757 30.1313 93.9166 30.1313Z" fill="white"/>
<path d="M67.3268 36.9137C64.8871 36.9137 62.6751 36.3769 60.6908 35.3035C58.7391 34.1975 57.194 32.7011 56.0554 30.8145C54.9169 28.9278 54.3477 26.8134 54.3477 24.4713C54.3477 22.1292 54.9169 20.031 56.0554 18.1769C57.194 16.3227 58.7391 14.8589 60.6908 13.7854C62.6426 12.6795 64.8546 12.1265 67.3268 12.1265C69.799 12.1265 72.011 12.6632 73.9627 13.7367C75.9145 14.8101 77.4596 16.2902 78.5981 18.1769C79.7366 20.031 80.3059 22.1292 80.3059 24.4713C80.3059 26.8134 79.7366 28.9278 78.5981 30.8145C77.4596 32.7011 75.9145 34.1975 73.9627 35.3035C72.011 36.3769 69.799 36.9137 67.3268 36.9137ZM67.3268 30.1313C68.4002 30.1313 69.3436 29.9036 70.1568 29.4482C70.97 28.9603 71.5881 28.2934 72.011 27.4477C72.4664 26.5694 72.6941 25.5773 72.6941 24.4713C72.6941 23.3653 72.4664 22.4057 72.011 21.5924C71.5556 20.7467 70.9213 20.0961 70.108 19.6407C69.3273 19.1528 68.4002 18.9088 67.3268 18.9088C66.2858 18.9088 65.3588 19.1528 64.5455 19.6407C63.7323 20.0961 63.098 20.7467 62.6426 21.5924C62.1872 22.4382 61.9595 23.4141 61.9595 24.5201C61.9595 25.5935 62.1872 26.5694 62.6426 27.4477C63.098 28.2934 63.7323 28.9603 64.5455 29.4482C65.3588 29.9036 66.2858 30.1313 67.3268 30.1313Z" fill="white"/>
<path d="M45.1745 36.3769V22.861C45.1745 21.6249 44.7841 20.6328 44.0034 19.8846C43.2553 19.1039 42.2957 18.7135 41.1246 18.7135C40.3114 18.7135 39.5957 18.8925 38.9777 19.2503C38.3596 19.5756 37.8717 20.0635 37.5139 20.7141C37.1561 21.3321 36.9772 22.0478 36.9772 22.861L34.0983 21.446C34.0983 19.5918 34.4887 17.9654 35.2694 16.5666C36.0501 15.1679 37.1398 14.0944 38.5386 13.3462C39.9373 12.5655 41.5475 12.1752 43.3691 12.1752C45.2233 12.1752 46.8497 12.5655 48.2485 13.3462C49.6473 14.0944 50.7207 15.1516 51.4689 16.5178C52.2496 17.8515 52.6399 19.4129 52.6399 21.202V36.3769H45.1745ZM29.5117 36.3769V0.952637H36.9772V36.3769H29.5117Z" fill="white"/>
<path d="M13.6159 36.9134C10.7859 36.9134 8.34619 36.458 6.29686 35.5472C4.28005 34.6038 2.42589 33.1888 0.734375 31.3021L5.71133 26.374C6.81732 27.6426 8.03717 28.6348 9.37086 29.3504C10.7371 30.0335 12.3147 30.3751 14.1039 30.3751C15.7303 30.3751 16.9827 30.0823 17.861 29.4968C18.7718 28.9112 19.2272 28.098 19.2272 27.0571C19.2272 26.1137 18.9344 25.3493 18.3489 24.7638C17.7634 24.1783 16.9827 23.6741 16.0068 23.2512C15.0635 22.8283 14.0063 22.4217 12.8352 22.0313C11.6967 21.641 10.5582 21.2018 9.41965 20.7139C8.28113 20.1934 7.22394 19.5591 6.24806 18.811C5.30472 18.0303 4.54028 17.0706 3.95476 15.9321C3.36923 14.7611 3.07647 13.2973 3.07647 11.5407C3.07647 9.4263 3.58067 7.60467 4.58908 6.07579C5.63001 4.54693 7.06129 3.39214 8.88292 2.61144C10.7046 1.79822 12.8027 1.3916 15.1773 1.3916C17.5845 1.3916 19.7802 1.81448 21.7645 2.66024C23.7813 3.50599 25.4403 4.66078 26.7414 6.12459L21.7645 11.0528C20.7235 9.97929 19.6663 9.18233 18.5929 8.66186C17.5519 8.1414 16.3646 7.88116 15.0309 7.88116C13.6972 7.88116 12.64 8.1414 11.8593 8.66186C11.0786 9.1498 10.6883 9.86544 10.6883 10.8088C10.6883 11.6871 10.9811 12.4027 11.5666 12.9557C12.1521 13.4762 12.9165 13.9316 13.8599 14.3219C14.8358 14.7123 15.893 15.1026 17.0315 15.493C18.2025 15.8833 19.3573 16.3387 20.4958 16.8592C21.6343 17.3797 22.6753 18.0465 23.6186 18.8597C24.5945 19.6404 25.3752 20.6488 25.9607 21.885C26.5462 23.0885 26.839 24.5849 26.839 26.374C26.839 29.6594 25.668 32.2455 23.3259 34.1322C20.9838 35.9863 17.7471 36.9134 13.6159 36.9134Z" fill="white"/>
</svg>
