<svg width="51" height="30" viewBox="0 0 51 30" fill="none" xmlns="http://www.w3.org/2000/svg">
<path d="M42.2097 13.972C42.2097 17.0612 39.7283 19.5651 36.6674 19.5651C33.6065 19.5651 31.1251 17.0612 31.1251 13.972C31.1251 10.8828 33.6076 8.37899 36.6674 8.37899C39.7272 8.37899 42.2097 10.8828 42.2097 13.972Z" stroke="url(#paint0_linear_2015_6126)" stroke-width="0.132989"/>
<path d="M36.3792 8.39895C35.1003 8.58633 34.2469 9.2288 34.0071 9.42958C33.4319 9.57904 32.6719 10.033 32.6033 10.0754C32.5594 10.1222 32.5154 10.1702 32.4727 10.2182C32.4535 10.2405 32.4344 10.2628 32.4153 10.2851C32.3871 10.3174 32.359 10.3509 32.3308 10.3844C31.8411 11.0257 31.6542 11.7741 31.6002 12.0385L31.1926 12.7401C31.1791 12.8003 31.1667 12.8605 31.1555 12.9219C31.151 12.9442 31.1476 12.9665 31.1431 12.9899C31.1341 13.0424 31.1251 13.0937 31.1172 13.1461C31.1228 13.1416 31.1284 13.1349 31.1318 13.1282L31.6655 12.208C31.8366 12.2984 32.2239 12.4244 32.4186 12.4858C32.4423 12.7066 32.6382 14.5214 32.9433 14.9285C32.7631 15.1538 32.4738 16.0283 32.4456 16.4599C31.8951 16.4789 31.4797 16.0985 31.4752 16.0952C31.4707 16.0919 31.4662 16.0896 31.4617 16.0863C31.4966 16.1733 31.5337 16.2592 31.572 16.3439C31.7533 16.4599 32.0471 16.6027 32.4017 16.6027C32.4198 16.6027 32.4389 16.6027 32.458 16.6016C32.601 17.0344 33.7842 17.9356 34.0612 18.142C34.1164 18.3751 34.2638 18.8034 34.659 19.2607C34.7536 19.2975 34.8493 19.3321 34.9472 19.3633C34.9472 19.3633 34.9427 19.3555 34.9393 19.3522C34.4732 18.8904 34.2886 18.4297 34.2166 18.1687C34.856 18.0494 35.4245 17.6813 35.6362 17.5318C35.903 17.6311 36.8735 17.9613 37.9171 17.9613C37.9937 17.9613 38.0702 17.959 38.1479 17.9546C38.2729 18.4141 38.5734 18.7387 38.6872 18.8491C38.5667 18.9807 38.1997 19.3154 37.3812 19.573C37.37 19.5764 37.3609 19.5831 37.3531 19.5909C37.4544 19.5786 37.5535 19.563 37.6525 19.5451C37.6796 19.5407 37.7066 19.5362 37.7336 19.5306C37.7707 19.5239 37.8079 19.5161 37.845 19.5083C37.9171 19.4927 37.988 19.4771 38.059 19.4581C38.6466 19.1715 38.8436 18.8859 38.8538 18.8714C38.856 18.8692 38.856 18.8659 38.8572 18.8625C41.0885 18.355 41.2596 16.8236 41.2686 16.4276C41.4488 16.2224 41.8721 15.6702 42.2256 14.6865C42.2368 14.595 42.2458 14.5024 42.2537 14.4087C42.256 14.3786 42.2582 14.3474 42.2605 14.3173C42.2627 14.2827 42.2639 14.2481 42.2661 14.2135C42.2695 14.1343 42.2717 14.0551 42.2717 13.9748C42.2717 13.8878 42.2695 13.8019 42.265 13.7161C42.265 13.6937 42.2627 13.6703 42.2616 13.648C42.2571 13.5722 42.2515 13.4963 42.2447 13.4216C42.2447 13.4116 42.2436 13.4004 42.2425 13.3904C42.2335 13.3078 42.2233 13.2253 42.2109 13.1439C42.2076 13.1204 42.2042 13.097 42.1997 13.0736C42.1896 13.0067 42.1772 12.9409 42.1648 12.875C42.1614 12.8572 42.158 12.8394 42.1547 12.8204C42.1389 12.7423 42.1209 12.6654 42.1017 12.5884C42.0961 12.5638 42.0894 12.5393 42.0826 12.5148C42.0668 12.4568 42.0511 12.3988 42.0342 12.3419C42.0274 12.3185 42.0207 12.2939 42.0128 12.2705C41.9903 12.198 41.9655 12.1266 41.9408 12.0552C41.9317 12.0285 41.9216 12.0028 41.9115 11.9771C41.8923 11.927 41.8732 11.8756 41.8529 11.8266C41.8417 11.7987 41.8304 11.7708 41.8192 11.744C41.791 11.6771 41.7606 11.6102 41.7302 11.5455C41.7178 11.5187 41.7043 11.4919 41.6908 11.4663C41.6683 11.4206 41.6458 11.3759 41.6221 11.3313C41.6075 11.3023 41.5918 11.2733 41.576 11.2443C41.5422 11.1819 41.5073 11.1205 41.4702 11.0592C41.5253 11.2689 41.7088 12.0195 41.5704 12.2616C41.0063 12.111 40.2791 12.1021 40.0291 12.1032C39.8861 11.7061 38.7322 10.758 38.3809 10.5572C38.3809 10.429 38.3539 9.337 38.3472 9.03807C38.7254 8.98342 39.6238 9.17415 39.6238 9.17415C39.6238 9.17303 39.625 9.1708 39.6261 9.16969C38.7671 8.62872 37.7527 8.31641 36.6652 8.31641C36.6393 8.31641 36.6134 8.31752 36.5875 8.31864L36.377 8.40229L36.3792 8.39895ZM33.111 14.9084C33.1065 14.8939 33.0986 14.8794 33.0851 14.8694C32.8712 14.7143 32.6528 13.3257 32.565 12.4791C33.0952 11.7106 33.8529 11.0525 34.0679 10.8718C34.149 10.8874 35.7387 11.2031 36.3016 11.4875C36.3376 11.9046 36.5999 13.2409 36.6967 13.5867C36.4716 13.8075 35.2568 15.0021 34.9416 15.417C34.623 15.2899 33.4791 15.001 33.111 14.9084ZM40.0235 12.2426C40.2633 12.2415 41.0266 12.2504 41.5794 12.4077C41.7426 12.6252 42.1378 13.2599 42.1828 14.3663C42.1828 14.3663 42.1851 14.3663 42.1873 14.3663C41.8406 15.4505 41.3835 16.0729 41.1853 16.3082C40.9106 16.2681 40.0618 16.2436 39.7938 16.2369C39.7387 15.6635 39.3064 14.4935 39.1285 14.0295C39.5101 13.6949 39.9222 12.5393 40.0235 12.2426ZM38.9956 14.083C39.1836 14.5738 39.6565 15.8599 39.6565 16.3473C39.6565 16.3517 39.6587 16.3562 39.6599 16.3618C39.4178 16.7511 38.3731 17.6099 38.1637 17.8107C37.0772 17.8687 36.0145 17.5151 35.7094 17.4036C35.6148 17.1058 35.1938 15.794 35.0519 15.5085C35.3334 15.1304 36.5301 13.9514 36.7845 13.7016C37.12 13.8365 38.7007 14.0451 38.9956 14.083ZM38.2413 10.5171C37.8372 10.5472 36.5481 11.2332 36.3376 11.3458C35.7612 11.0714 34.3764 10.7881 34.1287 10.7391V9.51658C34.3944 9.30242 35.2332 8.70122 36.4367 8.53391C37.2067 8.60306 37.9284 8.87188 38.2076 8.98565C38.2121 9.1563 38.238 10.2672 38.2425 10.516L38.2413 10.5171Z" fill="url(#paint1_linear_2015_6126)"/>
<path d="M36.6532 28.2959C42.9765 28.2959 48.3334 24.2232 50.2113 18.5842C45.4804 25.1006 31.5617 23.8831 30.405 15.8405C30.2579 15.3003 30.1771 14.7344 30.1771 14.1514C30.1771 10.6074 33.0762 7.73502 36.6532 7.73502C39.6389 7.73502 42.1515 9.73852 42.8986 12.4594C41.7418 4.41681 27.8232 3.19927 23.0923 9.71566C22.6278 11.1104 22.3711 12.6023 22.3711 14.1514C22.3711 21.9653 28.7636 28.2988 36.6504 28.2988L36.6532 28.2959Z" fill="url(#paint2_linear_2015_6126)"/>
<path d="M42.899 12.4564C43.0461 12.9966 43.1269 13.5625 43.1269 14.1484C43.1269 17.6924 40.2277 20.5648 36.6507 20.5648C33.6651 20.5648 31.1525 18.5612 30.4053 15.8404C31.5621 23.883 45.4808 25.1005 50.2117 18.5841C50.6761 17.1894 50.9329 15.6975 50.9329 14.1484C50.9329 6.33445 44.5404 0.000976562 36.6536 0.000976562C30.3303 0.000976562 24.9735 4.07372 23.0955 9.71268C27.8264 3.19629 41.7451 4.41383 42.9019 12.4564H42.899Z" fill="url(#paint3_linear_2015_6126)"/>
<path fill-rule="evenodd" clip-rule="evenodd" d="M38.7254 8.71545L26.2189 3.52621L26.5283 2.99242L39.0099 8.16117L38.7254 8.71545Z" fill="#45AA18"/>
<path fill-rule="evenodd" clip-rule="evenodd" d="M41.8352 17.9321L33.4392 28.4188L32.8124 27.8375L41.2084 17.3509L41.8352 17.9321Z" fill="#45AA18"/>
<path d="M14.1325 0.0352726C16.6057 0.239732 18.5881 -0.526587 20.4178 1.2894C21.7535 2.59504 21.6674 4.24521 21.6544 4.24521V10.0312L14.3275 10.0312V7.296C10.1368 7.28312 11.7341 7.28151 7.35975 7.296V9.92983L0.0279808 9.92983C0.0279808 4.08905 -0.308384 2.85102 1.28244 1.28779C2.76602 -0.174017 4.25934 0.154406 4.25934 0.0497608C5.39193 0.0497608 5.25056 0.0690804 5.22781 -0.000145912C11.3669 0.0207825 9.36168 0.0207825 14.1325 -0.000145912V0.0336609V0.0352726Z" fill="url(#paint4_linear_2015_6126)"/>
<path d="M13.8555 12.8102L6.76907 20.021C4.1529 20.021 2.7912 20.2673 1.28487 18.7733C-0.226333 17.2568 0.0304089 16.4856 0.0304089 10.4693H7.36218L7.36218 12.7603L13.8538 12.8102H13.8555Z" fill="url(#paint5_linear_2015_6126)"/>
<path d="M20.2336 17.8302L9.67142 28.2979L2.33966 28.264C2.47453 26.184 3.22363 24.4373 4.60646 23.0286L14.2944 13.427L14.3106 10.5807H21.6262C21.6262 15.7534 21.8504 16.2428 20.232 17.8302H20.2336Z" fill="url(#paint6_linear_2015_6126)"/>
<mask id="mask0_2015_6126" style="mask-type:alpha" maskUnits="userSpaceOnUse" x="22" y="0" width="29" height="29">
<ellipse cx="36.6014" cy="14.1499" rx="14.2811" ry="14.149" fill="#D9D9D9"/>
</mask>
<g mask="url(#mask0_2015_6126)">
<path d="M24.4403 8.85031H22.5042C22.4565 8.85031 22.418 8.81214 22.418 8.76486C22.418 8.71758 22.4565 8.67941 22.5042 8.67941H24.4311L26.2866 8.28176C26.2866 8.28176 26.2912 8.28062 26.2935 8.28062L28.1278 8.03679L30.6671 7.82715C30.6717 7.82715 30.6763 7.82715 30.6809 7.82715L33.4691 8.03622L36.8139 8.10516C36.8616 8.1063 36.8996 8.14504 36.8984 8.19232C36.8973 8.2396 36.8588 8.27663 36.8105 8.27606L33.461 8.20713L30.6751 7.99806L28.1468 8.20656L26.32 8.44925L24.4581 8.8486C24.4524 8.84974 24.446 8.85031 24.4397 8.85031H24.4403Z" fill="#DAE0E6"/>
<path d="M22.4757 8.78675C22.4504 8.78675 22.4297 8.76624 22.4297 8.74118C22.4297 8.71611 22.4504 8.6956 22.4757 8.6956H24.4066L26.2667 8.29682L28.105 8.05242L30.6425 7.84277H30.65L33.4382 8.05185L36.7848 8.12078C36.7969 8.12078 36.8084 8.12591 36.817 8.13503C36.8256 8.14357 36.8302 8.15553 36.8296 8.1675C36.8296 8.19256 36.8089 8.21193 36.7831 8.21193L33.4331 8.143L30.646 7.93392L28.1148 8.143L26.2857 8.38626L24.4215 8.78561C24.4181 8.78618 24.4152 8.78675 24.4117 8.78675H22.4757Z" fill="#EDF0F2"/>
<path d="M31.1332 6.00382C31.128 6.00382 31.1228 6.00382 31.1176 6.00268L28.1236 5.46148L25.8759 5.14416L22.8927 4.66448C22.8456 4.65707 22.8139 4.61321 22.8214 4.56649C22.8289 4.51978 22.8737 4.48788 22.9203 4.49585L25.9017 4.97553L28.1512 5.29342L31.1487 5.8352C31.1953 5.84374 31.2269 5.88818 31.2183 5.93432C31.2108 5.97534 31.1746 6.00439 31.1337 6.00439L31.1332 6.00382Z" fill="#DAE0E6"/>
<path d="M31.104 5.93969C31.104 5.93969 31.0983 5.93969 31.096 5.93912L28.1019 5.39791L25.8525 5.08003L22.8705 4.60035C22.8584 4.59864 22.8475 4.5918 22.8406 4.58212C22.8337 4.57243 22.8308 4.56047 22.8325 4.54794C22.836 4.52629 22.8555 4.50977 22.8774 4.50977C22.8797 4.50977 22.8825 4.50977 22.8848 4.51034L25.8663 4.99002L28.1169 5.3079L31.1127 5.84911C31.1247 5.85139 31.1351 5.85822 31.142 5.86791C31.1489 5.87759 31.1518 5.89013 31.1495 5.90209C31.1454 5.92374 31.1265 5.93969 31.104 5.93969Z" fill="#EDF0F2"/>
<path d="M23.4379 12.8078C23.3947 12.8078 23.3574 12.7759 23.3522 12.7321C23.3464 12.6853 23.3804 12.6426 23.4281 12.6375L25.428 12.4068C25.428 12.4068 25.4326 12.4068 25.4349 12.4068L27.5296 12.3367L29.7682 12.0433L32.492 11.714C32.5391 11.7083 32.5823 11.7414 32.588 11.7886C32.5938 11.8354 32.5604 11.8781 32.5127 11.8838L29.79 12.2131L27.5486 12.507C27.5486 12.507 27.5429 12.5076 27.54 12.5076L25.4447 12.5777L23.4482 12.8078C23.4448 12.8078 23.4413 12.8084 23.4379 12.8084V12.8078Z" fill="#DAE0E6"/>
<path d="M23.409 12.7441C23.3859 12.7441 23.3658 12.727 23.3635 12.7037C23.3624 12.6917 23.3652 12.6797 23.3733 12.6701C23.3808 12.6604 23.3917 12.6547 23.4044 12.653L25.4042 12.4222L27.5024 12.3522L29.745 12.0588L32.4682 11.7295C32.4682 11.7295 32.4722 11.7295 32.474 11.7295C32.497 11.7295 32.5165 11.7466 32.5194 11.7694C32.5211 11.7813 32.5177 11.7933 32.5102 11.803C32.5027 11.8127 32.4918 11.8184 32.4797 11.8201L29.7571 12.1494L27.5151 12.4433L25.4152 12.514L23.4159 12.7447H23.4107L23.409 12.7441Z" fill="#EDF0F2"/>
<path d="M23.6841 17.0134C23.6392 17.0134 23.6013 16.9786 23.5978 16.9336C23.5949 16.8863 23.6306 16.8459 23.6783 16.843L25.6523 16.7149L27.7712 16.4961C27.7741 16.4961 27.777 16.4961 27.7804 16.4961H32.1764C32.2241 16.4961 32.2626 16.5343 32.2626 16.5815C32.2626 16.6288 32.2241 16.667 32.1764 16.667H27.7845L25.6667 16.8858L23.6892 17.0139C23.6892 17.0139 23.6852 17.0139 23.6835 17.0139L23.6841 17.0134Z" fill="#DAE0E6"/>
<path d="M23.6555 16.9498C23.6313 16.9498 23.6112 16.931 23.6095 16.9071C23.6078 16.882 23.6273 16.8604 23.6526 16.8587L25.6266 16.7305L27.7467 16.5117H32.1478C32.1731 16.5117 32.1938 16.5317 32.1938 16.5573C32.1938 16.5829 32.1731 16.6029 32.1478 16.6029H27.7564L25.6347 16.8216L23.6555 16.9498Z" fill="#EDF0F2"/>
<path d="M36.2029 22.8101C36.1747 22.8101 36.1465 22.7964 36.1304 22.7708C35.8268 22.3019 35.8015 21.8843 35.767 21.3061L35.7636 21.2531H31.5936C31.5896 21.2531 31.5861 21.2531 31.5821 21.2525L29.7737 21.0161L28.0837 21.0446L26.3282 20.9591L24.866 21.0161C24.866 21.0161 24.8614 21.0161 24.8591 21.0161L22.8753 20.9307C22.8276 20.9284 22.7908 20.8885 22.7931 20.8418C22.7954 20.7945 22.8356 20.7586 22.8828 20.7603L24.8631 20.8458L26.3259 20.7888C26.3259 20.7888 26.3311 20.7888 26.3334 20.7888L28.0872 20.8743L29.7777 20.8458C29.7817 20.8458 29.7863 20.8458 29.7904 20.8463L31.5993 21.0828H35.8452C35.8906 21.0828 35.9286 21.1181 35.9315 21.1631L35.9395 21.2964C35.974 21.8695 35.9964 22.2478 36.2759 22.679C36.3018 22.7189 36.2903 22.7713 36.25 22.797C36.2356 22.8061 36.2195 22.8106 36.2034 22.8106L36.2029 22.8101Z" fill="#DAE0E6"/>
<path d="M36.1749 22.746C36.1593 22.746 36.1444 22.7381 36.1363 22.725C35.8385 22.2646 35.8138 21.8516 35.7793 21.2791L35.7735 21.1885H31.5656C31.5656 21.1885 31.5616 21.1885 31.5598 21.1885L29.7486 20.9515L28.0557 20.98L26.3025 20.8945L24.8362 20.9515L22.8484 20.8661C22.8231 20.8649 22.8036 20.8438 22.8047 20.8182C22.8059 20.7943 22.8266 20.7749 22.8513 20.7749L24.8328 20.8604L26.2991 20.8034L28.0569 20.8888L29.7503 20.8604H29.7572L31.5662 21.0973H35.8172C35.8414 21.0973 35.8615 21.1167 35.8632 21.1406L35.8713 21.274C35.9058 21.8533 35.9288 22.2362 36.214 22.676C36.2278 22.697 36.2214 22.7255 36.2002 22.7392C36.1927 22.7438 36.1841 22.7466 36.1754 22.7466L36.1749 22.746Z" fill="#EDF0F2"/>
<path d="M32.4978 28.2215C32.4668 28.2215 32.4369 28.2049 32.4214 28.1759L31.3076 26.0697L30.59 25.6755L29.2858 25.5547L28.08 25.4294C28.08 25.4294 28.076 25.4294 28.0737 25.4283L26.3182 25.1166L25.1481 25.1451C25.144 25.1451 25.14 25.1451 25.136 25.1446L23.6697 24.9737C23.6226 24.968 23.5886 24.9258 23.5944 24.8791C23.6001 24.8324 23.6427 24.7982 23.6898 24.8045L25.1498 24.9748L26.3222 24.9463C26.328 24.9463 26.3337 24.9463 26.3395 24.9474L28.1002 25.2602L29.3019 25.385L30.6233 25.5075C30.6354 25.5086 30.6469 25.512 30.6572 25.5177L31.4134 25.933C31.4283 25.941 31.4404 25.9535 31.4479 25.9683L32.5737 28.0973C32.5956 28.1389 32.5795 28.1907 32.5375 28.2129C32.5249 28.2197 32.5111 28.2226 32.4978 28.2226V28.2215Z" fill="#DAE0E6"/>
<path d="M32.4695 28.1573C32.4522 28.1573 32.4367 28.1482 32.4286 28.1328L31.3091 26.0159L30.5736 25.6119L29.2609 25.49L28.0557 25.3647L26.2933 25.0519L25.1191 25.0804C25.1191 25.0804 25.1151 25.0804 25.1122 25.0804L23.6459 24.9095C23.6339 24.9084 23.6229 24.9021 23.6155 24.8924C23.608 24.8827 23.6045 24.8708 23.6057 24.8588C23.6086 24.836 23.6275 24.8184 23.6505 24.8184H23.6569L25.1168 24.9893L26.295 24.9614C26.295 24.9614 26.3008 24.9614 26.3042 24.9619L28.0649 25.2747L29.2695 25.4L30.5915 25.5225C30.5978 25.5225 30.6041 25.5248 30.6099 25.5282L31.3654 25.9429C31.3735 25.9475 31.3798 25.9538 31.3838 25.9617L32.5097 28.0907C32.5155 28.1015 32.5166 28.114 32.5132 28.1254C32.5097 28.1368 32.5017 28.1465 32.4907 28.1522C32.4844 28.1556 32.4769 28.1573 32.4695 28.1573Z" fill="#EDF0F2"/>
<g style="mix-blend-mode:overlay" opacity="0.5" filter="url(#filter0_i_2015_6126)">
<path d="M24.4403 8.85065H22.5042C22.4565 8.85065 22.418 8.81248 22.418 8.7652C22.418 8.71791 22.4565 8.67974 22.5042 8.67974H24.4311L26.2866 8.2821C26.2866 8.2821 26.2912 8.28096 26.2935 8.28096L28.1278 8.03713L30.6671 7.82748C30.6717 7.82748 30.6763 7.82748 30.6809 7.82748L33.4691 8.03656L36.8139 8.10549C36.8616 8.10663 36.8996 8.14537 36.8984 8.19266C36.8973 8.23994 36.8588 8.27697 36.8105 8.2764L33.461 8.20747L30.6751 7.99839L28.1468 8.2069L26.32 8.44959L24.4581 8.84894C24.4524 8.85008 24.446 8.85065 24.4397 8.85065H24.4403ZM31.2185 5.93383C31.2271 5.88769 31.1961 5.84268 31.1489 5.83471L28.1514 5.29293L25.902 4.97504L22.9205 4.49536C22.874 4.48739 22.8291 4.51929 22.8216 4.566C22.8142 4.61272 22.8458 4.65659 22.8929 4.66399L25.8761 5.14367L28.1238 5.46099L31.1179 6.0022C31.123 6.00333 31.1282 6.00333 31.1334 6.00333C31.1742 6.00333 31.2104 5.97428 31.2179 5.93326L31.2185 5.93383ZM23.4472 12.8077L25.4437 12.5776L27.539 12.5075C27.539 12.5075 27.5448 12.5075 27.5476 12.5069L29.789 12.213L32.5117 11.8837C32.5588 11.878 32.5928 11.8353 32.587 11.7885C32.5813 11.7418 32.5381 11.7082 32.491 11.7139L29.7672 12.0432L27.5287 12.3366L25.4339 12.4067C25.4339 12.4067 25.4293 12.4067 25.427 12.4067L23.4271 12.6374C23.38 12.6431 23.346 12.6852 23.3512 12.732C23.3564 12.7752 23.3938 12.8077 23.4369 12.8077C23.4403 12.8077 23.4438 12.8077 23.4472 12.8072V12.8077ZM23.6887 17.0132L25.6662 16.885L27.784 16.6662H32.1753C32.223 16.6662 32.2616 16.6281 32.2616 16.5808C32.2616 16.5335 32.223 16.4953 32.1753 16.4953H27.7794C27.7765 16.4953 27.7736 16.4953 27.7702 16.4953L25.6512 16.7141L23.6772 16.8423C23.6295 16.8451 23.5939 16.8861 23.5967 16.9329C23.5996 16.9779 23.6376 17.0126 23.683 17.0126C23.6847 17.0126 23.687 17.0126 23.6887 17.0126V17.0132ZM36.2487 22.7967C36.2889 22.771 36.3004 22.7181 36.2745 22.6788C35.9951 22.2475 35.9727 21.8692 35.9382 21.2961L35.9301 21.1628C35.9272 21.1178 35.8899 21.0825 35.8439 21.0825H31.5986L29.7896 20.8461C29.7856 20.8461 29.781 20.8455 29.7769 20.8455L28.0864 20.874L26.3326 20.7885C26.3326 20.7885 26.3275 20.7885 26.3252 20.7885L24.8623 20.8455L22.882 20.76C22.8349 20.7583 22.794 20.7948 22.7923 20.8415C22.79 20.8888 22.8274 20.9287 22.8745 20.9304L24.8583 21.0158C24.8583 21.0158 24.8629 21.0158 24.8652 21.0158L26.3275 20.9589L28.083 21.0443L29.7729 21.0158L31.5813 21.2522C31.5848 21.2522 31.5888 21.2528 31.5928 21.2528H35.7634L35.7668 21.3058C35.8013 21.884 35.8266 22.3022 36.1302 22.7705C36.1469 22.7961 36.1745 22.8098 36.2027 22.8098C36.2188 22.8098 36.2349 22.8052 36.2492 22.7961L36.2487 22.7967ZM32.541 28.2127C32.583 28.1911 32.5997 28.1392 32.5772 28.0971L31.4514 25.9681C31.4433 25.9533 31.4312 25.9414 31.4169 25.9328L30.6607 25.5175C30.6504 25.5118 30.6389 25.5084 30.6268 25.5073L29.3054 25.3848L28.1037 25.26L26.343 24.9473C26.3372 24.9461 26.3315 24.9461 26.3257 24.9461L25.1533 24.9746L23.6933 24.8043C23.6462 24.798 23.6031 24.8322 23.5979 24.8789C23.5921 24.9256 23.6261 24.9683 23.6732 24.9735L25.1395 25.1444C25.1435 25.1444 25.1475 25.1444 25.1516 25.1449L26.3217 25.1165L28.0772 25.4281C28.0772 25.4281 28.0812 25.4287 28.0835 25.4292L29.2893 25.5546L30.5935 25.6753L31.3111 26.0696L32.4249 28.1757C32.4404 28.2048 32.4703 28.2213 32.5013 28.2213C32.5146 28.2213 32.5284 28.2184 32.541 28.2116V28.2127Z" fill="url(#paint7_linear_2015_6126)" style="mix-blend-mode:overlay"/>
</g>
<path d="M23.9119 25.1171C23.9056 25.1171 23.8993 25.1165 23.8924 25.1148C23.8458 25.1045 23.8171 25.0584 23.8274 25.0123L24.7745 20.919C24.7808 20.5681 24.7469 20.31 24.7135 20.0611C24.6192 19.3547 24.545 18.7969 25.5737 16.7711C25.9647 14.8632 25.775 13.6999 25.3656 12.5508C24.2017 11.9105 23.6014 11.2081 22.6067 9.87557C22.5785 9.8374 22.5865 9.78441 22.6245 9.75593C22.6624 9.72802 22.7165 9.73599 22.7452 9.77359C23.7555 11.1272 24.3196 11.7863 25.4771 12.417C25.4955 12.4272 25.5099 12.4437 25.5168 12.4631C25.9446 13.6515 26.1459 14.8461 25.7405 16.8167C25.7387 16.8241 25.7364 16.8315 25.733 16.8383C24.7227 18.8248 24.7906 19.3341 24.8849 20.0394C24.9176 20.285 24.9544 20.5635 24.947 20.9321C24.947 20.9378 24.9464 20.9441 24.9447 20.9492L23.9959 25.0504C23.9867 25.0897 23.951 25.1171 23.9119 25.1171Z" fill="#DAE0E6"/>
<path d="M23.8836 25.0533C23.8802 25.0533 23.8767 25.0533 23.8733 25.0521C23.8612 25.0493 23.8508 25.0425 23.8445 25.0316C23.8382 25.0214 23.8359 25.0094 23.8388 24.9975L24.7864 20.9002V20.8962C24.7933 20.5425 24.7588 20.2833 24.7254 20.0326C24.6323 19.3324 24.5581 18.7798 25.5816 16.7654L25.5839 16.7609L25.5851 16.7557C25.9795 14.8313 25.7863 13.6686 25.3752 12.5144L25.37 12.5001L25.3568 12.4927C24.1993 11.8558 23.6047 11.1597 22.6105 9.82829C22.5956 9.80835 22.5996 9.7793 22.6203 9.76449C22.6284 9.75879 22.6376 9.75537 22.6473 9.75537C22.6623 9.75537 22.6755 9.76221 22.6847 9.7736C23.6985 11.1317 24.2643 11.7937 25.4292 12.4284C25.439 12.4335 25.4465 12.4426 25.4505 12.4529C25.876 13.635 26.0761 14.8239 25.6725 16.7848C25.6719 16.7888 25.6702 16.7928 25.6684 16.7962C24.6524 18.7941 24.7214 19.3085 24.8163 20.0201C24.8491 20.2645 24.8859 20.5413 24.8784 20.9065C24.8784 20.9099 24.8784 20.9128 24.8772 20.9156L23.9279 25.018C23.9233 25.0385 23.9043 25.0533 23.883 25.0533H23.8836Z" fill="#EDF0F2"/>
<path d="M30.0625 28.508C30.0487 28.508 30.0349 28.5046 30.0217 28.4977C29.9797 28.4755 29.9642 28.4237 29.9866 28.3821L32.2579 24.1948C32.2625 24.1857 32.2694 24.1777 32.2769 24.1709L35.7816 21.1065L39.3875 17.3813L41.3425 12.0541L36.7637 8.26617L31.0981 5.99879L23.6431 2.49289C23.6 2.47295 23.5816 2.42168 23.6023 2.37896C23.6224 2.33623 23.6741 2.318 23.7173 2.33851L31.1677 5.84212L36.8413 8.11236C36.8494 8.11577 36.8574 8.12033 36.8643 8.12603L41.5001 11.9612C41.5283 11.984 41.5386 12.0222 41.526 12.0558L39.5439 17.4565C39.5399 17.4679 39.5336 17.4781 39.5249 17.4867L35.9041 21.2279C35.9041 21.2279 35.9006 21.2313 35.8989 21.233L32.4028 24.29L30.139 28.4635C30.1235 28.492 30.0936 28.5085 30.0631 28.5085L30.0625 28.508Z" fill="#DAE0E6"/>
<path d="M30.0339 28.4444C30.0264 28.4444 30.0189 28.4426 30.012 28.4387C29.9896 28.4267 29.9815 28.3994 29.9931 28.3771L32.2643 24.1899C32.2667 24.1853 32.2701 24.1808 32.2747 24.1774L35.7794 21.113L39.3934 17.3792L41.361 12.0178L36.7558 8.20769L31.0844 5.93803L23.6317 2.43327C23.6208 2.42815 23.6121 2.41903 23.6081 2.40764C23.6041 2.39624 23.6047 2.38371 23.6098 2.37289C23.6173 2.35693 23.634 2.34668 23.6512 2.34668C23.6581 2.34668 23.6645 2.34839 23.6708 2.35124L31.1218 5.85485L36.7977 8.12622C36.8023 8.12793 36.8064 8.13021 36.8098 8.13363L41.4456 11.9688C41.4605 11.9813 41.4657 12.0013 41.4594 12.0195L39.4773 17.4202C39.475 17.4259 39.4716 17.4316 39.467 17.4362L35.8461 21.1773L32.342 24.2412L30.0747 28.421C30.0667 28.4358 30.0511 28.4449 30.0339 28.4449V28.4444Z" fill="#EDF0F2"/>
<path d="M29.3765 28.6788C29.3656 28.6788 29.3547 28.6765 29.3438 28.6726C29.2995 28.6549 29.2788 28.6048 29.2966 28.5609L30.5956 25.4276C30.5979 25.4224 30.6002 25.4173 30.6036 25.4128L33.4735 21.1213C33.4764 21.1167 33.4798 21.1121 33.4839 21.1082C34.681 19.9061 35.961 18.5531 37.2933 16.407L37.1628 11.7361L33.5805 8.27922L28.1006 5.45411L23.3941 2.719C23.3533 2.69508 23.3395 2.64267 23.3631 2.60222C23.3872 2.56177 23.4401 2.5481 23.4809 2.57145L28.184 5.30485L33.6713 8.13395C33.6788 8.13793 33.6857 8.14249 33.6914 8.14876L37.3083 11.6387C37.3244 11.6541 37.3336 11.6752 37.3341 11.6974L37.4658 16.4281C37.4658 16.4446 37.4618 16.4612 37.4532 16.4754C36.1088 18.6459 34.8185 20.0115 33.6121 21.2227L30.7514 25.5005L29.4559 28.6258C29.4421 28.6589 29.4099 28.6788 29.376 28.6788H29.3765Z" fill="#DAE0E6"/>
<path d="M29.3478 28.6153C29.3421 28.6153 29.3358 28.6141 29.3306 28.6118C29.3191 28.6073 29.3105 28.5987 29.3059 28.5873C29.3013 28.576 29.3013 28.5634 29.3059 28.5526L30.6048 25.4193C30.6048 25.4193 30.6071 25.4141 30.6088 25.4119L33.4793 21.1198C33.4793 21.1198 33.4828 21.1147 33.4851 21.113C34.6834 19.9098 35.9651 18.5556 37.3003 16.405L37.3066 16.3948L37.1755 11.6959L33.5771 8.22363L28.0909 5.3951L23.3861 2.66114C23.3643 2.6486 23.3568 2.62069 23.3694 2.59847C23.3775 2.5848 23.393 2.57568 23.4091 2.57568C23.4172 2.57568 23.4252 2.57796 23.4321 2.58195L28.1351 5.31534L33.6242 8.14558C33.6282 8.14786 33.6317 8.15014 33.6351 8.15356L37.252 11.6435C37.2606 11.652 37.2658 11.6629 37.2658 11.6748L37.3974 16.4061C37.3974 16.4153 37.3951 16.4238 37.3905 16.4312C36.0467 18.6006 34.7587 19.9627 33.5552 21.1716L33.5523 21.1745L30.687 25.4586L29.3898 28.5879C29.3829 28.605 29.3662 28.6164 29.3473 28.6164L29.3478 28.6153Z" fill="#EDF0F2"/>
<path d="M28.3736 28.678C28.3655 28.678 28.3575 28.6769 28.3494 28.6746C28.3034 28.6615 28.2775 28.6142 28.2908 28.5686L29.2901 25.179C29.2919 25.1733 29.2942 25.1676 29.297 25.1619L31.5143 21.1267C31.5143 21.1267 31.5172 21.1216 31.5189 21.1188L34.8189 16.4057L34.4641 11.6579C32.8972 10.3493 31.1463 8.67608 30.6121 7.97763L25.6101 4.99472C25.6066 4.99244 25.6026 4.99016 25.5997 4.98731L23.6251 3.36368C23.5883 3.33349 23.5831 3.27937 23.6136 3.24348C23.6441 3.20702 23.6981 3.20189 23.7349 3.23208L25.7044 4.85172L30.7162 7.8392C30.7259 7.84489 30.734 7.8523 30.7409 7.86142C31.259 8.54733 33.0283 10.2365 34.6038 11.5502C34.6217 11.565 34.6326 11.5861 34.6343 11.6094L34.9937 16.4233C34.9954 16.4427 34.9897 16.4621 34.9787 16.4786L31.6638 21.2128L29.4529 25.2359L28.4564 28.6171C28.4454 28.6541 28.4109 28.6786 28.3736 28.6786V28.678Z" fill="#DAE0E6"/>
<path d="M28.3453 28.6146C28.3407 28.6146 28.3366 28.614 28.3326 28.6129C28.3205 28.6094 28.3108 28.6015 28.305 28.5912C28.2993 28.5804 28.2975 28.5684 28.301 28.5565L29.3004 25.1668C29.3015 25.1639 29.3027 25.1605 29.3038 25.1577L31.5211 21.1225L34.832 16.3935L34.4749 11.6149L34.4617 11.6041C32.9068 10.3052 31.1456 8.6223 30.616 7.93012L30.6114 7.92385L25.6019 4.93752C25.6019 4.93752 25.5979 4.93524 25.5961 4.93353L23.6221 3.3099C23.6026 3.29395 23.5997 3.26489 23.6164 3.24552C23.625 3.23527 23.6382 3.229 23.652 3.229C23.6595 3.229 23.671 3.23071 23.6813 3.23926L25.6525 4.86118L30.6666 7.85036C30.6718 7.85321 30.6758 7.8572 30.6798 7.86232C31.1996 8.54994 32.9712 10.2425 34.5491 11.5579C34.5583 11.5659 34.5646 11.5773 34.5652 11.5893L34.9246 16.4032C34.9251 16.4134 34.9223 16.4243 34.9165 16.4322L31.6016 21.1664L29.3866 25.197L28.389 28.5821C28.3832 28.6015 28.3654 28.6151 28.3447 28.6151L28.3453 28.6146Z" fill="#EDF0F2"/>
<path d="M27.0727 28.2229C27.0629 28.2229 27.0532 28.2212 27.0434 28.2178C26.9985 28.2018 26.9755 28.1528 26.9916 28.1084L28.0082 25.3169L29.6948 20.9006C29.6959 20.8972 29.6976 20.8932 29.6999 20.8898L32.0879 16.5568L32.4088 11.8443C31.1064 11.0188 29.5602 9.60026 28.0807 8.18742L23.6284 4.90543C23.5905 4.87752 23.5824 4.82397 23.6106 4.7858C23.6393 4.7482 23.6928 4.74022 23.7313 4.76814L28.1877 8.05354C28.1905 8.05582 28.1934 8.0581 28.1963 8.06038C29.6867 9.48347 31.2444 10.9128 32.5439 11.7269C32.5709 11.7434 32.5859 11.7736 32.5842 11.805L32.2587 16.5864C32.2581 16.5989 32.2541 16.6109 32.2484 16.6217L29.854 20.9662L28.1698 25.3756L27.1538 28.1659C27.1411 28.2007 27.1078 28.2223 27.0727 28.2223V28.2229Z" fill="#DAE0E6"/>
<path d="M27.0434 28.1591C27.0382 28.1591 27.033 28.1579 27.0278 28.1562C27.0043 28.1477 26.9916 28.1215 27.0002 28.0981L28.0169 25.3066L29.7034 20.891C29.7034 20.891 29.7051 20.887 29.7062 20.8853L32.0983 16.5442L32.4214 11.7998L32.4013 11.7873C31.1001 10.9624 29.555 9.54501 28.0795 8.13559L23.6238 4.84961C23.614 4.84221 23.6077 4.83195 23.606 4.81942C23.6042 4.80746 23.6071 4.79549 23.6146 4.78581C23.6232 4.77441 23.637 4.76758 23.6514 4.76758C23.6612 4.76758 23.6709 4.77043 23.679 4.77669L28.1353 8.0621C28.1353 8.0621 28.1382 8.06438 28.1399 8.06609C29.6315 9.49089 31.1915 10.9219 32.4939 11.7372C32.5082 11.7463 32.5163 11.7622 32.5151 11.7788L32.1897 16.5602C32.1897 16.5664 32.1874 16.5733 32.1839 16.579L29.7896 20.9234L28.1031 25.338L27.0871 28.1289C27.0807 28.1471 27.0629 28.1591 27.0439 28.1591H27.0434Z" fill="#EDF0F2"/>
<path d="M25.176 28.5071C25.1668 28.5071 25.1576 28.5053 25.1484 28.5025C25.103 28.4877 25.0788 28.4393 25.0943 28.3943L26.2444 25.0046C26.3105 24.8177 26.3737 24.6371 26.4353 24.4611C26.9022 23.1246 27.2713 22.0684 28.005 20.9165C28.2603 20.4009 28.5076 19.9412 28.7255 19.5356C29.3983 18.284 29.8433 17.4556 29.6933 16.6022C29.055 14.8453 29.0498 13.8364 29.6777 12.1472L26.1248 8.29955L22.2509 5.56105C22.2124 5.53371 22.2032 5.48015 22.2308 5.44199C22.2584 5.40382 22.3124 5.3947 22.351 5.42205L26.2323 8.16568C26.2375 8.1691 26.2415 8.17308 26.2461 8.17764L29.8399 12.0703C29.8617 12.0943 29.8686 12.1279 29.8571 12.1581C29.2195 13.854 29.22 14.798 29.8571 16.5515C29.8589 16.5561 29.86 16.5606 29.8612 16.5658C30.0256 17.4796 29.5691 18.3295 28.8773 19.6165C28.6594 20.0221 28.4121 20.4818 28.1574 20.9963C28.1563 20.9991 28.1545 21.0014 28.1528 21.0042C27.4283 22.1408 27.062 23.1896 26.598 24.5169C26.5365 24.693 26.4732 24.8736 26.4077 25.0599L25.2582 28.4484C25.2461 28.4843 25.2128 28.5065 25.1766 28.5065L25.176 28.5071Z" fill="#DAE0E6"/>
<path d="M25.1473 28.4437C25.1421 28.4437 25.1375 28.4431 25.1324 28.4414C25.1082 28.4334 25.0956 28.4078 25.1036 28.3838L26.2536 24.9942C26.3175 24.813 26.379 24.6375 26.4388 24.4666L26.444 24.4513C26.9103 23.117 27.2783 22.0631 28.0097 20.9152C28.2673 20.3968 28.514 19.9376 28.7314 19.532C29.4087 18.2718 29.8561 17.4395 29.7031 16.5724V16.569L29.7014 16.5656C29.0649 14.8121 29.0608 13.8185 29.6859 12.138L29.6945 12.1152L26.1231 8.2464L22.2458 5.50505C22.2251 5.49024 22.2205 5.46175 22.2349 5.44124C22.2435 5.42928 22.2573 5.42188 22.2723 5.42188C22.282 5.42188 22.2912 5.42472 22.2987 5.43042L26.1806 8.17462C26.1806 8.17462 26.1858 8.17861 26.1881 8.18089L29.7819 12.0736C29.7934 12.0861 29.7968 12.1043 29.7911 12.1203C29.1494 13.8271 29.15 14.7773 29.7911 16.5411C29.7922 16.5434 29.7928 16.5462 29.7928 16.5485C29.955 17.4486 29.5007 18.294 28.813 19.5736C28.5951 19.9792 28.3478 20.4395 28.0925 20.9545C27.3628 22.099 26.996 23.1501 26.5314 24.4797L26.5279 24.49C26.4675 24.6626 26.4054 24.8398 26.341 25.0221L25.191 28.4112C25.1847 28.43 25.1674 28.4419 25.1473 28.4419V28.4437Z" fill="#EDF0F2"/>
<path d="M24.6293 28.2222C24.6247 28.2222 24.6195 28.2222 24.6149 28.2211C24.5678 28.2131 24.5361 28.1692 24.5442 28.1225L25.0617 25.0462C25.0617 25.0433 25.0628 25.0399 25.0634 25.0371L26.2422 20.8499L27.6895 16.5686L27.4474 12.4338C27.2858 11.7485 26.5584 11.0381 25.7161 10.2154C25.2653 9.77507 24.7989 9.31988 24.3757 8.82425L20.997 5.78153C20.9619 5.74963 20.959 5.69551 20.9912 5.66076C21.0234 5.62601 21.078 5.62316 21.1131 5.65506L24.4953 8.70234C24.4953 8.70234 24.5005 8.70746 24.5034 8.71031C24.9225 9.20139 25.3877 9.65543 25.8368 10.0941C26.7011 10.9378 27.4474 11.667 27.617 12.403C27.6182 12.4076 27.6188 12.4122 27.6193 12.4173L27.8631 16.576C27.8637 16.5869 27.8626 16.5977 27.8585 16.6079L26.4072 20.9006L25.2308 25.0792L24.7138 28.151C24.7069 28.1926 24.6701 28.2222 24.6287 28.2222H24.6293Z" fill="#DAE0E6"/>
<path d="M24.6014 28.1584C24.6014 28.1584 24.5962 28.1584 24.5933 28.1578C24.5812 28.1555 24.5709 28.1493 24.5634 28.1396C24.5565 28.1299 24.5536 28.1179 24.5554 28.1054L25.0729 25.0291L26.2528 20.8373L27.7018 16.5509L27.4592 12.4047V12.4013C27.2941 11.7046 26.5627 10.9908 25.7163 10.1636C25.2661 9.72376 24.8003 9.26915 24.3783 8.77523L20.9955 5.72909C20.9863 5.72111 20.9811 5.70972 20.9805 5.69776C20.9799 5.68579 20.984 5.67383 20.9926 5.66471C21.0012 5.65503 21.0133 5.6499 21.0265 5.6499C21.038 5.6499 21.0489 5.65389 21.0576 5.66187L24.4404 8.708C24.4404 8.708 24.4432 8.71085 24.4444 8.71256C24.8647 9.20477 25.3299 9.65939 25.7801 10.0986C26.6403 10.9383 27.3833 11.6636 27.5494 12.3882C27.55 12.3905 27.5506 12.3933 27.5506 12.3956L27.7944 16.5544C27.7944 16.5601 27.7944 16.5658 27.7921 16.5714L26.3413 20.8641L25.1643 25.0445L24.6468 28.1202C24.6433 28.1424 24.6238 28.1584 24.6014 28.1584Z" fill="#EDF0F2"/>
<g style="mix-blend-mode:overlay" filter="url(#filter1_di_2015_6126)">
<path d="M23.9111 25.1173C23.9048 25.1173 23.8985 25.1167 23.8916 25.115C23.845 25.1048 23.8162 25.0586 23.8266 25.0125L24.7736 20.9192C24.78 20.5683 24.746 20.3102 24.7127 20.0613C24.6184 19.3549 24.5442 18.7971 25.5729 16.7713C25.9639 14.8634 25.7742 13.7001 25.3648 12.551C24.2009 11.9107 23.6006 11.2082 22.6058 9.87572C22.5777 9.83755 22.5857 9.78457 22.6237 9.75608C22.6616 9.72817 22.7157 9.73614 22.7444 9.77374C23.7547 11.1273 24.3188 11.7865 25.4763 12.4171C25.4947 12.4274 25.5091 12.4439 25.516 12.4633C25.9438 13.6517 26.145 14.8463 25.7397 16.8169C25.7379 16.8243 25.7356 16.8317 25.7322 16.8385C24.7219 18.825 24.7897 19.3343 24.884 20.0396C24.9168 20.2852 24.9536 20.5637 24.9461 20.9323C24.9461 20.938 24.9456 20.9443 24.9438 20.9494L23.9951 25.0507C23.9859 25.09 23.9502 25.1173 23.9111 25.1173ZM30.1397 28.462L32.4035 24.2884L35.8996 21.2314C35.8996 21.2314 35.903 21.228 35.9047 21.2263L39.5256 17.4851C39.5336 17.4766 39.5405 17.4663 39.5446 17.4549L41.5266 12.0542C41.5393 12.0206 41.5289 11.9824 41.5008 11.9597L36.865 8.12448C36.8581 8.11878 36.8506 8.11423 36.842 8.11081L31.1684 5.84058L23.7179 2.33753C23.6748 2.31702 23.6236 2.33525 23.6029 2.37798C23.5822 2.42071 23.6006 2.47141 23.6437 2.49192L31.0994 5.99781L36.7649 8.2652L41.3438 12.0531L39.3887 17.3803L35.7828 21.1055L32.2781 24.1699C32.2707 24.1767 32.2643 24.1847 32.2592 24.1938L29.9879 28.3811C29.9654 28.4227 29.981 28.4745 30.0229 28.4967C30.0362 28.5036 30.05 28.507 30.0638 28.507C30.0942 28.507 30.1241 28.4905 30.1397 28.462ZM29.4531 28.6249L30.7486 25.4996L33.6093 21.2217C34.8157 20.01 36.106 18.645 37.4504 16.4745C37.459 16.4602 37.4636 16.4443 37.463 16.4272L37.3313 11.6965C37.3308 11.6742 37.3216 11.6532 37.3055 11.6378L33.6886 8.14784C33.6829 8.14214 33.676 8.13701 33.6685 8.13303L28.1812 5.30393L23.4787 2.57054C23.4379 2.54661 23.385 2.56028 23.3608 2.6013C23.3367 2.64175 23.3505 2.69416 23.3919 2.71809L28.0978 5.45319L33.5777 8.2783L37.16 11.7352L37.2905 16.4061C35.9582 18.5522 34.6782 19.9052 33.4811 21.1072C33.477 21.1112 33.4736 21.1152 33.4707 21.1203L30.6008 25.4118C30.5979 25.4164 30.5951 25.4215 30.5928 25.4267L29.2938 28.56C29.276 28.6038 29.2967 28.6534 29.341 28.6716C29.3519 28.6762 29.3628 28.6779 29.3737 28.6779C29.4077 28.6779 29.4399 28.658 29.4537 28.6249H29.4531ZM28.4572 28.6164L29.4537 25.2352L31.6646 21.2121L34.9795 16.4779C34.991 16.462 34.9962 16.4426 34.9945 16.4226L34.6351 11.6087C34.6334 11.5859 34.6225 11.5643 34.6046 11.5495C33.0291 10.2358 31.2598 8.54662 30.7417 7.86071C30.7348 7.8516 30.7267 7.84419 30.717 7.83849L25.7052 4.85159L23.7363 3.23252C23.6995 3.20233 23.6455 3.20745 23.615 3.24391C23.5845 3.28037 23.5897 3.33393 23.6265 3.36412L25.5999 4.98718C25.6034 4.99003 25.6068 4.9923 25.6103 4.99458L30.6135 7.97693C31.1477 8.67537 32.8986 10.3486 34.4655 11.6572L34.8203 16.405L31.5203 21.1181C31.5203 21.1181 31.5168 21.1232 31.5157 21.126L29.2984 25.1612C29.2955 25.1663 29.2932 25.172 29.2915 25.1783L28.2921 28.5679C28.2789 28.6135 28.3048 28.6608 28.3508 28.6739C28.3588 28.6762 28.3669 28.6773 28.3749 28.6773C28.4123 28.6773 28.4468 28.6534 28.4577 28.6158L28.4572 28.6164ZM27.1548 28.1657L28.1708 25.3754L29.855 20.966L32.2494 16.6215C32.2551 16.6106 32.2592 16.5987 32.2597 16.5861L32.5852 11.8047C32.5875 11.7734 32.572 11.7437 32.5449 11.7267C31.2454 10.9131 29.6871 9.48377 28.1973 8.06011C28.1944 8.05783 28.1921 8.05498 28.1886 8.05327L23.7329 4.76784C23.6949 4.73993 23.6409 4.74734 23.6121 4.78551C23.5839 4.8231 23.5914 4.87666 23.6299 4.90514L28.0817 8.18772C29.5606 9.60056 31.1074 11.0191 32.4098 11.8446L32.0889 16.5571L29.7009 20.8902C29.6992 20.8936 29.6975 20.897 29.6957 20.901L28.0092 25.3173L26.9926 28.1088C26.9765 28.1532 26.9995 28.2022 27.0444 28.2182C27.0541 28.2216 27.0639 28.2233 27.0737 28.2233C27.1088 28.2233 27.1421 28.2016 27.1548 28.1669V28.1657ZM25.2578 28.4489L26.4073 25.0603C26.4734 24.8741 26.5361 24.6935 26.5976 24.5174C27.0616 23.19 27.4279 22.1412 28.1524 21.0047C28.1541 21.0024 28.1553 20.9996 28.157 20.9967C28.4123 20.4817 28.659 20.0225 28.8769 19.6169C29.5687 18.33 30.0252 17.48 29.8608 16.5662C29.8602 16.5616 29.8585 16.5565 29.8568 16.552C29.2191 14.7984 29.2191 13.8539 29.8568 12.1585C29.8683 12.1283 29.8614 12.0947 29.8395 12.0708L26.2462 8.17746C26.2422 8.17291 26.2376 8.16892 26.2324 8.1655L22.3511 5.42185C22.312 5.39451 22.2585 5.40362 22.2309 5.44179C22.2033 5.47996 22.2125 5.53351 22.2511 5.56086L26.1249 8.29938L29.6773 12.1471C29.0494 13.8362 29.0546 14.8452 29.6929 16.6021C29.8429 17.4555 29.3979 18.2838 28.7251 19.5354C28.5072 19.9411 28.2599 20.4008 28.0046 20.9164C27.2709 22.0683 26.9023 23.124 26.4349 24.461C26.3733 24.6371 26.3101 24.8171 26.2439 25.0045L25.0939 28.3942C25.079 28.4392 25.1031 28.4876 25.148 28.5024C25.1572 28.5053 25.1664 28.507 25.1756 28.507C25.2118 28.507 25.2452 28.4842 25.2572 28.4489H25.2578ZM24.715 28.1509L25.2319 25.0791L26.4084 20.9004L27.8597 16.6078C27.8632 16.5975 27.8649 16.5867 27.8643 16.5759L27.6205 12.4171C27.6205 12.4126 27.6194 12.4074 27.6182 12.4029C27.4492 11.6668 26.7022 10.9376 25.838 10.0939C25.3883 9.65525 24.9237 9.2012 24.5045 8.71013C24.5022 8.70728 24.4994 8.70443 24.4965 8.70215L21.1131 5.656C21.078 5.62409 21.0234 5.62694 20.9912 5.66169C20.959 5.69645 20.9619 5.75057 20.997 5.78247L24.3757 8.8252C24.7989 9.32084 25.2653 9.77602 25.7161 10.2164C26.5585 11.0385 27.2859 11.7494 27.4474 12.4348L27.6895 16.5696L26.2422 20.8509L25.0634 25.0381C25.0629 25.041 25.0617 25.0438 25.0617 25.0472L24.5442 28.1236C24.5362 28.1703 24.5684 28.2142 24.6149 28.2221C24.6195 28.2227 24.6247 28.2233 24.6293 28.2233C24.6707 28.2233 24.7075 28.1937 24.7144 28.1521L24.715 28.1509Z" fill="url(#paint8_linear_2015_6126)" style="mix-blend-mode:overlay" shape-rendering="crispEdges"/>
</g>
<path d="M32.1657 29.2762C32.1473 29.2762 32.1289 29.2716 32.1111 29.2625C32.0553 29.2329 32.0341 29.1634 32.0645 29.1081L33.8821 25.7617C33.8844 25.7577 33.8867 25.7537 33.8896 25.7498L36.1097 22.6586C36.112 22.6557 36.1143 22.6523 36.1166 22.6495L40.0917 18.1438C41.2987 16.0507 41.5586 14.8378 41.2469 12.755C40.3137 10.6563 38.8002 9.51006 36.4852 9.14887C36.4749 9.14717 36.4645 9.14432 36.4553 9.13976L30.7167 6.53512C30.7167 6.53512 30.7133 6.53341 30.7115 6.53227L22.9408 2.51593C22.8845 2.48687 22.8626 2.41794 22.8919 2.36211C22.9213 2.30628 22.9908 2.28463 23.0472 2.31369L30.815 6.32889L36.537 8.92612C38.9331 9.3044 40.4994 10.4968 41.4643 12.6776C41.4683 12.6867 41.4712 12.6964 41.4729 12.7066C41.7937 14.8367 41.5166 16.1362 40.2861 18.2674C40.282 18.2742 40.278 18.2799 40.2728 18.2856L36.2943 22.7959L34.0817 25.8768L32.2675 29.2169C32.2468 29.2551 32.2071 29.2767 32.1663 29.2767L32.1657 29.2762Z" fill="#DDDEE1"/>
<path d="M32.1077 29.1623C32.0979 29.1623 32.0893 29.1601 32.0806 29.1555C32.0668 29.1481 32.0571 29.1361 32.0525 29.1219C32.0479 29.1071 32.0496 29.0917 32.0571 29.0786L33.8747 25.7322C33.8747 25.7322 33.877 25.7282 33.8781 25.7265L36.0983 22.6354L36.1017 22.6308L40.0802 18.1205L40.0831 18.1154C41.2987 16.007 41.5597 14.7895 41.2452 12.6896L41.244 12.6822L41.2412 12.6754C40.2993 10.5573 38.7726 9.4008 36.4358 9.03619C36.4306 9.03562 36.4254 9.03391 36.4208 9.03163L30.6822 6.42699L22.9098 2.40894C22.8816 2.3947 22.8707 2.35995 22.8856 2.33203C22.8954 2.31323 22.9149 2.30127 22.9368 2.30127C22.946 2.30127 22.9552 2.30355 22.9632 2.30754L30.7305 6.32274L36.4622 8.92396L36.4703 8.9251C38.8457 9.29996 40.3976 10.4815 41.3539 12.6429C41.3562 12.6475 41.3573 12.6526 41.3579 12.6572C41.6764 14.7724 41.401 16.0628 40.178 18.1809C40.1762 18.1843 40.1739 18.1872 40.1711 18.1906L36.1926 22.7003L33.9747 25.7886L32.1588 29.1321C32.1491 29.1504 32.1295 29.1623 32.1082 29.1623H32.1077Z" fill="#F3F4F7"/>
<path d="M31.5925 29.2755C31.5747 29.2755 31.5563 29.2715 31.5391 29.2624C31.4827 29.2328 31.4614 29.1638 31.4913 29.1086L33.2095 25.8892C33.2118 25.8847 33.2141 25.8807 33.2169 25.8767L37.3611 20.0481C38.3236 17.7756 38.3725 16.1133 38.4162 14.6469L38.4202 14.5096C37.7768 13.2107 36.1915 11.8218 34.0651 10.6949L28.1131 7.4995L22.2503 4.53823C22.194 4.50974 22.171 4.44081 22.2003 4.38498C22.229 4.32915 22.298 4.30636 22.355 4.33542L28.2201 7.29782L34.1738 10.4944C36.3554 11.6503 37.9832 13.0871 38.6393 14.4355C38.6474 14.452 38.6514 14.4703 38.6508 14.4885L38.6462 14.6537C38.6025 16.1429 38.5525 17.8303 37.5686 20.1484C37.5652 20.1558 37.5612 20.1632 37.5566 20.1701L33.4096 26.0032L31.6943 29.2162C31.6736 29.255 31.6339 29.2772 31.5925 29.2772V29.2755Z" fill="#DDDEE1"/>
<path d="M31.5348 29.1614C31.5256 29.1614 31.5164 29.1591 31.5083 29.1546C31.4945 29.1477 31.4848 29.1358 31.4802 29.121C31.4756 29.1062 31.4773 29.0908 31.4842 29.0777L33.2023 25.8583C33.2023 25.8583 33.2046 25.8538 33.2063 25.8521L37.3545 20.0184L37.3568 20.0127C38.3234 17.7305 38.3728 16.0624 38.416 14.5909L38.4206 14.4394L38.4142 14.4268C37.7656 13.1177 36.1694 11.718 34.0344 10.5871L28.083 7.3917L22.219 4.43043C22.2052 4.42359 22.1954 4.41163 22.1903 4.39738C22.1857 4.38314 22.1868 4.36776 22.1937 4.35409C22.2035 4.33472 22.223 4.32275 22.2449 4.32275C22.2541 4.32275 22.2627 4.32503 22.2708 4.32902L28.1359 7.29143L34.0884 10.4868C36.2602 11.6376 37.8789 13.0647 38.5298 14.4024C38.5338 14.4103 38.5356 14.4194 38.5356 14.4286L38.531 14.5938C38.4873 16.0778 38.4378 17.7601 37.458 20.068C37.4563 20.0719 37.4545 20.0754 37.4522 20.0788L33.303 25.9147L31.5865 29.1307C31.5768 29.1495 31.5572 29.1608 31.5354 29.1608L31.5348 29.1614Z" fill="#F3F4F7"/>
<path d="M30.7624 29.5221C30.7451 29.5221 30.7279 29.5181 30.7112 29.5101C30.6543 29.4822 30.6313 29.4139 30.6594 29.3575C31.6318 27.4262 31.9567 26.6155 32.1717 26.0789C32.5334 25.1765 32.5633 25.1007 34.7334 21.9948C35.2164 19.7411 35.8133 16.9473 35.5844 16.197C35.5832 16.193 35.5821 16.1891 35.5815 16.1851C35.501 15.7567 34.4994 14.893 33.4385 13.9787C32.6668 13.3138 31.8693 12.6262 31.2304 11.9528L25.2929 8.33359L21.0033 6.11407C20.947 6.08502 20.9251 6.01608 20.9544 5.96025C20.9838 5.90443 21.0533 5.88278 21.1097 5.91183L25.4027 8.13363C25.4027 8.13363 25.4073 8.1359 25.4096 8.13761L31.3644 11.7665C31.373 11.7717 31.3811 11.7785 31.388 11.7859C32.0205 12.4542 32.8186 13.1418 33.5897 13.8066C34.7708 14.8246 35.7046 15.6296 35.8064 16.1366C36.0312 16.8915 35.574 19.168 34.9536 22.0643C34.9502 22.0791 34.9444 22.0928 34.9358 22.1053C32.7674 25.2084 32.7387 25.2807 32.3856 26.1626C32.1694 26.7027 31.8422 27.5191 30.8653 29.4589C30.8452 29.4987 30.8043 29.5221 30.7624 29.5221Z" fill="#DDDEE1"/>
<path d="M30.7049 29.4084C30.6957 29.4084 30.687 29.4061 30.679 29.4021C30.6652 29.3953 30.6548 29.3839 30.6502 29.3691C30.6456 29.3548 30.6462 29.3394 30.6531 29.3258C31.6266 27.3928 31.9521 26.5804 32.1671 26.0426C32.5271 25.1437 32.5564 25.0702 34.723 21.9693L34.7294 21.9597L34.7317 21.9483C35.2147 19.694 35.8156 16.8888 35.5815 16.122C35.5815 16.1203 35.5804 16.118 35.5798 16.1158C35.4953 15.6674 34.5327 14.8379 33.4183 13.8769C32.6478 13.2126 31.8514 12.5261 31.2143 11.855L31.2092 11.8493L25.2653 8.22839L20.9723 6.0066C20.9441 5.99179 20.9332 5.9576 20.9481 5.92969C20.9579 5.91089 20.9774 5.89893 20.9993 5.89893C21.0085 5.89893 21.0177 5.9012 21.0257 5.90519L25.3188 8.12756L31.277 11.7582C31.2816 11.761 31.2851 11.7639 31.2885 11.7679C31.9227 12.4378 32.7214 13.1266 33.4942 13.792C34.6684 14.8038 35.5948 15.6025 35.6931 16.0907C35.915 16.8376 35.459 19.1066 34.8403 21.995C34.8386 22.0024 34.8357 22.0092 34.8311 22.0155C32.6593 25.1243 32.63 25.1966 32.2746 26.0842C32.0584 26.6237 31.7318 27.4389 30.7566 29.3765C30.7468 29.3958 30.7273 29.4078 30.7049 29.4078V29.4084Z" fill="#F3F4F7"/>
<path d="M30.2162 29.5223C30.2121 29.5223 30.2081 29.5223 30.2041 29.5217C30.1408 29.5149 30.0948 29.4591 30.1017 29.3964C30.3128 27.3968 30.7958 26.2699 31.8682 24.3586C31.9389 23.8123 32.0407 23.2483 32.1384 22.7031C32.3995 21.2515 32.6692 19.7504 32.4507 18.2401C31.8963 16.9179 30.5819 15.5415 28.3146 13.9105C26.2325 12.9403 25.1624 11.8961 23.6823 10.4519C23.4362 10.2121 23.1821 9.96424 22.9101 9.70332C22.8647 9.65945 22.8629 9.58767 22.9072 9.5421C22.9515 9.49709 23.0239 9.49538 23.07 9.53925C23.3431 9.80074 23.5978 10.0491 23.8439 10.2895C25.3102 11.72 26.3694 12.754 28.4221 13.7088C28.4285 13.7117 28.4348 13.7157 28.4405 13.7196C30.7561 15.3848 32.0993 16.7977 32.668 18.1666C32.6715 18.1752 32.6743 18.1843 32.6755 18.1934C32.9032 19.7453 32.6289 21.2692 32.3644 22.7435C32.2609 23.3189 32.1632 23.8624 32.093 24.4099C32.0913 24.4241 32.0867 24.4384 32.0792 24.4509C31.0154 26.3451 30.537 27.4543 30.33 29.4209C30.3237 29.4796 30.2737 29.5229 30.2156 29.5229L30.2162 29.5223Z" fill="#DDDEE1"/>
<path d="M30.1523 29.4083C30.1213 29.4049 30.0983 29.377 30.1017 29.3457C30.3122 27.3517 30.7929 26.234 31.8612 24.3301L31.8664 24.3204L31.8676 24.3096C31.9383 23.765 32.0395 23.2015 32.1373 22.6575C32.3995 21.2008 32.6697 19.6951 32.4501 18.1757L32.4489 18.1689L32.446 18.1621C31.8877 16.8296 30.5675 15.4464 28.291 13.8079L28.2864 13.8045L28.2812 13.8022C26.2078 12.836 25.1411 11.7952 23.6651 10.3545C23.4195 10.1146 23.1654 9.8668 22.8923 9.60531C22.8813 9.59449 22.875 9.58081 22.875 9.56543C22.875 9.55005 22.8802 9.53581 22.8911 9.52498C22.902 9.51359 22.917 9.50732 22.9325 9.50732C22.948 9.50732 22.9618 9.51302 22.9722 9.52328C23.243 9.78248 23.4954 10.0286 23.7398 10.2673L23.7461 10.2736C25.2164 11.708 26.2785 12.7449 28.3405 13.7037C28.3439 13.7054 28.3468 13.7071 28.3497 13.7094C30.656 15.3683 31.9935 16.7732 32.5576 18.1319C32.5593 18.1364 32.5605 18.141 32.561 18.1455C32.7876 19.6877 32.5145 21.2076 32.25 22.6769C32.1465 23.254 32.0487 23.7974 31.978 24.3461C31.9768 24.3535 31.9745 24.3603 31.9711 24.3666C30.9033 26.2676 30.4231 27.3814 30.2144 29.3582C30.2115 29.3873 30.1868 29.4095 30.1575 29.4095C30.1552 29.4095 30.1529 29.4095 30.1512 29.4095L30.1523 29.4083Z" fill="#F3F4F7"/>
<path d="M28.8005 29.5226C28.7971 29.5226 28.7942 29.5226 28.7908 29.5226C28.7275 29.5174 28.6804 29.4622 28.6861 29.3995L28.9161 26.7032C28.9161 26.698 28.9173 26.6929 28.9184 26.6884C29.5435 23.8969 29.6228 22.4846 29.268 20.424L24.9992 15.9936L21.8596 13.0078C21.8136 12.9645 21.8125 12.8922 21.8562 12.8466C21.8999 12.801 21.9729 12.7999 22.0189 12.8432L25.1619 15.8323L29.4589 20.2907C29.4745 20.3073 29.4854 20.3278 29.4888 20.35C29.8557 22.4618 29.7786 23.8935 29.1444 26.7288L28.915 29.4177C28.9098 29.477 28.8598 29.522 28.8005 29.522V29.5226Z" fill="#DDDEE1"/>
<path d="M28.7387 29.4088C28.7071 29.406 28.6835 29.3786 28.6864 29.3473L28.9164 26.6509C28.9164 26.6509 28.917 26.6458 28.9175 26.6435C29.5454 23.8372 29.6242 22.4273 29.2677 20.3576L29.2648 20.3405L24.9839 15.8975L21.842 12.91C21.8311 12.8997 21.8248 12.8855 21.8242 12.8701C21.8242 12.8547 21.8294 12.8405 21.8403 12.8297C21.8512 12.8183 21.8662 12.812 21.8817 12.812C21.8967 12.812 21.9105 12.8177 21.9214 12.828L25.065 15.8171L29.3603 20.2738C29.3683 20.2818 29.3735 20.292 29.3752 20.3034C29.7409 22.4073 29.6639 23.8332 29.0314 26.6606V26.6646L28.8008 29.3575C28.7985 29.3866 28.7732 29.4099 28.7439 29.4099H28.7387V29.4088Z" fill="#F3F4F7"/>
<path d="M25.8841 28.5348C25.8225 28.5348 25.7719 28.4869 25.7691 28.4254L25.5408 22.8042L22.9009 19.5866C22.8607 19.5376 22.8681 19.4659 22.9176 19.4265C22.967 19.3867 23.0395 19.3941 23.0792 19.4431L25.7432 22.6903C25.7587 22.7091 25.7679 22.733 25.7691 22.7575L25.9991 28.4163C26.0014 28.4789 25.9525 28.5319 25.8887 28.5348C25.8869 28.5348 25.8858 28.5348 25.8841 28.5348Z" fill="#DDDEE1"/>
<path d="M25.8269 28.4207C25.7958 28.4207 25.7705 28.3968 25.7694 28.366L25.54 22.7261L22.888 19.4937C22.8782 19.4817 22.8736 19.4669 22.8754 19.4521C22.8771 19.4367 22.8846 19.4236 22.8961 19.4139C22.9093 19.4031 22.9231 19.4014 22.9323 19.4014C22.9495 19.4014 22.9662 19.4088 22.9771 19.4224L25.6412 22.6697C25.6492 22.6794 25.6532 22.6913 25.6538 22.7033L25.8838 28.362C25.8844 28.3774 25.8792 28.3917 25.8689 28.4031C25.8585 28.4144 25.8441 28.4207 25.8292 28.4213H25.8269V28.4207Z" fill="#F3F4F7"/>
<g style="mix-blend-mode:overlay" filter="url(#filter2_di_2015_6126)">
<path d="M32.1637 29.2757C32.1453 29.2757 32.1269 29.2711 32.1091 29.262C32.0533 29.2324 32.032 29.1629 32.0625 29.1076L33.8801 25.7612C33.8824 25.7572 33.8847 25.7533 33.8876 25.7493L36.1077 22.6581C36.11 22.6553 36.1123 22.6518 36.1146 22.649L40.0897 18.1433C41.2966 16.0502 41.5566 14.8374 41.2449 12.7545C40.3117 10.6558 38.7982 9.50957 36.4832 9.14839C36.4729 9.14668 36.4625 9.14383 36.4533 9.13927L30.7147 6.53463C30.7147 6.53463 30.7112 6.53292 30.7095 6.53178L22.9388 2.51544C22.8824 2.48639 22.8606 2.41745 22.8899 2.36162C22.9192 2.30579 22.9888 2.28414 23.0452 2.3132L30.813 6.3284L36.535 8.92564C38.931 9.30391 40.4974 10.4963 41.4623 12.6771C41.4663 12.6862 41.4692 12.6959 41.4709 12.7061C41.7917 14.8362 41.5146 16.1357 40.2841 18.2669C40.28 18.2737 40.276 18.2794 40.2708 18.2851L36.2923 22.7954L34.0797 25.8763L32.2655 29.2164C32.2448 29.2546 32.2051 29.2762 32.1643 29.2762L32.1637 29.2757ZM31.6939 29.2147L33.4092 26.0016L37.5562 20.1685C37.5608 20.1617 37.5648 20.1549 37.5683 20.1469C38.5521 17.8294 38.6021 16.1414 38.6458 14.6522L38.6504 14.487C38.6504 14.4688 38.647 14.4505 38.6389 14.434C37.9829 13.0855 36.355 11.6488 34.1734 10.4929L28.2197 7.29631L22.3546 4.33561C22.2982 4.30713 22.2287 4.32935 22.1999 4.38518C22.1712 4.44101 22.1936 4.50994 22.2499 4.53842L28.1128 7.49969L34.0647 10.6951C36.1911 11.822 37.7764 13.2109 38.4199 14.5098L38.4158 14.6471C38.3727 16.114 38.3233 17.7758 37.3607 20.0483L33.2166 25.8769C33.2137 25.8809 33.2114 25.8849 33.2091 25.8894L31.491 29.1088C31.4611 29.1646 31.4829 29.2335 31.5387 29.2626C31.5559 29.2717 31.5743 29.2757 31.5922 29.2757C31.6336 29.2757 31.6732 29.2535 31.6939 29.2147ZM30.8653 29.4591C31.8423 27.5193 32.1689 26.7029 32.3857 26.1629C32.7393 25.281 32.7681 25.2086 34.9359 22.1055C34.9445 22.093 34.9508 22.0793 34.9537 22.0645C35.5741 19.1682 36.0313 16.8917 35.8064 16.1368C35.7047 15.6298 34.7708 14.8248 33.5898 13.8068C32.8181 13.1419 32.0205 12.4543 31.388 11.7861C31.3811 11.7787 31.3731 11.7724 31.3645 11.7667L25.4102 8.13775C25.4102 8.13775 25.4056 8.1349 25.4033 8.13376L21.1097 5.91196C21.0533 5.8829 20.9838 5.90455 20.9544 5.96038C20.9251 6.01621 20.947 6.08514 21.0033 6.1142L25.2929 8.33372L31.2311 11.9524C31.8699 12.6252 32.6674 13.3128 33.4391 13.9783C34.4994 14.8926 35.5017 15.7557 35.5822 16.1847C35.5827 16.1887 35.5839 16.1927 35.585 16.1966C35.8139 16.9464 35.217 19.7401 34.734 21.9944C32.5639 25.1004 32.5335 25.1762 32.1723 26.0786C31.9573 26.6152 31.6324 27.4264 30.6601 29.3571C30.6319 29.4135 30.6549 29.4819 30.7118 29.5098C30.7285 29.5178 30.7457 29.5218 30.763 29.5218C30.805 29.5218 30.8458 29.4984 30.8659 29.4585L30.8653 29.4591ZM30.3323 29.4204C30.5399 27.4538 31.0177 26.3446 32.0815 24.4504C32.0884 24.4378 32.093 24.4236 32.0953 24.4093C32.1655 23.8619 32.2632 23.3184 32.3667 22.743C32.6318 21.2686 32.9055 19.7447 32.6778 18.1928C32.6766 18.1837 32.6738 18.1746 32.6703 18.1661C32.1016 16.7977 30.7584 15.3848 28.4428 13.719C28.4371 13.7151 28.4307 13.7111 28.4244 13.7082C26.3716 12.7534 25.3119 11.72 23.8462 10.2889C23.6001 10.0485 23.3453 9.80012 23.0722 9.53863C23.0268 9.49476 22.9538 9.4959 22.9095 9.54148C22.8652 9.58648 22.8663 9.65883 22.9123 9.7027C23.1849 9.96362 23.4391 10.2114 23.6846 10.4513C25.1647 11.8955 26.2348 12.9397 28.3169 13.9099C30.5836 15.5415 31.8986 16.9179 32.453 18.2396C32.6715 19.7498 32.4018 21.251 32.1407 22.7025C32.0424 23.2483 31.9412 23.8117 31.8705 24.3581C30.7981 26.2694 30.3151 27.3963 30.104 29.3959C30.0977 29.4585 30.1431 29.5144 30.2064 29.5212C30.2104 29.5212 30.2144 29.5218 30.2185 29.5218C30.2765 29.5218 30.3266 29.4785 30.3329 29.4198L30.3323 29.4204ZM28.9143 29.4181L29.1438 26.7291C29.778 23.8932 29.8551 22.4616 29.4882 20.3503C29.4842 20.3281 29.4738 20.3076 29.4583 20.291L25.1612 15.832L22.0176 12.8429C21.9716 12.799 21.8992 12.8007 21.8549 12.8463C21.8106 12.8918 21.8124 12.9636 21.8584 13.0075L24.9985 15.9933L29.2674 20.4232C29.6222 22.4838 29.5422 23.8961 28.9178 26.6876C28.9166 26.6927 28.9161 26.6972 28.9155 26.7024L28.6855 29.3987C28.6803 29.4614 28.7269 29.5167 28.7901 29.5218C28.7936 29.5218 28.7965 29.5218 28.7999 29.5218C28.8591 29.5218 28.9092 29.4768 28.9143 29.4175V29.4181ZM25.8909 28.5351C25.9542 28.5328 26.0036 28.4798 26.0013 28.4166L25.7713 22.7578C25.7702 22.7333 25.7615 22.7094 25.7454 22.6906L23.0814 19.4433C23.0412 19.3943 22.9687 19.3869 22.9198 19.4268C22.8704 19.4667 22.8629 19.5385 22.9031 19.5869L25.543 22.8045L25.7713 28.4257C25.7736 28.4872 25.8248 28.5351 25.8863 28.5351C25.888 28.5351 25.8892 28.5351 25.8909 28.5351Z" fill="url(#paint9_linear_2015_6126)" style="mix-blend-mode:overlay" shape-rendering="crispEdges"/>
</g>
<path d="M19.2245 11.3738C19.1808 11.3738 19.1394 11.3493 19.1199 11.3077C19.0934 11.2507 19.1187 11.1829 19.1762 11.1567L22.766 9.51999L25.292 8.13564C25.2989 8.13166 25.307 8.12881 25.3144 8.12596L28.1285 7.29193L30.6856 6.3377L31.0352 5.82669C31.0709 5.77484 31.1422 5.76117 31.1951 5.79649C31.2474 5.83181 31.2612 5.90246 31.2255 5.95487L30.8552 6.49607C30.842 6.51544 30.823 6.53025 30.8006 6.5388L28.2056 7.50727C28.2056 7.50727 28.2004 7.50898 28.1981 7.50955L25.3921 8.3413L22.873 9.72166C22.873 9.72166 22.8678 9.72451 22.8655 9.72565L19.2717 11.3641C19.2561 11.3709 19.2395 11.3743 19.2239 11.3743L19.2245 11.3738Z" fill="#DDDEE1"/>
<path d="M19.1669 11.2597C19.1445 11.2597 19.1238 11.2466 19.1146 11.2267C19.1083 11.213 19.1077 11.1976 19.1129 11.1828C19.118 11.168 19.129 11.1572 19.1428 11.1509L22.7326 9.51419L25.2626 8.12813C25.266 8.12642 25.2701 8.12471 25.2741 8.12357L28.0882 7.28955L30.6665 6.32734L31.0265 5.80095C31.0374 5.78556 31.0552 5.77588 31.0742 5.77588C31.0857 5.77588 31.0966 5.7793 31.1064 5.78556C31.1191 5.79411 31.1277 5.80721 31.1306 5.82202C31.1334 5.83684 31.1306 5.85222 31.1219 5.86475L30.7516 6.40596C30.7447 6.41564 30.7355 6.42305 30.7246 6.42704L28.1296 7.39551L25.3143 8.23068L22.7901 9.61388L19.1922 11.254C19.1847 11.2574 19.1767 11.2592 19.1681 11.2592L19.1669 11.2597Z" fill="#F3F4F7"/>
<path d="M22.5608 17.0767C22.5159 17.0767 22.4734 17.0505 22.4544 17.0066C22.4297 16.9485 22.4573 16.8818 22.5159 16.8573L25.027 15.8131L28.3126 13.7155L31.2394 11.7689C31.2445 11.7654 31.2503 11.7626 31.256 11.7597L34.0621 10.4945L36.4081 8.95971L36.7738 8.09435C36.7986 8.03624 36.8658 8.0089 36.9245 8.0334C36.9831 8.05789 37.0107 8.12455 36.986 8.18265L36.6071 9.07992C36.5985 9.101 36.5835 9.11866 36.5645 9.13119L34.1817 10.6899C34.1765 10.6933 34.1713 10.6961 34.1662 10.6984L31.3601 11.9637L28.4397 13.9063L25.1431 16.0102C25.1374 16.0136 25.1316 16.017 25.1253 16.0193L22.605 17.0676C22.5907 17.0738 22.5751 17.0767 22.5608 17.0767Z" fill="#DDDEE1"/>
<path d="M22.5026 16.9629C22.4796 16.9629 22.4583 16.9492 22.4497 16.9281C22.4376 16.8991 22.4514 16.866 22.4807 16.8535L24.9964 15.807L28.2866 13.7071L31.2146 11.7593C31.2146 11.7593 31.2197 11.7559 31.2226 11.7548L34.0327 10.4872L36.3971 8.94048L36.7697 8.05917C36.7789 8.03809 36.7996 8.02441 36.8226 8.02441C36.8301 8.02441 36.8376 8.02612 36.8445 8.02897C36.8588 8.03467 36.8698 8.04606 36.8755 8.05973C36.8813 8.07398 36.8813 8.08936 36.8755 8.1036L36.4966 9.00086C36.492 9.01112 36.4845 9.02023 36.4753 9.0265L34.0925 10.5852C34.0925 10.5852 34.0873 10.5886 34.0844 10.5897L31.2744 11.8567L28.3499 13.8022L25.0539 15.9055C25.0539 15.9055 25.0481 15.9089 25.0453 15.9101L22.525 16.9583C22.5181 16.9612 22.5106 16.9629 22.5026 16.9629Z" fill="#F3F4F7"/>
<path d="M23.2752 24.5478C23.239 24.5478 23.2039 24.5313 23.1815 24.4999C23.1447 24.4487 23.1567 24.3774 23.2085 24.341L25.585 22.6701L29.307 20.2745L32.4943 18.1165L35.6264 16.0696L38.4715 14.3879L41.2667 12.6418L41.8083 11.7411C41.8411 11.687 41.9112 11.6693 41.9659 11.7018C42.0205 11.7343 42.0383 11.8038 42.0055 11.8579L41.4495 12.782C41.4403 12.7973 41.4277 12.8104 41.4121 12.8201L38.5911 14.5827L35.7483 16.2633L32.622 18.3062L29.4335 20.4648L25.7126 22.8592L23.3402 24.5278C23.32 24.5421 23.2965 24.5489 23.2735 24.5489L23.2752 24.5478Z" fill="#DDDEE1"/>
<path d="M23.2181 24.4337C23.1997 24.4337 23.1818 24.4246 23.1709 24.4098C23.1617 24.3972 23.1583 24.3824 23.1611 24.367C23.1634 24.3522 23.1721 24.3391 23.1847 24.33L25.5612 22.6591L29.2815 20.2653L32.47 18.1061L35.6015 16.0598L38.4443 14.3792L41.2521 12.6246L41.8012 11.7125C41.8116 11.6948 41.83 11.6846 41.8507 11.6846C41.861 11.6846 41.8708 11.6874 41.88 11.6925C41.907 11.7085 41.9162 11.7438 41.9001 11.7706L41.3441 12.6946C41.3395 12.702 41.3332 12.7089 41.3251 12.714L38.5041 14.4766L35.6624 16.1561L32.5338 18.2007L29.3448 20.3598L25.6251 22.7531L23.2503 24.4229C23.2405 24.4297 23.229 24.4331 23.2169 24.4331L23.2181 24.4337Z" fill="#F3F4F7"/>
<path d="M25.8847 28.7354C25.8445 28.7354 25.806 28.7149 25.7847 28.6778C25.7531 28.6231 25.7726 28.5536 25.8278 28.5223L28.9501 26.7625L31.9062 24.3083L34.7669 21.9532C34.7669 21.9532 34.7698 21.9509 34.7715 21.9492L37.3918 20.0123L40.1162 18.1163C40.168 18.0804 40.2398 18.0924 40.2766 18.1442C40.3129 18.1955 40.3008 18.2667 40.2485 18.3032L37.5264 20.1968L34.9112 22.1298L32.0534 24.4826L29.0898 26.9431C29.0847 26.9477 29.0789 26.9517 29.0726 26.9551L25.9417 28.72C25.9238 28.7302 25.9043 28.7348 25.8847 28.7348V28.7354Z" fill="#DDDEE1"/>
<path d="M25.8273 28.6211C25.8066 28.6211 25.7876 28.6102 25.7772 28.592C25.7698 28.5789 25.7675 28.5635 25.7715 28.5487C25.7755 28.5339 25.7853 28.5219 25.7985 28.5145L28.9254 26.7525L31.8856 24.2954L34.7457 21.9409L37.3683 20.0022L40.0915 18.1074C40.1013 18.1006 40.1128 18.0972 40.1243 18.0972C40.1433 18.0972 40.1605 18.1063 40.1715 18.1217C40.1899 18.1473 40.1835 18.1832 40.1577 18.2009L37.4356 20.0945L34.8187 22.0286L31.9586 24.3831L28.995 26.8436C28.995 26.8436 28.9892 26.8476 28.9864 26.8493L25.8554 28.6142C25.8468 28.6194 25.837 28.6216 25.8273 28.6216V28.6211Z" fill="#F3F4F7"/>
<path d="M31.2596 28.5355C31.2337 28.5355 31.2084 28.5269 31.1866 28.5098C31.1377 28.4699 31.1302 28.3982 31.1705 28.3497L33.2215 25.871L36.1156 22.6494C36.1575 22.6027 36.2306 22.5981 36.2777 22.6403C36.3254 22.6819 36.3295 22.7542 36.2869 22.8009L33.3958 26.0191L31.3482 28.4944C31.3252 28.5218 31.2924 28.536 31.259 28.536L31.2596 28.5355Z" fill="#DDDEE1"/>
<path d="M31.2018 28.4216C31.1926 28.4216 31.1788 28.4193 31.1656 28.4085C31.1535 28.3988 31.1466 28.3851 31.1449 28.3703C31.1432 28.355 31.1478 28.3401 31.1575 28.3287L33.2086 25.85L36.1009 22.6301C36.1118 22.6182 36.1273 22.6113 36.144 22.6113C36.1584 22.6113 36.1716 22.6165 36.182 22.6256C36.1935 22.6358 36.2004 22.6495 36.2009 22.6649C36.2021 22.6803 36.1969 22.6945 36.1866 22.7059L33.2954 25.9241L31.2461 28.4011C31.2352 28.4142 31.2191 28.4222 31.2018 28.4222V28.4216Z" fill="#F3F4F7"/>
<g style="mix-blend-mode:overlay" opacity="0.7" filter="url(#filter3_i_2015_6126)">
<path d="M19.2245 11.3738C19.1808 11.3738 19.1394 11.3493 19.1199 11.3077C19.0934 11.2507 19.1187 11.1829 19.1762 11.1567L22.766 9.51999L25.292 8.13564C25.2989 8.13166 25.307 8.12881 25.3144 8.12596L28.1285 7.29193L30.6856 6.3377L31.0352 5.82669C31.0709 5.77484 31.1422 5.76117 31.1951 5.79649C31.2474 5.83181 31.2612 5.90246 31.2255 5.95487L30.8552 6.49607C30.842 6.51544 30.823 6.53025 30.8006 6.5388L28.2056 7.50727C28.2056 7.50727 28.2004 7.50898 28.1981 7.50955L25.3921 8.3413L22.873 9.72166C22.873 9.72166 22.8678 9.72451 22.8655 9.72565L19.2717 11.3641C19.2561 11.3709 19.2395 11.3743 19.2239 11.3743L19.2245 11.3738ZM22.6039 17.0684L25.1241 16.0202C25.1304 16.0179 25.1362 16.0145 25.1419 16.011L28.4379 13.9072L31.3584 11.9645L34.1644 10.6993C34.1696 10.697 34.1753 10.6941 34.1799 10.6907L36.5628 9.13203C36.5818 9.1195 36.5967 9.10184 36.6053 9.08076L36.9843 8.1835C37.009 8.12539 36.9814 8.05874 36.9227 8.03424C36.8641 8.00974 36.7968 8.03709 36.7721 8.0952L36.4064 8.96056L34.0603 10.4953L31.2543 11.7606C31.2485 11.7634 31.2428 11.7663 31.2376 11.7697L28.3108 13.7163L25.0264 15.8134L22.5153 16.8576C22.4566 16.8821 22.429 16.9488 22.4538 17.0069C22.4722 17.0507 22.5147 17.0769 22.5601 17.0769C22.5751 17.0769 22.5901 17.0741 22.6044 17.0678L22.6039 17.0684ZM23.3445 24.5268L25.717 22.8582L29.4378 20.4638L32.6263 18.3052L35.7526 16.2623L38.5954 14.5817L41.4164 12.8191C41.432 12.8094 41.4446 12.7963 41.4538 12.7809L42.0099 11.8569C42.0426 11.8027 42.0242 11.7327 41.9702 11.7008C41.9156 11.6683 41.8448 11.6865 41.8126 11.7401L41.271 12.6408L38.4758 14.3869L35.6307 16.0686L32.4986 18.1155L29.3113 20.2735L25.5893 22.669L23.2128 24.3399C23.161 24.3764 23.149 24.4476 23.1858 24.4989C23.2082 24.5302 23.2438 24.5467 23.2795 24.5467C23.3025 24.5467 23.3255 24.5399 23.3462 24.5256L23.3445 24.5268ZM25.9412 28.7203L29.0721 26.9554C29.0779 26.952 29.0836 26.948 29.0894 26.9434L32.053 24.4829L34.9108 22.1301L37.5259 20.1971L40.248 18.3035C40.2998 18.2676 40.3124 18.1964 40.2762 18.1445C40.24 18.0933 40.1681 18.0807 40.1158 18.1166L37.3914 20.0126L34.7711 21.9495C34.7711 21.9495 34.7676 21.9518 34.7665 21.9535L31.9058 24.3086L28.9497 26.7628L25.8274 28.5226C25.7722 28.5539 25.7526 28.6234 25.7842 28.6781C25.8055 28.7152 25.844 28.7357 25.8843 28.7357C25.9038 28.7357 25.9228 28.7311 25.9412 28.7209V28.7203ZM31.3469 28.4941L33.3945 26.0188L36.2856 22.8006C36.3276 22.7533 36.3236 22.6816 36.2764 22.64C36.2293 22.5984 36.1563 22.6024 36.1143 22.6491L33.2203 25.8707L31.1692 28.3494C31.1289 28.3978 31.1358 28.4696 31.1853 28.5095C31.2066 28.5266 31.2324 28.5351 31.2583 28.5351C31.2917 28.5351 31.3244 28.5209 31.3474 28.4935L31.3469 28.4941Z" fill="url(#paint10_linear_2015_6126)" style="mix-blend-mode:overlay"/>
</g>
</g>
<defs>
<filter id="filter0_i_2015_6126" x="22.418" y="4.49414" width="14.4805" height="24.259" filterUnits="userSpaceOnUse" color-interpolation-filters="sRGB">
<feFlood flood-opacity="0" result="BackgroundImageFix"/>
<feBlend mode="normal" in="SourceGraphic" in2="BackgroundImageFix" result="shape"/>
<feColorMatrix in="SourceAlpha" type="matrix" values="0 0 0 0 0 0 0 0 0 0 0 0 0 0 0 0 0 0 127 0" result="hardAlpha"/>
<feOffset dy="0.531955"/>
<feGaussianBlur stdDeviation="0.59845"/>
<feComposite in2="hardAlpha" operator="arithmetic" k2="-1" k3="1"/>
<feColorMatrix type="matrix" values="0 0 0 0 0 0 0 0 0 0 0 0 0 0 0 0 0 0 0.25 0"/>
<feBlend mode="normal" in2="shape" result="effect1_innerShadow_2015_6126"/>
</filter>
<filter id="filter1_di_2015_6126" x="20.4368" y="2.3291" width="21.6264" height="27.4125" filterUnits="userSpaceOnUse" color-interpolation-filters="sRGB">
<feFlood flood-opacity="0" result="BackgroundImageFix"/>
<feColorMatrix in="SourceAlpha" type="matrix" values="0 0 0 0 0 0 0 0 0 0 0 0 0 0 0 0 0 0 127 0" result="hardAlpha"/>
<feOffset dy="0.531955"/>
<feGaussianBlur stdDeviation="0.265978"/>
<feComposite in2="hardAlpha" operator="out"/>
<feColorMatrix type="matrix" values="0 0 0 0 0 0 0 0 0 0 0 0 0 0 0 0 0 0 0.25 0"/>
<feBlend mode="normal" in2="BackgroundImageFix" result="effect1_dropShadow_2015_6126"/>
<feBlend mode="normal" in="SourceGraphic" in2="effect1_dropShadow_2015_6126" result="shape"/>
<feColorMatrix in="SourceAlpha" type="matrix" values="0 0 0 0 0 0 0 0 0 0 0 0 0 0 0 0 0 0 127 0" result="hardAlpha"/>
<feOffset dy="0.531955"/>
<feGaussianBlur stdDeviation="0.997416"/>
<feComposite in2="hardAlpha" operator="arithmetic" k2="-1" k3="1"/>
<feColorMatrix type="matrix" values="0 0 0 0 0 0 0 0 0 0 0 0 0 0 0 0 0 0 0.45 0"/>
<feBlend mode="normal" in2="shape" result="effect2_innerShadow_2015_6126"/>
</filter>
<filter id="filter2_di_2015_6126" x="20.4095" y="2.30029" width="21.7163" height="28.2856" filterUnits="userSpaceOnUse" color-interpolation-filters="sRGB">
<feFlood flood-opacity="0" result="BackgroundImageFix"/>
<feColorMatrix in="SourceAlpha" type="matrix" values="0 0 0 0 0 0 0 0 0 0 0 0 0 0 0 0 0 0 127 0" result="hardAlpha"/>
<feOffset dy="0.531955"/>
<feGaussianBlur stdDeviation="0.265978"/>
<feComposite in2="hardAlpha" operator="out"/>
<feColorMatrix type="matrix" values="0 0 0 0 0 0 0 0 0 0 0 0 0 0 0 0 0 0 0.25 0"/>
<feBlend mode="normal" in2="BackgroundImageFix" result="effect1_dropShadow_2015_6126"/>
<feBlend mode="normal" in="SourceGraphic" in2="effect1_dropShadow_2015_6126" result="shape"/>
<feColorMatrix in="SourceAlpha" type="matrix" values="0 0 0 0 0 0 0 0 0 0 0 0 0 0 0 0 0 0 127 0" result="hardAlpha"/>
<feOffset dy="0.531955"/>
<feGaussianBlur stdDeviation="1.39638"/>
<feComposite in2="hardAlpha" operator="arithmetic" k2="-1" k3="1"/>
<feColorMatrix type="matrix" values="0 0 0 0 0 0 0 0 0 0 0 0 0 0 0 0 0 0 0.4 0"/>
<feBlend mode="normal" in2="shape" result="effect2_innerShadow_2015_6126"/>
</filter>
<filter id="filter3_i_2015_6126" x="19.1094" y="5.77686" width="22.918" height="23.4909" filterUnits="userSpaceOnUse" color-interpolation-filters="sRGB">
<feFlood flood-opacity="0" result="BackgroundImageFix"/>
<feBlend mode="normal" in="SourceGraphic" in2="BackgroundImageFix" result="shape"/>
<feColorMatrix in="SourceAlpha" type="matrix" values="0 0 0 0 0 0 0 0 0 0 0 0 0 0 0 0 0 0 127 0" result="hardAlpha"/>
<feOffset dy="0.531955"/>
<feGaussianBlur stdDeviation="0.797933"/>
<feComposite in2="hardAlpha" operator="arithmetic" k2="-1" k3="1"/>
<feColorMatrix type="matrix" values="0 0 0 0 0 0 0 0 0 0 0 0 0 0 0 0 0 0 0.45 0"/>
<feBlend mode="normal" in2="shape" result="effect1_innerShadow_2015_6126"/>
</filter>
<linearGradient id="paint0_linear_2015_6126" x1="34.1826" y1="8.93151" x2="38.9304" y2="18.782" gradientUnits="userSpaceOnUse">
<stop stop-color="white"/>
<stop offset="1" stop-color="#DEF3E0"/>
</linearGradient>
<linearGradient id="paint1_linear_2015_6126" x1="36.6945" y1="8.31641" x2="36.6945" y2="19.5909" gradientUnits="userSpaceOnUse">
<stop stop-color="white"/>
<stop offset="1" stop-color="#D4EFD6"/>
</linearGradient>
<linearGradient id="paint2_linear_2015_6126" x1="42.744" y1="5.40839" x2="24.2907" y2="20.1895" gradientUnits="userSpaceOnUse">
<stop stop-color="#EEEEEE"/>
<stop offset="1" stop-color="white"/>
</linearGradient>
<linearGradient id="paint3_linear_2015_6126" x1="44.8894" y1="2.39889" x2="32.6776" y2="19.2751" gradientUnits="userSpaceOnUse">
<stop stop-color="#FAFAFA"/>
<stop offset="1" stop-color="white"/>
</linearGradient>
<linearGradient id="paint4_linear_2015_6126" x1="10.8292" y1="10.0312" x2="10.8292" y2="-0.000145912" gradientUnits="userSpaceOnUse">
<stop stop-color="white"/>
<stop offset="1" stop-color="#FAFAFA"/>
</linearGradient>
<linearGradient id="paint5_linear_2015_6126" x1="6.93468" y1="20.0361" x2="6.93468" y2="10.4693" gradientUnits="userSpaceOnUse">
<stop stop-color="white"/>
<stop offset="1" stop-color="#FAFAFA"/>
</linearGradient>
<linearGradient id="paint6_linear_2015_6126" x1="11.9882" y1="28.2979" x2="11.9882" y2="10.5807" gradientUnits="userSpaceOnUse">
<stop stop-color="white"/>
<stop offset="1" stop-color="#FAFAFA"/>
</linearGradient>
<linearGradient id="paint7_linear_2015_6126" x1="29.6579" y1="28.2218" x2="29.6579" y2="4.49422" gradientUnits="userSpaceOnUse">
<stop offset="0.15" stop-color="white"/>
<stop offset="0.22" stop-color="#FAFAFA"/>
<stop offset="0.3" stop-color="#EEEEEE"/>
<stop offset="0.38" stop-color="#D9D9D9"/>
<stop offset="0.46" stop-color="#BCBCBC"/>
<stop offset="0.54" stop-color="#969696"/>
<stop offset="0.62" stop-color="#686868"/>
<stop offset="0.71" stop-color="#333333"/>
<stop offset="0.77"/>
<stop offset="1" stop-color="#494949"/>
</linearGradient>
<linearGradient id="paint8_linear_2015_6126" x1="31.2506" y1="28.6779" x2="31.2506" y2="2.32955" gradientUnits="userSpaceOnUse">
<stop offset="0.15" stop-color="white"/>
<stop offset="0.22" stop-color="#FAFAFA"/>
<stop offset="0.3" stop-color="#EEEEEE"/>
<stop offset="0.38" stop-color="#D9D9D9"/>
<stop offset="0.46" stop-color="#BCBCBC"/>
<stop offset="0.54" stop-color="#969696"/>
<stop offset="0.62" stop-color="#686868"/>
<stop offset="0.71" stop-color="#333333"/>
<stop offset="0.77"/>
<stop offset="1" stop-color="#494949"/>
</linearGradient>
<linearGradient id="paint9_linear_2015_6126" x1="18.069" y1="9.182" x2="37.1658" y2="22.6785" gradientUnits="userSpaceOnUse">
<stop offset="0.15" stop-color="white"/>
<stop offset="0.22" stop-color="#FAFAFA"/>
<stop offset="0.3" stop-color="#EEEEEE"/>
<stop offset="0.38" stop-color="#D9D9D9"/>
<stop offset="0.46" stop-color="#BCBCBC"/>
<stop offset="0.54" stop-color="#969696"/>
<stop offset="0.62" stop-color="#686868"/>
<stop offset="0.71" stop-color="#333333"/>
<stop offset="0.77"/>
<stop offset="1" stop-color="#494949"/>
</linearGradient>
<linearGradient id="paint10_linear_2015_6126" x1="21.9633" y1="8.38517" x2="36.6658" y2="23.225" gradientUnits="userSpaceOnUse">
<stop offset="0.15" stop-color="white"/>
<stop offset="0.22" stop-color="#FAFAFA"/>
<stop offset="0.3" stop-color="#EEEEEE"/>
<stop offset="0.38" stop-color="#D9D9D9"/>
<stop offset="0.46" stop-color="#BCBCBC"/>
<stop offset="0.54" stop-color="#969696"/>
<stop offset="0.62" stop-color="#686868"/>
<stop offset="0.71" stop-color="#333333"/>
<stop offset="0.77"/>
<stop offset="1" stop-color="#494949"/>
</linearGradient>
</defs>
</svg>
