<svg width="24" height="24" viewBox="0 0 24 24" fill="none" xmlns="http://www.w3.org/2000/svg">
<g clip-path="url(#clip0_1_257453)">
<path d="M19.1034 19.0944C23.0215 15.1763 23.0215 8.82374 19.1034 4.90563C15.1853 0.987523 8.83279 0.987523 4.91468 4.90563C0.996568 8.82374 0.996568 15.1763 4.91468 19.0944C8.83279 23.0125 15.1853 23.0125 19.1034 19.0944Z" fill="#E9B522"/>
<path d="M14.9661 16.227C16.5284 16.227 17.8519 15.2208 18.3158 13.8276C17.147 15.4376 13.7082 15.1368 13.4224 13.1497C13.386 13.0163 13.3661 12.8764 13.3661 12.7324C13.3661 11.8568 14.0824 11.1471 14.9661 11.1471C15.7038 11.1471 16.3245 11.6421 16.5091 12.3144C16.2233 10.3273 12.7845 10.0265 11.6157 11.6365C11.5009 11.9811 11.4375 12.3497 11.4375 12.7324C11.4375 14.663 13.0169 16.2277 14.9654 16.2277L14.9661 16.227Z" fill="#CE9811"/>
<path d="M16.5092 12.3136C16.5456 12.4471 16.5655 12.5869 16.5655 12.7317C16.5655 13.6073 15.8493 14.3169 14.9655 14.3169C14.2278 14.3169 13.6071 13.8219 13.4225 13.1497C13.7083 15.1367 17.1471 15.4375 18.3159 13.8276C18.4307 13.483 18.4941 13.1144 18.4941 12.7317C18.4941 10.8011 16.9148 9.23633 14.9662 9.23633C13.404 9.23633 12.0805 10.2426 11.6165 11.6358C12.7853 10.0258 16.2241 10.3266 16.5099 12.3136H16.5092Z" fill="#CE9811"/>
<path d="M9.39019 9.26179C10.0012 9.31231 10.491 9.12297 10.9431 9.57164C11.2731 9.89422 11.2518 10.3019 11.2486 10.3019V11.7314H9.43836V11.0557C8.40298 11.0525 8.79762 11.0521 7.71687 11.0557V11.7064H5.90545C5.90545 10.2633 5.82234 9.95746 6.21538 9.57124C6.58192 9.21008 6.95087 9.29122 6.95087 9.26537C7.23069 9.26537 7.19576 9.27014 7.19014 9.25304C8.70689 9.25821 8.21148 9.25821 9.39019 9.25304V9.26139V9.26179Z" fill="#CE9811"/>
<path d="M9.31641 12.4208L7.56561 14.2023C6.91924 14.2023 6.58281 14.2632 6.21065 13.8941C5.83729 13.5194 5.90072 13.3288 5.90072 11.8424H7.71214V12.4084L9.316 12.4208H9.31641Z" fill="#CE9811"/>
<path d="M10.9033 13.6501L8.29379 16.2363L6.48237 16.228C6.5157 15.7141 6.70077 15.2825 7.04242 14.9345L9.43597 12.5623L9.43998 11.859H11.2474C11.2474 13.137 11.3028 13.2579 10.9029 13.6501H10.9033Z" fill="#CE9811"/>
<path d="M16.1535 12.4559C16.1535 13.2191 15.5404 13.8377 14.7842 13.8377C14.0279 13.8377 13.4149 13.2191 13.4149 12.4559C13.4149 11.6927 14.0282 11.074 14.7842 11.074C15.5402 11.074 16.1535 11.6927 16.1535 12.4559Z" stroke="#F7DE61" stroke-width="0.0328569"/>
<path d="M14.7102 11.078C14.3942 11.1243 14.1834 11.283 14.1242 11.3326C13.982 11.3696 13.7943 11.4817 13.7773 11.4922C13.7665 11.5038 13.7556 11.5156 13.745 11.5275C13.7403 11.533 13.7356 11.5385 13.7309 11.544C13.7239 11.552 13.717 11.5603 13.71 11.5685C13.589 11.727 13.5428 11.9119 13.5295 11.9772L13.4288 12.1506C13.4255 12.1654 13.4224 12.1803 13.4196 12.1955C13.4185 12.201 13.4177 12.2065 13.4166 12.2123C13.4143 12.2252 13.4121 12.2379 13.4102 12.2509C13.4115 12.2498 13.4129 12.2481 13.4138 12.2465L13.5456 12.0191C13.5879 12.0414 13.6836 12.0726 13.7317 12.0877C13.7375 12.1423 13.7859 12.5906 13.8613 12.6912C13.8168 12.7469 13.7453 12.963 13.7384 13.0696C13.6024 13.0743 13.4997 12.9803 13.4986 12.9795C13.4975 12.9787 13.4964 12.9781 13.4953 12.9773C13.5039 12.9988 13.5131 13.02 13.5225 13.0409C13.5673 13.0696 13.6399 13.1049 13.7275 13.1049C13.732 13.1049 13.7367 13.1049 13.7414 13.1046C13.7768 13.2115 14.0691 13.4342 14.1375 13.4852C14.1511 13.5428 14.1876 13.6486 14.2852 13.7616C14.3086 13.7707 14.3322 13.7792 14.3564 13.7869C14.3564 13.7869 14.3553 13.785 14.3545 13.7842C14.2393 13.6701 14.1937 13.5563 14.1759 13.4918C14.3339 13.4623 14.4744 13.3714 14.5266 13.3344C14.5926 13.359 14.8323 13.4405 15.0902 13.4405C15.1091 13.4405 15.128 13.44 15.1472 13.4389C15.1781 13.5524 15.2523 13.6326 15.2804 13.6599C15.2507 13.6924 15.16 13.7751 14.9578 13.8387C14.955 13.8396 14.9528 13.8412 14.9508 13.8431C14.9759 13.8401 15.0003 13.8363 15.0248 13.8318C15.0315 13.8307 15.0382 13.8296 15.0448 13.8283C15.054 13.8266 15.0632 13.8247 15.0724 13.8227C15.0902 13.8189 15.1077 13.815 15.1252 13.8103C15.2704 13.7395 15.3191 13.669 15.3216 13.6654C15.3222 13.6648 15.3222 13.664 15.3224 13.6632C15.8737 13.5378 15.916 13.1594 15.9182 13.0616C15.9627 13.0109 16.0673 12.8745 16.1547 12.6314C16.1574 12.6088 16.1597 12.586 16.1616 12.5628C16.1622 12.5554 16.1627 12.5477 16.1633 12.5402C16.1638 12.5317 16.1641 12.5231 16.1647 12.5146C16.1655 12.495 16.1661 12.4755 16.1661 12.4556C16.1661 12.4341 16.1655 12.4129 16.1644 12.3917C16.1644 12.3862 16.1638 12.3804 16.1636 12.3749C16.1624 12.3561 16.161 12.3374 16.1594 12.3189C16.1594 12.3164 16.1591 12.3137 16.1588 12.3112C16.1566 12.2908 16.1541 12.2704 16.151 12.2503C16.1502 12.2445 16.1494 12.2387 16.1483 12.2329C16.1458 12.2164 16.1427 12.2002 16.1396 12.1839C16.1388 12.1795 16.138 12.1751 16.1371 12.1704C16.1332 12.1511 16.1288 12.1321 16.1241 12.1131C16.1227 12.107 16.121 12.1009 16.1193 12.0949C16.1154 12.0806 16.1115 12.0662 16.1074 12.0522C16.1057 12.0464 16.104 12.0403 16.1021 12.0345C16.0965 12.0166 16.0904 11.999 16.0843 11.9813C16.0821 11.9747 16.0796 11.9684 16.077 11.9621C16.0723 11.9497 16.0676 11.937 16.0626 11.9249C16.0598 11.918 16.057 11.9111 16.0542 11.9045C16.0473 11.8879 16.0398 11.8714 16.0323 11.8554C16.0292 11.8488 16.0259 11.8422 16.0225 11.8358C16.017 11.8245 16.0114 11.8135 16.0056 11.8025C16.0019 11.7953 15.9981 11.7882 15.9942 11.781C15.9858 11.7656 15.9772 11.7504 15.968 11.7353C15.9816 11.7871 16.027 11.9725 15.9928 12.0323C15.8534 11.9951 15.6737 11.9929 15.612 11.9932C15.5767 11.8951 15.2916 11.6609 15.2048 11.6112C15.2048 11.5796 15.1981 11.3098 15.1964 11.2359C15.2899 11.2224 15.5118 11.2695 15.5118 11.2695C15.5118 11.2693 15.5121 11.2687 15.5124 11.2684C15.3002 11.1348 15.0496 11.0576 14.7809 11.0576C14.7745 11.0576 14.7681 11.0579 14.7617 11.0582L14.7097 11.0788L14.7102 11.078ZM13.9028 12.6863C13.9016 12.6827 13.8997 12.6791 13.8964 12.6766C13.8435 12.6383 13.7896 12.2952 13.7679 12.0861C13.8989 11.8962 14.0861 11.7336 14.1392 11.689C14.1592 11.6928 14.552 11.7708 14.691 11.8411C14.6999 11.9441 14.7647 12.2743 14.7887 12.3597C14.733 12.4143 14.4329 12.7094 14.355 12.8119C14.2763 12.7805 13.9937 12.7091 13.9028 12.6863ZM15.6106 12.0276C15.6698 12.0274 15.8584 12.0296 15.995 12.0684C16.0353 12.1222 16.133 12.279 16.1441 12.5523C16.1441 12.5523 16.1446 12.5523 16.1452 12.5523C16.0595 12.8202 15.9466 12.974 15.8976 13.0321C15.8298 13.0222 15.62 13.0161 15.5538 13.0145C15.5402 12.8728 15.4334 12.5838 15.3895 12.4691C15.4838 12.3864 15.5856 12.1009 15.6106 12.0276ZM15.3566 12.4823C15.4031 12.6036 15.5199 12.9213 15.5199 13.0418C15.5199 13.0429 15.5205 13.044 15.5208 13.0453C15.4609 13.1415 15.2028 13.3537 15.1511 13.4033C14.8827 13.4177 14.6201 13.3303 14.5447 13.3027C14.5214 13.2292 14.4173 12.9051 14.3823 12.8345C14.4518 12.7411 14.7475 12.4498 14.8104 12.3881C14.8932 12.4214 15.2838 12.473 15.3566 12.4823ZM15.1703 11.6013C15.0704 11.6088 14.7519 11.7782 14.6999 11.8061C14.5575 11.7383 14.2154 11.6683 14.1542 11.6562V11.3541C14.2198 11.3012 14.4271 11.1527 14.7244 11.1114C14.9147 11.1284 15.093 11.1949 15.1619 11.223C15.1631 11.2651 15.1694 11.5396 15.1706 11.6011L15.1703 11.6013Z" fill="#F7DE61"/>
<path d="M14.7786 15.9936C16.3409 15.9936 17.6644 14.9874 18.1283 13.5942C16.9595 15.2042 13.5207 14.9034 13.2349 12.9163C13.1985 12.7829 13.1786 12.643 13.1786 12.499C13.1786 11.6234 13.8949 10.9137 14.7786 10.9137C15.5163 10.9137 16.137 11.4087 16.3216 12.081C16.0358 10.0939 12.597 9.79312 11.4282 11.4031C11.3134 11.7477 11.25 12.1163 11.25 12.499C11.25 14.4296 12.8294 15.9943 14.7779 15.9943L14.7786 15.9936Z" fill="#EEC910"/>
<path d="M16.3217 12.0802C16.3581 12.2137 16.378 12.3535 16.378 12.4983C16.378 13.3739 15.6618 14.0835 14.778 14.0835C14.0403 14.0835 13.4196 13.5885 13.235 12.9163C13.5208 14.9033 16.9596 15.2041 18.1284 13.5942C18.2432 13.2496 18.3066 12.881 18.3066 12.4983C18.3066 10.5677 16.7273 9.00293 14.7787 9.00293C13.2165 9.00293 11.893 10.0092 11.429 11.4024C12.5978 9.79238 16.0366 10.0932 16.3224 12.0802H16.3217Z" fill="#F7DE61"/>
<path fill-rule="evenodd" clip-rule="evenodd" d="M15.2706 11.1609L12.1807 9.8788L12.2571 9.74692L15.3409 11.0239L15.2706 11.1609Z" fill="#E9B522"/>
<path fill-rule="evenodd" clip-rule="evenodd" d="M16.0686 13.4313L13.9942 16.0222L13.8394 15.8785L15.9137 13.2877L16.0686 13.4313Z" fill="#E9B522"/>
<path d="M9.20269 9.02742C9.81372 9.07793 10.3035 8.8886 10.7556 9.33727C11.0856 9.65984 11.0643 10.0675 11.0611 10.0675V11.4971H9.25086V10.8213C8.21548 10.8181 8.61012 10.8177 7.52937 10.8213V11.472H5.71795C5.71795 10.029 5.63484 9.72309 6.02788 9.33687C6.39442 8.97571 6.76337 9.05685 6.76337 9.03099C7.04319 9.03099 7.00826 9.03577 7.00264 9.01866C8.51939 9.02384 8.02398 9.02384 9.20269 9.01866V9.02702V9.02742Z" fill="#F7DE61"/>
<path d="M9.12891 12.1854L7.37811 13.967C6.73174 13.967 6.39531 14.0278 6.02315 13.6587C5.64979 13.284 5.71322 13.0935 5.71322 11.6071H7.52464V12.1731L9.1285 12.1854H9.12891Z" fill="#F7DE61"/>
<path d="M10.7158 13.4158L8.10629 16.002L6.29487 15.9936C6.3282 15.4797 6.51327 15.0481 6.85492 14.7001L9.24847 12.3279L9.25248 11.6247H11.0599C11.0599 12.9027 11.1153 13.0236 10.7154 13.4158H10.7158Z" fill="#F7DE61"/>
<mask id="mask0_1_257453" style="mask-type:alpha" maskUnits="userSpaceOnUse" x="11" y="9" width="8" height="7">
<ellipse cx="14.7783" cy="12.4986" rx="3.52835" ry="3.49571" fill="#D9D9D9"/>
</mask>
<g mask="url(#mask0_1_257453)">
<path d="M11.777 11.1756H11.2987C11.2869 11.1756 11.2773 11.1662 11.2773 11.1545C11.2773 11.1428 11.2869 11.1334 11.2987 11.1334H11.7747L12.2332 11.0352C12.2332 11.0352 12.2343 11.0349 12.2349 11.0349L12.688 10.9746L13.3154 10.9229C13.3165 10.9229 13.3177 10.9229 13.3188 10.9229L14.0077 10.9745L14.8341 10.9915C14.8459 10.9918 14.8552 11.0014 14.855 11.0131C14.8547 11.0248 14.8452 11.0339 14.8332 11.0338L14.0057 11.0167L13.3174 10.9651L12.6927 11.0166L12.2414 11.0766L11.7814 11.1752C11.78 11.1755 11.7784 11.1756 11.7768 11.1756H11.777Z" fill="#F7DE61"/>
<path d="M11.2887 11.1619C11.2825 11.1619 11.2773 11.1569 11.2773 11.1507C11.2773 11.1445 11.2825 11.1394 11.2887 11.1394H11.7658L12.2253 11.0409L12.6795 10.9805L13.3065 10.9287H13.3083L13.9972 10.9804L14.824 10.9974C14.827 10.9974 14.8298 10.9987 14.8319 11.0009C14.8341 11.003 14.8352 11.006 14.8351 11.0089C14.8351 11.0151 14.83 11.0199 14.8236 11.0199L13.9959 11.0029L13.3073 10.9512L12.6819 11.0029L12.23 11.063L11.7695 11.1617C11.7686 11.1618 11.7679 11.1619 11.767 11.1619H11.2887Z" fill="#F7DE61"/>
<path d="M13.4483 10.4578C13.4471 10.4578 13.4458 10.4578 13.4445 10.4575L12.7048 10.3238L12.1494 10.2454L11.4124 10.1269C11.4008 10.1251 11.393 10.1143 11.3948 10.1027C11.3966 10.0912 11.4077 10.0833 11.4192 10.0853L12.1558 10.2038L12.7116 10.2823L13.4522 10.4162C13.4637 10.4183 13.4715 10.4293 13.4694 10.4407C13.4675 10.4508 13.4586 10.458 13.4485 10.458L13.4483 10.4578Z" fill="#F7DE61"/>
<path d="M13.4383 10.4441C13.4383 10.4441 13.4368 10.4441 13.4363 10.444L12.6965 10.3103L12.1408 10.2317L11.404 10.1132C11.401 10.1128 11.3983 10.1111 11.3966 10.1087C11.3949 10.1063 11.3942 10.1033 11.3947 10.1003C11.3955 10.0949 11.4003 10.0908 11.4057 10.0908C11.4063 10.0908 11.407 10.0908 11.4076 10.091L12.1442 10.2095L12.7002 10.288L13.4404 10.4217C13.4434 10.4223 13.4459 10.424 13.4476 10.4264C13.4493 10.4288 13.45 10.4319 13.4495 10.4348C13.4485 10.4402 13.4438 10.4441 13.4383 10.4441Z" fill="#F7DE61"/>
<path d="M11.5252 12.1513C11.5146 12.1513 11.5053 12.1434 11.5041 12.1325C11.5026 12.121 11.511 12.1104 11.5228 12.1092L12.0169 12.0522C12.0169 12.0522 12.0181 12.0522 12.0186 12.0522L12.5362 12.0349L13.0892 11.9624L13.7622 11.881C13.7738 11.8796 13.7845 11.8878 13.7859 11.8995C13.7873 11.911 13.7791 11.9216 13.7673 11.923L13.0946 12.0043L12.5409 12.0769C12.5409 12.0769 12.5394 12.0771 12.5387 12.0771L12.021 12.0944L11.5278 12.1513C11.5269 12.1513 11.5261 12.1514 11.5252 12.1514V12.1513Z" fill="#F7DE61"/>
<path d="M11.5152 12.1374C11.5095 12.1374 11.5045 12.1332 11.504 12.1274C11.5037 12.1244 11.5044 12.1215 11.5064 12.1191C11.5082 12.1167 11.5109 12.1153 11.5141 12.1149L12.0082 12.0579L12.5265 12.0406L13.0806 11.9681L13.7534 11.8867C13.7534 11.8867 13.7544 11.8867 13.7548 11.8867C13.7605 11.8867 13.7654 11.8909 13.7661 11.8966C13.7665 11.8995 13.7656 11.9025 13.7638 11.9049C13.7619 11.9073 13.7592 11.9087 13.7563 11.9091L13.0836 11.9905L12.5297 12.0631L12.0109 12.0805L11.5169 12.1375H11.5156L11.5152 12.1374Z" fill="#F7DE61"/>
<path d="M11.5682 13.1971C11.5571 13.1971 11.5478 13.1886 11.5469 13.1774C11.5462 13.1658 11.555 13.1558 11.5668 13.1551L12.0545 13.1234L12.578 13.0693C12.5787 13.0693 12.5794 13.0693 12.5803 13.0693H13.6664C13.6782 13.0693 13.6877 13.0788 13.6877 13.0904C13.6877 13.1021 13.6782 13.1116 13.6664 13.1116H12.5813L12.0581 13.1656L11.5695 13.1973C11.5695 13.1973 11.5685 13.1973 11.5681 13.1973L11.5682 13.1971Z" fill="#F7DE61"/>
<path d="M11.5583 13.1834C11.5523 13.1834 11.5473 13.1788 11.5469 13.1729C11.5465 13.1667 11.5513 13.1613 11.5576 13.1609L12.0453 13.1292L12.5691 13.0752H13.6564C13.6627 13.0752 13.6678 13.0801 13.6678 13.0865C13.6678 13.0928 13.6627 13.0977 13.6564 13.0977H12.5715L12.0473 13.1518L11.5583 13.1834Z" fill="#F7DE61"/>
<path d="M14.6608 14.6402C14.6538 14.6402 14.6469 14.6368 14.6429 14.6305C14.5679 14.5147 14.5616 14.4115 14.5531 14.2686L14.5522 14.2556H13.522C13.521 14.2556 13.5201 14.2556 13.5191 14.2554L13.0723 14.197L12.6548 14.204L12.2211 14.1829L11.8598 14.197C11.8598 14.197 11.8587 14.197 11.8581 14.197L11.368 14.1759C11.3562 14.1753 11.3471 14.1655 11.3477 14.1539C11.3482 14.1422 11.3582 14.1334 11.3698 14.1338L11.8591 14.1549L12.2205 14.1408C12.2205 14.1408 12.2218 14.1408 12.2224 14.1408L12.6557 14.162L13.0733 14.1549C13.0743 14.1549 13.0755 14.1549 13.0765 14.1551L13.5234 14.2135H14.5724C14.5836 14.2135 14.593 14.2222 14.5937 14.2333L14.5957 14.2662C14.6042 14.4078 14.6098 14.5013 14.6788 14.6079C14.6852 14.6177 14.6824 14.6307 14.6724 14.637C14.6689 14.6392 14.6649 14.6404 14.6609 14.6404L14.6608 14.6402Z" fill="#F7DE61"/>
<path d="M14.651 14.6266C14.6471 14.6266 14.6434 14.6247 14.6414 14.6214C14.5678 14.5077 14.5617 14.4057 14.5532 14.2642L14.5518 14.2418H13.5122C13.5122 14.2418 13.5112 14.2418 13.5107 14.2418L13.0632 14.1833L12.645 14.1903L12.2118 14.1692L11.8496 14.1833L11.3585 14.1622C11.3522 14.1619 11.3474 14.1567 11.3477 14.1503C11.348 14.1444 11.3531 14.1396 11.3592 14.1396L11.8487 14.1608L12.211 14.1467L12.6453 14.1678L13.0637 14.1608H13.0654L13.5123 14.2193H14.5626C14.5686 14.2193 14.5735 14.2241 14.574 14.23L14.5759 14.2629C14.5845 14.4061 14.5902 14.5007 14.6606 14.6093C14.664 14.6145 14.6625 14.6216 14.6572 14.625C14.6554 14.6261 14.6532 14.6268 14.6511 14.6268L14.651 14.6266Z" fill="#F7DE61"/>
<path d="M13.7624 15.9635C13.7547 15.9635 13.7473 15.9595 13.7435 15.9523L13.4683 15.4319L13.291 15.3345L12.9688 15.3047L12.6709 15.2737C12.6709 15.2737 12.6699 15.2737 12.6693 15.2734L12.2356 15.1965L11.9465 15.2035C11.9455 15.2035 11.9445 15.2035 11.9435 15.2034L11.5813 15.1611C11.5696 15.1597 11.5612 15.1493 11.5627 15.1378C11.5641 15.1262 11.5746 15.1178 11.5862 15.1193L11.9469 15.1614L12.2366 15.1544C12.238 15.1544 12.2395 15.1544 12.2409 15.1547L12.6759 15.2319L12.9728 15.2627L13.2993 15.293C13.3022 15.2933 13.3051 15.2941 13.3076 15.2955L13.4945 15.3982C13.4981 15.4001 13.5011 15.4032 13.503 15.4069L13.7811 15.9329C13.7865 15.9431 13.7826 15.9559 13.7722 15.9614C13.7691 15.9631 13.7657 15.9638 13.7624 15.9638V15.9635Z" fill="#F7DE61"/>
<path d="M13.7525 15.9499C13.7482 15.9499 13.7444 15.9477 13.7424 15.9439L13.4658 15.4209L13.2841 15.3211L12.9598 15.2909L12.662 15.26L12.2266 15.1827L11.9365 15.1897C11.9365 15.1897 11.9355 15.1897 11.9348 15.1897L11.5725 15.1475C11.5695 15.1472 11.5668 15.1457 11.565 15.1433C11.5631 15.1409 11.5623 15.1379 11.5626 15.135C11.5633 15.1294 11.568 15.125 11.5736 15.125H11.5752L11.9359 15.1672L12.227 15.1603C12.227 15.1603 12.2284 15.1603 12.2293 15.1605L12.6643 15.2377L12.9619 15.2687L13.2885 15.299C13.2901 15.299 13.2916 15.2995 13.293 15.3004L13.4797 15.4028C13.4817 15.404 13.4833 15.4055 13.4843 15.4075L13.7624 15.9335C13.7638 15.9361 13.7641 15.9392 13.7633 15.9421C13.7624 15.9449 13.7604 15.9473 13.7577 15.9487C13.7562 15.9495 13.7543 15.9499 13.7525 15.9499Z" fill="#F7DE61"/>
<g style="mix-blend-mode:overlay" opacity="0.5" filter="url(#filter0_i_1_257453)">
<path d="M11.7575 11.1896H11.2791C11.2673 11.1896 11.2578 11.1802 11.2578 11.1685C11.2578 11.1568 11.2673 11.1474 11.2791 11.1474H11.7552L12.2136 11.0492C12.2136 11.0492 12.2148 11.0489 12.2153 11.0489L12.6685 10.9886L13.2959 10.9368C13.297 10.9368 13.2981 10.9368 13.2993 10.9368L13.9882 10.9885L14.8145 11.0055C14.8263 11.0058 14.8357 11.0154 14.8354 11.0271C14.8351 11.0387 14.8256 11.0479 14.8137 11.0477L13.9862 11.0307L13.2979 10.9791L12.6732 11.0306L12.2219 11.0905L11.7619 11.1892C11.7604 11.1895 11.7589 11.1896 11.7573 11.1896H11.7575ZM13.4321 10.469C13.4342 10.4576 13.4266 10.4465 13.4149 10.4445L12.6743 10.3106L12.1186 10.2321L11.382 10.1136C11.3705 10.1116 11.3594 10.1195 11.3575 10.131C11.3557 10.1426 11.3635 10.1534 11.3752 10.1552L12.1122 10.2738L12.6675 10.3522L13.4073 10.4859C13.4085 10.4862 13.4098 10.4862 13.4111 10.4862C13.4212 10.4862 13.4301 10.479 13.432 10.4688L13.4321 10.469ZM11.5121 12.1673L12.0054 12.1104L12.523 12.0931C12.523 12.0931 12.5245 12.0931 12.5252 12.093L13.0789 12.0203L13.7516 11.939C13.7633 11.9376 13.7716 11.927 13.7702 11.9155C13.7688 11.9039 13.7582 11.8956 13.7465 11.897L13.0735 11.9784L12.5205 12.0509L12.0029 12.0682C12.0029 12.0682 12.0018 12.0682 12.0012 12.0682L11.5071 12.1252C11.4955 12.1266 11.4871 12.137 11.4884 12.1486C11.4897 12.1593 11.4989 12.1673 11.5096 12.1673C11.5104 12.1673 11.5113 12.1673 11.5121 12.1671V12.1673ZM11.5718 13.2063L12.0603 13.1746L12.5836 13.1206H13.6685C13.6803 13.1206 13.6898 13.1111 13.6898 13.0995C13.6898 13.0878 13.6803 13.0784 13.6685 13.0784H12.5824C12.5817 13.0784 12.581 13.0784 12.5802 13.0784L12.0566 13.1324L11.5689 13.1641C11.5571 13.1648 11.5483 13.1749 11.549 13.1865C11.5498 13.1976 11.5591 13.2062 11.5704 13.2062C11.5708 13.2062 11.5713 13.2062 11.5718 13.2062V13.2063ZM14.6749 14.6352C14.6848 14.6289 14.6877 14.6158 14.6813 14.6061C14.6122 14.4995 14.6067 14.4061 14.5982 14.2645L14.5962 14.2315C14.5955 14.2204 14.5862 14.2117 14.5749 14.2117H13.526L13.0791 14.1533C13.0781 14.1533 13.077 14.1531 13.076 14.1531L12.6583 14.1602L12.225 14.1391C12.225 14.1391 12.2237 14.1391 12.2231 14.1391L11.8617 14.1531L11.3725 14.132C11.3608 14.1316 11.3507 14.1406 11.3503 14.1521C11.3497 14.1638 11.359 14.1737 11.3706 14.1741L11.8607 14.1952C11.8607 14.1952 11.8619 14.1952 11.8624 14.1952L12.2237 14.1811L12.6574 14.2022L13.075 14.1952L13.5218 14.2536C13.5226 14.2536 13.5236 14.2538 13.5246 14.2538H14.555L14.5558 14.2669C14.5644 14.4097 14.5706 14.513 14.6456 14.6287C14.6497 14.6351 14.6566 14.6384 14.6635 14.6384C14.6675 14.6384 14.6715 14.6373 14.675 14.6351L14.6749 14.6352ZM13.7589 15.9733C13.7692 15.968 13.7734 15.9552 13.7678 15.9447L13.4896 15.4188C13.4877 15.4151 13.4847 15.4121 13.4811 15.41L13.2943 15.3074C13.2918 15.306 13.2889 15.3052 13.2859 15.3049L12.9595 15.2746L12.6625 15.2438L12.2275 15.1665C12.2261 15.1662 12.2247 15.1662 12.2233 15.1662L11.9336 15.1733L11.5729 15.1312C11.5613 15.1297 11.5506 15.1381 11.5493 15.1496C11.5479 15.1612 11.5563 15.1717 11.5679 15.173L11.9302 15.2152C11.9312 15.2152 11.9322 15.2152 11.9332 15.2154L12.2223 15.2083L12.656 15.2853C12.656 15.2853 12.657 15.2855 12.6576 15.2856L12.9555 15.3166L13.2777 15.3464L13.455 15.4438L13.7302 15.9642C13.734 15.9713 13.7414 15.9754 13.7491 15.9754C13.7523 15.9754 13.7557 15.9747 13.7589 15.973V15.9733Z" fill="url(#paint0_linear_1_257453)" style="mix-blend-mode:overlay"/>
</g>
<path d="M11.6157 15.2134C11.6141 15.2134 11.6126 15.2132 11.6109 15.2128C11.5994 15.2103 11.5923 15.1989 11.5948 15.1875L11.8288 14.1762C11.8304 14.0895 11.822 14.0257 11.8137 13.9642C11.7904 13.7897 11.7721 13.6519 12.0263 13.1514C12.1229 12.68 12.076 12.3926 11.9748 12.1087C11.6873 11.9505 11.539 11.777 11.2932 11.4477C11.2863 11.4383 11.2882 11.4252 11.2976 11.4182C11.307 11.4113 11.3204 11.4133 11.3275 11.4225C11.5771 11.757 11.7164 11.9198 12.0024 12.0756C12.007 12.0782 12.0105 12.0822 12.0122 12.087C12.1179 12.3806 12.1676 12.6758 12.0675 13.1626C12.067 13.1645 12.0665 13.1663 12.0656 13.168C11.816 13.6588 11.8328 13.7846 11.8561 13.9589C11.8642 14.0195 11.8733 14.0884 11.8714 14.1794C11.8714 14.1808 11.8713 14.1824 11.8709 14.1837L11.6364 15.1969C11.6342 15.2066 11.6254 15.2134 11.6157 15.2134Z" fill="#F7DE61"/>
<path d="M11.6058 15.1995C11.605 15.1995 11.6041 15.1995 11.6033 15.1992C11.6003 15.1985 11.5977 15.1968 11.5962 15.1942C11.5946 15.1916 11.594 15.1887 11.5947 15.1857L11.8289 14.1734V14.1724C11.8306 14.085 11.822 14.021 11.8138 13.9591C11.7908 13.7861 11.7725 13.6496 12.0253 13.1519L12.0259 13.1507L12.0262 13.1495C12.1236 12.674 12.0759 12.3867 11.9743 12.1016L11.973 12.0981L11.9698 12.0962C11.6838 11.9389 11.5369 11.7669 11.2913 11.4379C11.2876 11.433 11.2886 11.4258 11.2937 11.4222C11.2957 11.4208 11.298 11.4199 11.3004 11.4199C11.3041 11.4199 11.3073 11.4216 11.3096 11.4244C11.5601 11.76 11.6999 11.9235 11.9877 12.0803C11.9901 12.0816 11.9919 12.0838 11.9929 12.0864C12.0981 12.3784 12.1475 12.6722 12.0478 13.1566C12.0476 13.1576 12.0472 13.1586 12.0468 13.1595C11.7958 13.6531 11.8128 13.7802 11.8362 13.956C11.8443 14.0163 11.8534 14.0848 11.8516 14.175C11.8516 14.1758 11.8516 14.1765 11.8513 14.1772L11.6168 15.1908C11.6156 15.1958 11.6109 15.1995 11.6057 15.1995H11.6058Z" fill="#F7DE61"/>
<path d="M13.1256 16.0477C13.1221 16.0477 13.1187 16.0469 13.1155 16.0452C13.1051 16.0397 13.1013 16.0269 13.1068 16.0166L13.668 14.9821C13.6691 14.9798 13.6708 14.9779 13.6726 14.9762L14.5385 14.2191L15.4294 13.2987L15.9124 11.9825L14.7812 11.0467L13.3814 10.4865L11.5395 9.6203C11.5289 9.61538 11.5243 9.60271 11.5294 9.59215C11.5344 9.5816 11.5472 9.57709 11.5579 9.58216L13.3986 10.4478L14.8004 11.0087C14.8024 11.0095 14.8043 11.0106 14.806 11.0121L15.9514 11.9596C15.9583 11.9652 15.9609 11.9747 15.9578 11.983L15.4681 13.3173C15.4671 13.3201 15.4655 13.3226 15.4634 13.3247L14.5688 14.2491C14.5688 14.2491 14.5679 14.2499 14.5675 14.2503L13.7038 15.0056L13.1444 16.0367C13.1406 16.0438 13.1332 16.0479 13.1257 16.0479L13.1256 16.0477Z" fill="#F7DE61"/>
<path d="M13.1156 16.0338C13.1137 16.0338 13.1119 16.0333 13.1102 16.0324C13.1046 16.0294 13.1026 16.0226 13.1055 16.0171L13.6666 14.9826C13.6672 14.9815 13.6681 14.9804 13.6692 14.9795L14.5351 14.2224L15.428 13.2999L15.9141 11.9753L14.7763 11.034L13.3751 10.4732L11.5338 9.60733C11.5311 9.60606 11.529 9.60381 11.528 9.601C11.527 9.59818 11.5271 9.59509 11.5284 9.59241C11.5303 9.58847 11.5344 9.58594 11.5387 9.58594C11.5404 9.58594 11.5419 9.58636 11.5435 9.58706L13.3844 10.4527L14.7867 11.0139C14.7878 11.0143 14.7888 11.0148 14.7897 11.0157L15.935 11.9632C15.9387 11.9663 15.94 11.9713 15.9384 11.9758L15.4487 13.3101C15.4481 13.3115 15.4473 13.3129 15.4462 13.314L14.5516 14.2383L13.6858 14.9953L13.1257 16.028C13.1237 16.0316 13.1198 16.0339 13.1156 16.0339V16.0338Z" fill="#F7DE61"/>
<path d="M12.969 16.0819C12.9663 16.0819 12.9636 16.0814 12.9609 16.0804C12.95 16.076 12.9449 16.0636 12.9493 16.0528L13.2702 15.2787C13.2708 15.2774 13.2713 15.2761 13.2722 15.275L13.9812 14.2147C13.982 14.2136 13.9828 14.2125 13.9838 14.2115C14.2796 13.9145 14.5958 13.5802 14.925 13.05L14.8927 11.896L14.0077 11.0419L12.6538 10.3439L11.491 9.66818C11.4809 9.66226 11.4775 9.64932 11.4833 9.63932C11.4893 9.62933 11.5023 9.62595 11.5124 9.63172L12.6744 10.307L14.0301 11.006C14.032 11.007 14.0337 11.0081 14.0351 11.0097L14.9287 11.8719C14.9327 11.8757 14.9349 11.8809 14.9351 11.8864L14.9676 13.0552C14.9676 13.0593 14.9666 13.0634 14.9645 13.0669C14.6323 13.6032 14.3135 13.9405 14.0155 14.2398L13.3087 15.2967L12.9886 16.0688C12.9852 16.077 12.9773 16.0819 12.9689 16.0819H12.969Z" fill="#F7DE61"/>
<path d="M12.959 16.0682C12.9576 16.0682 12.9561 16.068 12.9548 16.0674C12.9519 16.0663 12.9498 16.0642 12.9487 16.0613C12.9475 16.0585 12.9475 16.0554 12.9487 16.0527L13.2696 15.2786C13.2696 15.2786 13.2702 15.2773 13.2706 15.2768L13.9798 14.2164C13.9798 14.2164 13.9806 14.2151 13.9812 14.2147C14.2773 13.9174 14.5939 13.5828 14.9238 13.0515L14.9254 13.049L14.893 11.8881L14.0039 11.0302L12.6485 10.3313L11.4861 9.65588C11.4807 9.65278 11.4789 9.64588 11.482 9.6404C11.484 9.63702 11.4878 9.63477 11.4918 9.63477C11.4938 9.63477 11.4958 9.63533 11.4975 9.63631L12.6594 10.3116L14.0156 11.0109C14.0166 11.0115 14.0174 11.012 14.0183 11.0129L14.9119 11.8751C14.914 11.8772 14.9153 11.8799 14.9153 11.8828L14.9478 13.0518C14.9478 13.054 14.9472 13.0562 14.9461 13.058C14.6141 13.594 14.2959 13.9305 13.9985 14.2292L13.9978 14.2299L13.2899 15.2883L12.9694 16.0615C12.9677 16.0657 12.9636 16.0685 12.9589 16.0685L12.959 16.0682Z" fill="#F7DE61"/>
<path d="M12.7083 16.0915C12.7063 16.0915 12.7043 16.0912 12.7023 16.0906C12.6909 16.0874 12.6845 16.0757 12.6878 16.0644L12.9347 15.227C12.9351 15.2256 12.9357 15.2242 12.9364 15.2228L13.4842 14.2258C13.4842 14.2258 13.4849 14.2245 13.4854 14.2238L14.3007 13.0594L14.213 11.8864C13.8259 11.5631 13.3933 11.1497 13.2613 10.9771L12.0255 10.2402C12.0247 10.2396 12.0237 10.239 12.0229 10.2383L11.5351 9.83718C11.526 9.82972 11.5247 9.81635 11.5323 9.80748C11.5398 9.79847 11.5531 9.79721 11.5622 9.80467L12.0488 10.2048L13.287 10.9429C13.2895 10.9443 13.2914 10.9462 13.2932 10.9484C13.4212 11.1179 13.8583 11.5352 14.2475 11.8598C14.252 11.8634 14.2547 11.8686 14.2551 11.8744L14.3439 13.0638C14.3443 13.0686 14.3429 13.0733 14.3402 13.0774L13.5212 14.2471L12.9749 15.241L12.7287 16.0764C12.726 16.0856 12.7175 16.0916 12.7083 16.0916V16.0915Z" fill="#F7DE61"/>
<path d="M12.6984 16.0775C12.6972 16.0775 12.6963 16.0774 12.6953 16.0771C12.6923 16.0763 12.6899 16.0743 12.6884 16.0718C12.687 16.0691 12.6866 16.0661 12.6874 16.0632L12.9344 15.2257C12.9346 15.225 12.9349 15.2242 12.9352 15.2235L13.483 14.2265L14.301 13.0581L14.2128 11.8775L14.2095 11.8749C13.8254 11.5539 13.3902 11.1382 13.2594 10.9671L13.2583 10.9656L12.0206 10.2278C12.0206 10.2278 12.0196 10.2272 12.0192 10.2268L11.5315 9.82565C11.5266 9.82171 11.5259 9.81453 11.53 9.80975C11.5322 9.80721 11.5354 9.80566 11.5388 9.80566C11.5407 9.80566 11.5435 9.80609 11.5461 9.8082L12.0331 10.2089L13.2719 10.9474C13.2732 10.9481 13.2742 10.9491 13.2752 10.9504C13.4036 11.1203 13.8413 11.5385 14.2311 11.8634C14.2334 11.8654 14.235 11.8682 14.2351 11.8712L14.3239 13.0605C14.324 13.0631 14.3233 13.0657 14.3219 13.0677L13.5029 14.2374L12.9557 15.2332L12.7092 16.0695C12.7078 16.0743 12.7034 16.0777 12.6982 16.0777L12.6984 16.0775Z" fill="#F7DE61"/>
<path d="M12.3869 15.9816C12.3845 15.9816 12.382 15.9812 12.3796 15.9803C12.3685 15.9764 12.3629 15.9643 12.3668 15.9533L12.618 15.2636L13.0347 14.1725C13.035 14.1717 13.0354 14.1707 13.036 14.1698L13.626 13.0993L13.7052 11.935C13.3835 11.7311 13.0014 11.3806 12.6359 11.0315L11.5359 10.2207C11.5265 10.2138 11.5245 10.2005 11.5315 10.1911C11.5386 10.1818 11.5518 10.1798 11.5613 10.1867L12.6623 10.9984C12.663 10.999 12.6638 10.9996 12.6645 11.0001C13.0327 11.3517 13.4176 11.7049 13.7386 11.906C13.7453 11.9101 13.749 11.9175 13.7486 11.9253L13.6682 13.1066C13.668 13.1097 13.667 13.1127 13.6656 13.1153L13.074 14.1887L12.6579 15.2781L12.4069 15.9675C12.4038 15.9761 12.3955 15.9814 12.3869 15.9814V15.9816Z" fill="#F7DE61"/>
<path d="M12.3767 15.9677C12.3754 15.9677 12.3742 15.9674 12.3729 15.967C12.3671 15.9649 12.3639 15.9584 12.3661 15.9526L12.6172 15.263L13.0339 14.172C13.0339 14.172 13.0343 14.171 13.0346 14.1706L13.6256 13.0981L13.7055 11.9259L13.7005 11.9228C13.379 11.719 12.9973 11.3688 12.6327 11.0206L11.5319 10.2087C11.5295 10.2069 11.5279 10.2044 11.5275 10.2013C11.527 10.1983 11.5277 10.1954 11.5296 10.193C11.5317 10.1902 11.5351 10.1885 11.5387 10.1885C11.5411 10.1885 11.5435 10.1892 11.5455 10.1907L12.6465 11.0024C12.6465 11.0024 12.6472 11.003 12.6476 11.0034C13.0162 11.3554 13.4016 11.709 13.7234 11.9104C13.7269 11.9127 13.7289 11.9166 13.7286 11.9207L13.6482 13.102C13.6482 13.1036 13.6476 13.1053 13.6468 13.1067L13.0552 14.18L12.6386 15.2707L12.3875 15.9602C12.386 15.9647 12.3816 15.9677 12.3769 15.9677H12.3767Z" fill="#F7DE61"/>
<path d="M11.9543 16.0443C11.952 16.0443 11.9497 16.0439 11.9474 16.0432C11.9362 16.0395 11.9302 16.0276 11.9341 16.0164L12.2182 15.179C12.2345 15.1328 12.2502 15.0882 12.2654 15.0447C12.3807 14.7145 12.4719 14.4536 12.6532 14.169C12.7163 14.0416 12.7774 13.928 12.8312 13.8278C12.9974 13.5185 13.1074 13.3139 13.0703 13.103C12.9126 12.669 12.9113 12.4197 13.0665 12.0024L12.1887 11.0517L11.2316 10.3752C11.222 10.3684 11.2198 10.3552 11.2266 10.3457C11.2334 10.3363 11.2468 10.3341 11.2563 10.3408L12.2152 11.0187C12.2165 11.0195 12.2175 11.0205 12.2186 11.0216L13.1065 11.9834C13.1119 11.9893 13.1136 11.9976 13.1108 12.0051C12.9532 12.4241 12.9534 12.6573 13.1108 13.0905C13.1112 13.0916 13.1115 13.0928 13.1118 13.094C13.1524 13.3198 13.0396 13.5298 12.8687 13.8478C12.8149 13.948 12.7538 14.0616 12.6909 14.1887C12.6906 14.1894 12.6901 14.1899 12.6897 14.1906C12.5107 14.4714 12.4202 14.7305 12.3056 15.0585C12.2904 15.102 12.2747 15.1466 12.2586 15.1926L11.9746 16.0298C11.9716 16.0387 11.9633 16.0442 11.9544 16.0442L11.9543 16.0443Z" fill="#F7DE61"/>
<path d="M11.9443 16.0306C11.943 16.0306 11.9419 16.0305 11.9406 16.0301C11.9346 16.0281 11.9315 16.0218 11.9335 16.0159L12.2176 15.1784C12.2334 15.1336 12.2486 15.0903 12.2633 15.0481L12.2646 15.0443C12.3798 14.7146 12.4708 14.4542 12.6515 14.1706C12.7151 14.0425 12.7761 13.9291 12.8298 13.8289C12.9971 13.5175 13.1076 13.3119 13.0699 13.0977V13.0968L13.0694 13.096C12.9122 12.6628 12.9112 12.4173 13.0656 12.0021L13.0677 11.9965L12.1854 11.0406L11.2274 10.3633C11.2223 10.3597 11.2212 10.3526 11.2247 10.3476C11.2268 10.3446 11.2303 10.3428 11.2339 10.3428C11.2364 10.3428 11.2386 10.3435 11.2405 10.3449L12.1996 11.0229C12.1996 11.0229 12.2008 11.0239 12.2014 11.0244L13.0893 11.9862C13.0922 11.9893 13.093 11.9938 13.0916 11.9977C12.933 12.4194 12.9332 12.6542 13.0916 13.0899C13.0919 13.0905 13.092 13.0912 13.092 13.0918C13.1321 13.3142 13.0198 13.523 12.8499 13.8392C12.7961 13.9394 12.735 14.0531 12.6719 14.1803C12.4916 14.4631 12.401 14.7228 12.2862 15.0513L12.2854 15.0538C12.2705 15.0965 12.2551 15.1403 12.2392 15.1853L11.9551 16.0226C11.9535 16.0273 11.9492 16.0302 11.9443 16.0302V16.0306Z" fill="#F7DE61"/>
<path d="M11.7911 15.9746C11.79 15.9746 11.7887 15.9746 11.7876 15.9743C11.7759 15.9724 11.7681 15.9615 11.7701 15.95L11.8979 15.1899C11.8979 15.1892 11.8982 15.1884 11.8984 15.1877L12.1896 14.1532L12.5472 13.0954L12.4874 12.0738C12.4474 11.9045 12.2677 11.729 12.0596 11.5258C11.9482 11.417 11.833 11.3045 11.7285 11.182L10.8937 10.4303C10.885 10.4224 10.8843 10.409 10.8923 10.4005C10.9002 10.3919 10.9137 10.3912 10.9224 10.3991L11.758 11.1519C11.758 11.1519 11.7593 11.1532 11.76 11.1539C11.8636 11.2752 11.9785 11.3874 12.0894 11.4958C12.303 11.7042 12.4874 11.8844 12.5293 12.0662C12.5296 12.0674 12.5297 12.0685 12.5298 12.0698L12.5901 13.0972C12.5902 13.0999 12.5899 13.1026 12.5889 13.1051L12.2304 14.1657L11.9397 15.1981L11.812 15.957C11.8103 15.9673 11.8012 15.9746 11.791 15.9746H11.7911Z" fill="#F7DE61"/>
<path d="M11.7813 15.9605C11.7813 15.9605 11.78 15.9605 11.7793 15.9603C11.7763 15.9598 11.7738 15.9582 11.7719 15.9558C11.7702 15.9534 11.7695 15.9505 11.7699 15.9474L11.8978 15.1873L12.1893 14.1517L12.5473 13.0927L12.4874 12.0683V12.0674C12.4466 11.8953 12.2659 11.719 12.0568 11.5146C11.9455 11.4059 11.8305 11.2936 11.7262 11.1716L10.8904 10.419C10.8882 10.417 10.8869 10.4142 10.8867 10.4112C10.8866 10.4083 10.8876 10.4053 10.8897 10.4031C10.8918 10.4007 10.8948 10.3994 10.8981 10.3994C10.9009 10.3994 10.9036 10.4004 10.9058 10.4024L11.7415 11.155C11.7415 11.155 11.7422 11.1557 11.7425 11.1561C11.8464 11.2777 11.9613 11.39 12.0725 11.4985C12.2851 11.706 12.4686 11.8852 12.5097 12.0642C12.5098 12.0648 12.51 12.0655 12.51 12.066L12.5702 13.0935C12.5702 13.0949 12.5702 13.0963 12.5696 13.0977L12.2112 14.1583L11.9204 15.1911L11.7925 15.951C11.7917 15.9565 11.7869 15.9605 11.7813 15.9605Z" fill="#F7DE61"/>
<g style="mix-blend-mode:overlay" filter="url(#filter1_di_1_257453)">
<path d="M11.641 15.2073C11.6395 15.2073 11.6379 15.2072 11.6362 15.2068C11.6247 15.2042 11.6176 15.1928 11.6201 15.1814L11.8541 14.1701C11.8557 14.0834 11.8473 14.0197 11.8391 13.9581C11.8158 13.7836 11.7974 13.6458 12.0516 13.1453C12.1482 12.6739 12.1013 12.3865 12.0002 12.1026C11.7126 11.9444 11.5643 11.7709 11.3185 11.4417C11.3116 11.4322 11.3136 11.4191 11.3229 11.4121C11.3323 11.4052 11.3457 11.4072 11.3528 11.4165C11.6024 11.7509 11.7417 11.9137 12.0277 12.0695C12.0323 12.0721 12.0358 12.0762 12.0375 12.0809C12.1432 12.3746 12.1929 12.6697 12.0928 13.1566C12.0924 13.1584 12.0918 13.1602 12.0909 13.1619C11.8413 13.6527 11.8581 13.7785 11.8814 13.9528C11.8895 14.0135 11.8986 14.0823 11.8967 14.1734C11.8967 14.1748 11.8966 14.1763 11.8962 14.1776L11.6618 15.1908C11.6595 15.2006 11.6507 15.2073 11.641 15.2073ZM13.1799 16.0337L13.7392 15.0025L14.6029 14.2473C14.6029 14.2473 14.6038 14.2464 14.6042 14.246L15.4988 13.3217C15.5008 13.3196 15.5025 13.317 15.5035 13.3142L15.9932 11.9799C15.9963 11.9716 15.9938 11.9622 15.9868 11.9565L14.8415 11.009C14.8398 11.0076 14.8379 11.0064 14.8358 11.0056L13.434 10.4447L11.5933 9.57923C11.5826 9.57416 11.57 9.57867 11.5649 9.58922C11.5598 9.59978 11.5643 9.61231 11.575 9.61737L13.417 10.4836L14.8168 11.0437L15.948 11.9796L15.465 13.2958L14.5741 14.2161L13.7082 14.9732C13.7064 14.9749 13.7048 14.9769 13.7035 14.9792L13.1424 16.0137C13.1368 16.024 13.1407 16.0368 13.151 16.0423C13.1543 16.0439 13.1577 16.0448 13.1611 16.0448C13.1686 16.0448 13.176 16.0407 13.1799 16.0337ZM13.0102 16.0739L13.3303 15.3018L14.0371 14.2449C14.3351 13.9455 14.6539 13.6082 14.9861 13.072C14.9882 13.0685 14.9894 13.0645 14.9892 13.0603L14.9567 11.8915C14.9565 11.886 14.9543 11.8808 14.9503 11.877L14.0567 11.0148C14.0553 11.0133 14.0536 11.0121 14.0517 11.0111L12.696 10.3121L11.5342 9.6368C11.5241 9.63089 11.511 9.63426 11.5051 9.6444C11.4991 9.65439 11.5025 9.66734 11.5127 9.67325L12.6754 10.349L14.0293 11.047L14.9143 11.9011L14.9466 13.0551C14.6174 13.5853 14.3012 13.9196 14.0054 14.2166C14.0044 14.2176 14.0036 14.2185 14.0029 14.2198L13.2938 15.2801C13.2931 15.2812 13.2924 15.2825 13.2918 15.2837L12.9709 16.0579C12.9665 16.0687 12.9716 16.081 12.9825 16.0855C12.9852 16.0866 12.9879 16.087 12.9906 16.087C12.999 16.087 13.007 16.0821 13.0104 16.0739H13.0102ZM12.7642 16.0718L13.0104 15.2365L13.5566 14.2425L14.3756 13.0728C14.3785 13.0689 14.3798 13.0641 14.3793 13.0592L14.2905 11.8698C14.2901 11.8642 14.2874 11.8588 14.283 11.8552C13.8938 11.5306 13.4566 11.1133 13.3286 10.9438C13.3269 10.9416 13.3249 10.9397 13.3225 10.9383L12.0843 10.2004L11.5978 9.80035C11.5887 9.79289 11.5754 9.79416 11.5679 9.80317C11.5603 9.81217 11.5616 9.82541 11.5707 9.83286L12.0583 10.2339C12.0591 10.2346 12.06 10.2351 12.0608 10.2357L13.2969 10.9725C13.4289 11.1451 13.8615 11.5585 14.2486 11.8818L14.3363 13.0548L13.521 14.2192C13.521 14.2192 13.5201 14.2205 13.5198 14.2212L12.972 15.2182C12.9713 15.2194 12.9708 15.2208 12.9703 15.2224L12.7234 16.0598C12.7201 16.0711 12.7265 16.0828 12.7379 16.086C12.7399 16.0866 12.7419 16.0869 12.7439 16.0869C12.7531 16.0869 12.7616 16.081 12.7643 16.0717L12.7642 16.0718ZM12.4424 15.9605L12.6934 15.2711L13.1095 14.1817L13.7011 13.1083C13.7025 13.1056 13.7035 13.1027 13.7037 13.0996L13.7841 11.9182C13.7846 11.9105 13.7808 11.9032 13.7741 11.899C13.4531 11.698 13.0681 11.3448 12.7 10.9931C12.6993 10.9925 12.6987 10.9918 12.6978 10.9914L11.597 10.1797C11.5876 10.1728 11.5742 10.1746 11.5671 10.184C11.5602 10.1933 11.562 10.2066 11.5715 10.2136L12.6714 11.0246C13.0368 11.3737 13.419 11.7241 13.7407 11.9281L13.6615 13.0924L13.0715 14.1629C13.071 14.1638 13.0706 14.1646 13.0702 14.1656L12.6535 15.2567L12.4023 15.9464C12.3984 15.9574 12.4041 15.9695 12.4151 15.9734C12.4175 15.9743 12.42 15.9747 12.4224 15.9747C12.431 15.9747 12.4393 15.9693 12.4424 15.9608V15.9605ZM11.9737 16.0304L12.2577 15.1932C12.2741 15.1472 12.2895 15.1026 12.3047 15.0591C12.4194 14.7312 12.5099 14.472 12.6889 14.1912C12.6893 14.1907 12.6896 14.19 12.69 14.1893C12.7531 14.062 12.8141 13.9486 12.8679 13.8484C13.0388 13.5304 13.1516 13.3204 13.111 13.0946C13.1108 13.0935 13.1104 13.0922 13.11 13.0911C12.9524 12.6579 12.9524 12.4245 13.11 12.0056C13.1128 11.9982 13.1111 11.9899 13.1057 11.984L12.2179 11.0221C12.217 11.0209 12.2158 11.02 12.2145 11.0191L11.2556 10.3413C11.2459 10.3345 11.2327 10.3368 11.2259 10.3462C11.2191 10.3556 11.2214 10.3688 11.2309 10.3756L12.188 11.0522L13.0657 12.0028C12.9105 12.4202 12.9118 12.6694 13.0695 13.1035C13.1066 13.3143 12.9966 13.519 12.8304 13.8282C12.7765 13.9284 12.7155 14.042 12.6524 14.1694C12.4711 14.454 12.38 14.7148 12.2645 15.0452C12.2493 15.0887 12.2337 15.1331 12.2174 15.1794L11.9332 16.0169C11.9296 16.028 11.9355 16.04 11.9466 16.0437C11.9489 16.0444 11.9511 16.0448 11.9534 16.0448C11.9624 16.0448 11.9706 16.0392 11.9736 16.0304H11.9737ZM11.8396 15.9568L11.9673 15.1979L12.258 14.1655L12.6166 13.1049C12.6174 13.1024 12.6179 13.0997 12.6177 13.097L12.5575 12.0695C12.5575 12.0684 12.5572 12.0672 12.5569 12.066C12.5151 11.8842 12.3306 11.704 12.1171 11.4956C12.006 11.3872 11.8912 11.275 11.7876 11.1537C11.7871 11.153 11.7864 11.1523 11.7856 11.1517L10.9497 10.3991C10.9411 10.3912 10.9276 10.3919 10.9196 10.4005C10.9117 10.4091 10.9124 10.4225 10.921 10.4304L11.7558 11.1821C11.8604 11.3046 11.9756 11.417 12.087 11.5258C12.2951 11.7289 12.4748 11.9046 12.5147 12.0739L12.5745 13.0955L12.217 14.1532L11.9257 15.1878C11.9256 15.1885 11.9253 15.1892 11.9253 15.19L11.7974 15.9501C11.7954 15.9616 11.8034 15.9724 11.8149 15.9744C11.816 15.9746 11.8173 15.9747 11.8185 15.9747C11.8287 15.9747 11.8378 15.9674 11.8395 15.9571L11.8396 15.9568Z" fill="url(#paint1_linear_1_257453)" style="mix-blend-mode:overlay" shape-rendering="crispEdges"/>
</g>
<path d="M13.6616 16.2252C13.6571 16.2252 13.6525 16.2241 13.6481 16.2218C13.6344 16.2145 13.6291 16.1973 13.6366 16.1837L14.0857 15.3569C14.0863 15.3559 14.0868 15.355 14.0875 15.354L14.6361 14.5903C14.6366 14.5895 14.6372 14.5887 14.6378 14.588L15.6199 13.4748C15.9181 12.9577 15.9823 12.658 15.9053 12.1434C15.6747 11.6249 15.3008 11.3417 14.7288 11.2525C14.7263 11.252 14.7237 11.2513 14.7214 11.2502L13.3036 10.6067C13.3036 10.6067 13.3028 10.6063 13.3024 10.606L11.3825 9.6137C11.3686 9.60652 11.3632 9.58949 11.3704 9.5757C11.3777 9.56191 11.3948 9.55656 11.4088 9.56374L13.3279 10.5558L14.7416 11.1974C15.3336 11.2909 15.7206 11.5855 15.959 12.1243C15.96 12.1265 15.9607 12.1289 15.9611 12.1315C16.0404 12.6577 15.9719 12.9788 15.6679 13.5053C15.6669 13.507 15.6659 13.5084 15.6646 13.5098L14.6817 14.6242L14.135 15.3854L13.6868 16.2106C13.6817 16.22 13.6719 16.2254 13.6618 16.2254L13.6616 16.2252Z" fill="#F7DE61"/>
<path d="M13.6473 16.197C13.6449 16.197 13.6427 16.1964 13.6406 16.1953C13.6372 16.1935 13.6348 16.1905 13.6337 16.187C13.6325 16.1833 13.6329 16.1795 13.6348 16.1763L14.0839 15.3495C14.0839 15.3495 14.0844 15.3485 14.0847 15.3481L14.6332 14.5844L14.6341 14.5833L15.617 13.4689L15.6177 13.4677C15.9181 12.9467 15.9826 12.646 15.9049 12.1271L15.9046 12.1253L15.9039 12.1236C15.6712 11.6003 15.294 11.3146 14.7166 11.2245C14.7153 11.2244 14.7141 11.2239 14.7129 11.2234L13.2951 10.5799L11.3748 9.58715C11.3678 9.58363 11.3651 9.57504 11.3688 9.56815C11.3713 9.5635 11.3761 9.56055 11.3815 9.56055C11.3838 9.56055 11.386 9.56111 11.388 9.5621L13.307 10.5541L14.7232 11.1968L14.7251 11.1971C15.312 11.2897 15.6954 11.5816 15.9317 12.1156C15.9323 12.1167 15.9326 12.118 15.9327 12.1191C16.0114 12.6417 15.9434 12.9605 15.6412 13.4839C15.6408 13.4847 15.6402 13.4854 15.6395 13.4862L14.6565 14.6004L14.1086 15.3634L13.6599 16.1895C13.6575 16.194 13.6527 16.197 13.6474 16.197H13.6473Z" fill="#F7DE61"/>
<path d="M13.5112 16.2333C13.5068 16.2333 13.5022 16.2323 13.4979 16.2301C13.484 16.2227 13.4788 16.2057 13.4862 16.1921L13.9106 15.3967C13.9112 15.3956 13.9118 15.3946 13.9125 15.3936L14.9364 13.9536C15.1742 13.3921 15.1862 12.9814 15.197 12.6191L15.198 12.5852C15.0391 12.2643 14.6474 11.9211 14.122 11.6427L12.6515 10.8532L11.203 10.1216C11.1891 10.1146 11.1834 10.0975 11.1907 10.0837C11.1978 10.0699 11.2148 10.0643 11.2289 10.0715L12.6779 10.8034L14.1489 11.5932C14.6879 11.8787 15.0901 12.2337 15.2522 12.5669C15.2542 12.571 15.2552 12.5755 15.255 12.58L15.2539 12.6208C15.2431 12.9887 15.2307 13.4056 14.9876 13.9783C14.9868 13.9802 14.9858 13.982 14.9847 13.9837L13.9601 15.4248L13.5363 16.2187C13.5312 16.2282 13.5214 16.2337 13.5112 16.2337V16.2333Z" fill="#F7DE61"/>
<path d="M13.4969 16.2051C13.4946 16.2051 13.4923 16.2046 13.4904 16.2034C13.4869 16.2017 13.4845 16.1988 13.4834 16.1951C13.4823 16.1915 13.4827 16.1877 13.4844 16.1844L13.9089 15.389C13.9089 15.389 13.9094 15.3879 13.9099 15.3875L14.9347 13.9462L14.9353 13.9448C15.1741 13.3809 15.1863 12.9688 15.197 12.6053L15.1981 12.5678L15.1966 12.5647C15.0363 12.2413 14.6419 11.8955 14.1144 11.6161L12.6441 10.8266L11.1953 10.095C11.1919 10.0933 11.1895 10.0903 11.1882 10.0868C11.187 10.0833 11.1873 10.0795 11.189 10.0761C11.1914 10.0713 11.1963 10.0684 11.2017 10.0684C11.204 10.0684 11.2061 10.0689 11.2081 10.0699L12.6571 10.8018L14.1278 11.5913C14.6644 11.8756 15.0643 12.2282 15.2251 12.5587C15.2261 12.5606 15.2265 12.5629 15.2265 12.5651L15.2254 12.606C15.2146 12.9726 15.2024 13.3883 14.9603 13.9584C14.9599 13.9594 14.9595 13.9603 14.9589 13.9611L13.9337 15.403L13.5097 16.1975C13.5073 16.2022 13.5024 16.205 13.497 16.205L13.4969 16.2051Z" fill="#F7DE61"/>
<path d="M13.3288 16.2857C13.3245 16.2857 13.3202 16.2847 13.3161 16.2827C13.3021 16.2758 13.2964 16.2589 13.3033 16.245C13.5436 15.7679 13.6238 15.5676 13.677 15.435C13.7663 15.212 13.7737 15.1933 14.3099 14.4259C14.4292 13.8691 14.5767 13.1789 14.5201 12.9935C14.5198 12.9925 14.5195 12.9915 14.5194 12.9906C14.4995 12.8847 14.252 12.6713 13.9899 12.4454C13.7993 12.2812 13.6022 12.1113 13.4444 11.9449L11.9774 11.0507L10.9176 10.5024C10.9037 10.4952 10.8983 10.4782 10.9056 10.4644C10.9128 10.4506 10.93 10.4452 10.9439 10.4524L12.0046 11.0013C12.0046 11.0013 12.0057 11.0019 12.0063 11.0023L13.4775 11.8989C13.4796 11.9002 13.4816 11.9019 13.4833 11.9037C13.6396 12.0688 13.8368 12.2387 14.0273 12.4029C14.3191 12.6545 14.5498 12.8533 14.575 12.9786C14.6305 13.1651 14.5176 13.7275 14.3643 14.4431C14.3634 14.4468 14.362 14.4501 14.3599 14.4532C13.8241 15.2199 13.817 15.2378 13.7298 15.4557C13.6764 15.5891 13.5956 15.7908 13.3542 16.2701C13.3492 16.2799 13.3391 16.2857 13.3288 16.2857Z" fill="#F7DE61"/>
<path d="M13.3146 16.2576C13.3123 16.2576 13.3101 16.257 13.3082 16.256C13.3048 16.2543 13.3022 16.2515 13.3011 16.2479C13.2999 16.2443 13.3001 16.2405 13.3018 16.2372C13.5423 15.7596 13.6227 15.5589 13.6758 15.426C13.7648 15.2039 13.772 15.1858 14.3073 14.4197L14.3089 14.4173L14.3094 14.4144C14.4288 13.8575 14.5772 13.1644 14.5194 12.975C14.5194 12.9746 14.5191 12.974 14.519 12.9734C14.4981 12.8627 14.2603 12.6577 13.985 12.4203C13.7946 12.2562 13.5978 12.0866 13.4404 11.9208L13.4391 11.9194L11.9706 11.0247L10.91 10.4758C10.903 10.4722 10.9003 10.4637 10.904 10.4568C10.9064 10.4522 10.9112 10.4492 10.9166 10.4492C10.9189 10.4492 10.9212 10.4498 10.9232 10.4508L11.9838 10.9998L13.4559 11.8968C13.457 11.8975 13.4579 11.8982 13.4587 11.8992C13.6154 12.0648 13.8128 12.2349 14.0037 12.3993C14.2938 12.6493 14.5227 12.8466 14.547 12.9672C14.6018 13.1518 14.4891 13.7124 14.3363 14.426C14.3359 14.4278 14.3351 14.4295 14.334 14.4311C13.7974 15.1991 13.7902 15.217 13.7024 15.4363C13.649 15.5696 13.5683 15.771 13.3273 16.2497C13.3249 16.2545 13.3201 16.2574 13.3146 16.2574V16.2576Z" fill="#F7DE61"/>
<path d="M13.1809 16.2809C13.1799 16.2809 13.1789 16.2809 13.1779 16.2808C13.1623 16.2791 13.151 16.2653 13.1527 16.2498C13.2048 15.7558 13.3241 15.4774 13.5891 15.0052C13.6066 14.8702 13.6317 14.7308 13.6559 14.5961C13.7204 14.2375 13.787 13.8666 13.733 13.4935C13.596 13.1668 13.2713 12.8268 12.7111 12.4238C12.1967 12.1841 11.9323 11.9261 11.5667 11.5693C11.5058 11.5101 11.4431 11.4488 11.3759 11.3844C11.3646 11.3735 11.3642 11.3558 11.3751 11.3445C11.3861 11.3334 11.404 11.333 11.4154 11.3438C11.4828 11.4084 11.5458 11.4698 11.6066 11.5292C11.9688 11.8826 12.2305 12.1381 12.7377 12.374C12.7393 12.3747 12.7408 12.3757 12.7422 12.3767C13.3143 12.7881 13.6462 13.1371 13.7867 13.4754C13.7875 13.4775 13.7883 13.4797 13.7885 13.482C13.8448 13.8654 13.777 14.2419 13.7117 14.6061C13.6861 14.7483 13.662 14.8826 13.6446 15.0178C13.6442 15.0214 13.6431 15.0249 13.6412 15.028C13.3784 15.496 13.2602 15.77 13.2091 16.2559C13.2075 16.2704 13.1951 16.2811 13.1808 16.2811L13.1809 16.2809Z" fill="#F7DE61"/>
<path d="M13.1652 16.2528C13.1575 16.2519 13.1518 16.245 13.1527 16.2373C13.2047 15.7447 13.3234 15.4685 13.5874 14.9981L13.5887 14.9957L13.5889 14.9931C13.6064 14.8585 13.6314 14.7193 13.6556 14.5849C13.7203 14.225 13.7871 13.853 13.7328 13.4776L13.7326 13.4759L13.7319 13.4742C13.5939 13.145 13.2677 12.8033 12.7053 12.3985L12.7042 12.3976L12.7029 12.3971C12.1906 12.1583 11.9271 11.9012 11.5624 11.5452C11.5017 11.486 11.4389 11.4248 11.3714 11.3601C11.3688 11.3575 11.3672 11.3541 11.3672 11.3503C11.3672 11.3465 11.3685 11.343 11.3712 11.3403C11.3739 11.3375 11.3776 11.3359 11.3814 11.3359C11.3852 11.3359 11.3886 11.3373 11.3912 11.3399C11.4581 11.4039 11.5205 11.4647 11.5809 11.5237L11.5824 11.5252C11.9457 11.8797 12.2081 12.1358 12.7175 12.3727C12.7184 12.3731 12.7191 12.3736 12.7198 12.3741C13.2896 12.784 13.62 13.1311 13.7594 13.4668C13.7598 13.4679 13.7601 13.469 13.7603 13.4701C13.8162 13.8512 13.7488 14.2267 13.6834 14.5897C13.6578 14.7322 13.6337 14.8665 13.6162 15.0021C13.6159 15.0039 13.6154 15.0056 13.6145 15.0071C13.3507 15.4768 13.2321 15.752 13.1805 16.2404C13.1798 16.2476 13.1737 16.2531 13.1664 16.2531C13.1659 16.2531 13.1653 16.2531 13.1649 16.2531L13.1652 16.2528Z" fill="#F7DE61"/>
<path d="M12.8447 16.2889C12.8438 16.2889 12.8431 16.2889 12.8423 16.2889C12.8267 16.2876 12.815 16.274 12.8164 16.2585L12.8733 15.5923C12.8733 15.591 12.8735 15.5898 12.8738 15.5886C13.0282 14.899 13.0479 14.55 12.9602 14.0409L11.9055 12.9463L11.1298 12.2087C11.1185 12.198 11.1182 12.1801 11.129 12.1688C11.1398 12.1576 11.1578 12.1573 11.1692 12.168L11.9457 12.9065L13.0074 14.008C13.0112 14.0121 13.0139 14.0172 13.0148 14.0226C13.1054 14.5444 13.0864 14.8981 12.9297 15.5986L12.873 16.263C12.8717 16.2776 12.8593 16.2887 12.8447 16.2887V16.2889Z" fill="#F7DE61"/>
<path d="M12.8294 16.2606C12.8216 16.2599 12.8158 16.2532 12.8165 16.2454L12.8733 15.5793C12.8733 15.5793 12.8735 15.578 12.8736 15.5774C13.0287 14.8841 13.0482 14.5357 12.9601 14.0244L12.9594 14.0202L11.9017 12.9225L11.1255 12.1844C11.1228 12.1818 11.1212 12.1783 11.1211 12.1745C11.1211 12.1707 11.1224 12.1672 11.1251 12.1645C11.1278 12.1617 11.1315 12.1602 11.1353 12.1602C11.139 12.1602 11.1424 12.1616 11.1451 12.1641L11.9218 12.9026L12.983 14.0037C12.985 14.0057 12.9863 14.0082 12.9867 14.011C13.077 14.5308 13.058 14.8831 12.9017 15.5817V15.5826L12.8448 16.248C12.8442 16.2552 12.8379 16.2609 12.8307 16.2609H12.8294V16.2606Z" fill="#F7DE61"/>
<path d="M12.1106 16.0535C12.0954 16.0535 12.0829 16.0417 12.0822 16.0265L12.0258 14.6377L11.3736 13.8428C11.3636 13.8307 11.3655 13.8129 11.3777 13.8032C11.3899 13.7934 11.4078 13.7952 11.4176 13.8073L12.0758 14.6096C12.0796 14.6142 12.0819 14.6201 12.0822 14.6262L12.139 16.0243C12.1396 16.0397 12.1275 16.0528 12.1118 16.0535C12.1113 16.0535 12.111 16.0535 12.1106 16.0535Z" fill="#F7DE61"/>
<path d="M12.0965 16.0252C12.0888 16.0252 12.0826 16.0193 12.0823 16.0117L12.0256 14.6183L11.3704 13.8197C11.368 13.8167 11.3668 13.8131 11.3673 13.8094C11.3677 13.8056 11.3695 13.8024 11.3724 13.8C11.3757 13.7973 11.3791 13.7969 11.3813 13.7969C11.3856 13.7969 11.3897 13.7987 11.3924 13.8021L12.0506 14.6044C12.0526 14.6068 12.0536 14.6097 12.0537 14.6127L12.1106 16.0107C12.1107 16.0145 12.1094 16.0181 12.1069 16.0209C12.1043 16.0237 12.1008 16.0252 12.0971 16.0254H12.0965V16.0252Z" fill="#F7DE61"/>
<g style="mix-blend-mode:overlay" filter="url(#filter2_di_1_257453)">
<path d="M13.6789 16.2311C13.6743 16.2311 13.6698 16.2299 13.6654 16.2277C13.6516 16.2204 13.6464 16.2032 13.6539 16.1896L14.103 15.3628C14.1035 15.3618 14.1041 15.3608 14.1048 15.3598L14.6533 14.5961C14.6539 14.5954 14.6545 14.5946 14.655 14.5939L15.6371 13.4807C15.9353 12.9635 15.9995 12.6639 15.9225 12.1493C15.692 11.6308 15.318 11.3476 14.7461 11.2583C14.7435 11.2579 14.741 11.2572 14.7387 11.2561L13.3209 10.6126C13.3209 10.6126 13.32 10.6121 13.3196 10.6119L11.3997 9.61956C11.3858 9.61238 11.3804 9.59535 11.3877 9.58156C11.3949 9.56776 11.4121 9.56242 11.426 9.56959L13.3452 10.5616L14.7589 11.2033C15.3509 11.2968 15.7378 11.5913 15.9762 12.1301C15.9772 12.1324 15.9779 12.1348 15.9784 12.1373C16.0576 12.6636 15.9892 12.9846 15.6851 13.5112C15.6841 13.5129 15.6831 13.5143 15.6819 13.5157L14.6989 14.63L14.1523 15.3912L13.704 16.2164C13.6989 16.2259 13.6891 16.2312 13.679 16.2312L13.6789 16.2311ZM13.5628 16.216L13.9866 15.4222L15.0112 13.981C15.0123 13.9793 15.0133 13.9776 15.0142 13.9757C15.2572 13.4031 15.2696 12.9861 15.2804 12.6181L15.2815 12.5773C15.2815 12.5728 15.2807 12.5683 15.2787 12.5642C15.1166 12.2311 14.7144 11.8761 14.1754 11.5905L12.7045 10.8007L11.2554 10.0693C11.2415 10.0622 11.2243 10.0677 11.2172 10.0815C11.2101 10.0953 11.2156 10.1123 11.2295 10.1194L12.678 10.851L14.1486 11.6405C14.6739 11.9189 15.0656 12.262 15.2246 12.5829L15.2236 12.6169C15.2129 12.9793 15.2007 13.3899 14.9629 13.9513L13.939 15.3914C13.9383 15.3923 13.9377 15.3933 13.9372 15.3944L13.5127 16.1898C13.5053 16.2036 13.5107 16.2207 13.5245 16.2278C13.5287 16.2301 13.5333 16.2311 13.5377 16.2311C13.5479 16.2311 13.5577 16.2256 13.5628 16.216ZM13.3581 16.2764C13.5995 15.7971 13.6802 15.5954 13.7337 15.462C13.8211 15.2441 13.8282 15.2263 14.3638 14.4596C14.3659 14.4565 14.3675 14.4531 14.3682 14.4494C14.5215 13.7339 14.6344 13.1714 14.5789 12.9849C14.5537 12.8597 14.323 12.6608 14.0312 12.4093C13.8406 12.245 13.6435 12.0751 13.4872 11.91C13.4855 11.9082 13.4836 11.9066 13.4814 11.9052L12.0103 11.0086C12.0103 11.0086 12.0092 11.0079 12.0086 11.0077L10.9478 10.4587C10.9339 10.4515 10.9167 10.4569 10.9095 10.4707C10.9022 10.4845 10.9076 10.5015 10.9215 10.5087L11.9814 11.0571L13.4485 11.9511C13.6063 12.1173 13.8033 12.2872 13.994 12.4516C14.256 12.6775 14.5036 12.8908 14.5235 12.9968C14.5236 12.9977 14.5239 12.9987 14.5242 12.9997C14.5807 13.1849 14.4333 13.8752 14.3139 14.4321C13.7778 15.1995 13.7702 15.2182 13.681 15.4412C13.6279 15.5738 13.5476 15.7742 13.3074 16.2512C13.3004 16.2651 13.3061 16.282 13.3202 16.2889C13.3243 16.2909 13.3286 16.2919 13.3328 16.2919C13.3432 16.2919 13.3533 16.2861 13.3582 16.2763L13.3581 16.2764ZM13.2264 16.2668C13.2777 15.781 13.3958 15.5069 13.6586 15.0389C13.6603 15.0358 13.6614 15.0323 13.662 15.0288C13.6793 14.8935 13.7035 14.7592 13.729 14.6171C13.7945 14.2528 13.8622 13.8763 13.8059 13.4929C13.8056 13.4906 13.8049 13.4884 13.8041 13.4863C13.6635 13.1482 13.3317 12.7991 12.7596 12.3876C12.7582 12.3866 12.7566 12.3856 12.755 12.3849C12.2479 12.149 11.986 11.8937 11.6239 11.5401C11.5631 11.4807 11.5002 11.4193 11.4327 11.3547C11.4215 11.3439 11.4034 11.3442 11.3925 11.3554C11.3816 11.3666 11.3818 11.3844 11.3932 11.3953C11.4605 11.4597 11.5233 11.521 11.584 11.5802C11.9497 11.937 12.2141 12.195 12.7285 12.4347C13.2885 12.8378 13.6134 13.1779 13.7504 13.5044C13.8043 13.8776 13.7377 14.2485 13.6732 14.6071C13.6489 14.7419 13.6239 14.8811 13.6064 15.0161C13.3415 15.4883 13.2222 15.7667 13.17 16.2608C13.1685 16.2763 13.1797 16.2901 13.1953 16.2917C13.1963 16.2917 13.1973 16.2919 13.1983 16.2919C13.2126 16.2919 13.225 16.2812 13.2266 16.2667L13.2264 16.2668ZM12.8761 16.2663L12.9328 15.6019C13.0895 14.9013 13.1085 14.5475 13.0179 14.0259C13.0169 14.0204 13.0143 14.0154 13.0105 14.0113L11.9488 12.9096L11.1721 12.1711C11.1608 12.1603 11.1429 12.1607 11.1319 12.1719C11.121 12.1832 11.1214 12.2009 11.1328 12.2118L11.9086 12.9495L12.9633 14.0439C13.051 14.553 13.0312 14.902 12.8769 15.5916C12.8766 15.5929 12.8765 15.594 12.8764 15.5953L12.8195 16.2615C12.8183 16.277 12.8298 16.2906 12.8454 16.2919C12.8462 16.2919 12.847 16.2919 12.8478 16.2919C12.8624 16.2919 12.8748 16.2808 12.8761 16.2661V16.2663ZM12.1291 16.0481C12.1447 16.0475 12.1569 16.0344 12.1564 16.0188L12.0996 14.6207C12.0993 14.6147 12.0971 14.6088 12.0932 14.6041L11.435 13.8018C11.425 13.7897 11.4071 13.7879 11.395 13.7978C11.3828 13.8076 11.381 13.8254 11.3909 13.8373L12.0432 14.6323L12.0996 16.0211C12.1001 16.0363 12.1128 16.0481 12.128 16.0481C12.1284 16.0481 12.1287 16.0481 12.1291 16.0481Z" fill="url(#paint2_linear_1_257453)" style="mix-blend-mode:overlay" shape-rendering="crispEdges"/>
</g>
<path d="M10.4581 11.8017C10.4473 11.8017 10.4371 11.7957 10.4323 11.7854C10.4257 11.7713 10.432 11.7546 10.4462 11.7481L11.3331 11.3437L11.9572 11.0017C11.9589 11.0007 11.9609 11 11.9627 10.9993L12.658 10.7933L13.2898 10.5575L13.3761 10.4313C13.385 10.4184 13.4026 10.4151 13.4156 10.4238C13.4286 10.4325 13.432 10.45 13.4232 10.4629L13.3317 10.5966C13.3284 10.6014 13.3237 10.6051 13.3182 10.6072L12.677 10.8465C12.677 10.8465 12.6758 10.8469 12.6752 10.847L11.9819 11.0525L11.3595 11.3936C11.3595 11.3936 11.3583 11.3943 11.3577 11.3946L10.4698 11.7994C10.4659 11.801 10.4618 11.8019 10.458 11.8019L10.4581 11.8017Z" fill="#F7DE61"/>
<path d="M10.4439 11.7738C10.4384 11.7738 10.4332 11.7706 10.431 11.7656C10.4294 11.7623 10.4293 11.7585 10.4306 11.7548C10.4318 11.7511 10.4345 11.7485 10.4379 11.7469L11.3248 11.3426L11.9499 11.0001C11.9508 10.9997 11.9518 10.9993 11.9528 10.999L12.648 10.7929L13.2851 10.5552L13.374 10.4251C13.3767 10.4213 13.3811 10.4189 13.3858 10.4189C13.3886 10.4189 13.3913 10.4198 13.3937 10.4213C13.3969 10.4234 13.399 10.4267 13.3997 10.4303C13.4004 10.434 13.3997 10.4378 13.3976 10.4409L13.3061 10.5746C13.3044 10.577 13.3021 10.5788 13.2994 10.5798L12.6583 10.8191L11.9627 11.0254L11.3391 11.3672L10.4502 11.7724C10.4483 11.7732 10.4463 11.7737 10.4442 11.7737L10.4439 11.7738Z" fill="#F7DE61"/>
<path d="M11.302 13.2072C11.2909 13.2072 11.2804 13.2007 11.2757 13.1899C11.2696 13.1755 11.2764 13.1591 11.2909 13.153L11.9113 12.895L12.723 12.3768L13.4461 11.8958C13.4474 11.895 13.4488 11.8943 13.4503 11.8936L14.1435 11.581L14.7232 11.2018L14.8135 10.988C14.8196 10.9736 14.8362 10.9669 14.8507 10.9729C14.8652 10.979 14.872 10.9954 14.8659 11.0098L14.7723 11.2315C14.7702 11.2367 14.7665 11.2411 14.7618 11.2441L14.1731 11.6292C14.1718 11.6301 14.1705 11.6308 14.1693 11.6314L13.476 11.944L12.7544 12.4239L11.94 12.9437C11.9386 12.9446 11.9371 12.9454 11.9356 12.946L11.3129 13.2049C11.3093 13.2065 11.3055 13.2072 11.302 13.2072Z" fill="#F7DE61"/>
<path d="M11.2876 13.1791C11.2819 13.1791 11.2766 13.1757 11.2745 13.1705C11.2715 13.1633 11.2749 13.1552 11.2822 13.1521L11.9037 12.8935L12.7166 12.3747L13.44 11.8935C13.44 11.8935 13.4413 11.8926 13.442 11.8923L14.1363 11.5792L14.7204 11.197L14.8125 10.9793C14.8148 10.9741 14.8199 10.9707 14.8256 10.9707C14.8274 10.9707 14.8293 10.9711 14.831 10.9718C14.8345 10.9732 14.8372 10.9761 14.8386 10.9794C14.8401 10.9829 14.8401 10.9867 14.8386 10.9903L14.745 11.2119C14.7439 11.2145 14.742 11.2167 14.7398 11.2183L14.151 11.6034C14.151 11.6034 14.1498 11.6042 14.1491 11.6045L13.4548 11.9175L12.7322 12.3982L11.9179 12.9178C11.9179 12.9178 11.9165 12.9187 11.9158 12.919L11.2931 13.178C11.2914 13.1787 11.2896 13.1791 11.2876 13.1791Z" fill="#F7DE61"/>
<path d="M11.4659 15.0675C11.457 15.0675 11.4483 15.0634 11.4428 15.0556C11.4337 15.043 11.4367 15.0254 11.4494 15.0164L12.0366 14.6035L12.9562 14.0117L13.7436 13.4785L14.5175 12.9728L15.2204 12.5573L15.911 12.1259L16.0448 11.9034C16.0529 11.89 16.0702 11.8856 16.0837 11.8937C16.0972 11.9017 16.1016 11.9189 16.0935 11.9322L15.9562 12.1605C15.9539 12.1643 15.9508 12.1676 15.9469 12.17L15.25 12.6054L14.5476 13.0207L13.7752 13.5254L12.9874 14.0587L12.0681 14.6503L11.482 15.0625C11.477 15.066 11.4712 15.0677 11.4655 15.0677L11.4659 15.0675Z" fill="#F7DE61"/>
<path d="M11.4518 15.0395C11.4473 15.0395 11.4429 15.0373 11.4402 15.0336C11.4379 15.0305 11.437 15.0268 11.4377 15.023C11.4383 15.0194 11.4404 15.0161 11.4436 15.0139L12.0307 14.6011L12.9499 14.0096L13.7376 13.4762L14.5113 12.9706L15.2137 12.5554L15.9074 12.1219L16.0431 11.8965C16.0456 11.8922 16.0502 11.8896 16.0553 11.8896C16.0578 11.8896 16.0602 11.8904 16.0625 11.8916C16.0692 11.8956 16.0715 11.9043 16.0675 11.9109L15.9301 12.1392C15.929 12.141 15.9274 12.1427 15.9254 12.144L15.2285 12.5795L14.5264 12.9944L13.7534 13.4996L12.9655 14.033L12.0465 14.6243L11.4598 15.0368C11.4573 15.0385 11.4545 15.0394 11.4515 15.0394L11.4518 15.0395Z" fill="#F7DE61"/>
<path d="M12.1105 16.1004C12.1005 16.1004 12.091 16.0953 12.0858 16.0862C12.078 16.0726 12.0828 16.0555 12.0964 16.0477L12.8678 15.6129L13.5982 15.0066L14.305 14.4247C14.305 14.4247 14.3057 14.4242 14.3061 14.4237L14.9535 13.9452L15.6266 13.4768C15.6394 13.4679 15.6571 13.4709 15.6662 13.4837C15.6752 13.4963 15.6722 13.5139 15.6593 13.5229L14.9867 13.9908L14.3406 14.4684L13.6346 15.0497L12.9024 15.6576C12.9011 15.6587 12.8997 15.6597 12.8981 15.6605L12.1246 16.0966C12.1202 16.0991 12.1153 16.1002 12.1105 16.1002V16.1004Z" fill="#F7DE61"/>
<path d="M12.0963 16.0718C12.0912 16.0718 12.0865 16.0691 12.0839 16.0646C12.0821 16.0613 12.0815 16.0575 12.0825 16.0539C12.0835 16.0502 12.0859 16.0473 12.0892 16.0454L12.8617 15.6101L13.5931 15.003L14.2997 14.4213L14.9477 13.9423L15.6205 13.4742C15.6229 13.4725 15.6258 13.4717 15.6286 13.4717C15.6333 13.4717 15.6375 13.4739 15.6402 13.4777C15.6448 13.4841 15.6432 13.4929 15.6368 13.4973L14.9643 13.9652L14.3178 14.443L13.6111 15.0247L12.8789 15.6326C12.8789 15.6326 12.8775 15.6336 12.8768 15.634L12.1033 16.0701C12.1011 16.0713 12.0987 16.0719 12.0963 16.0719V16.0718Z" fill="#F7DE61"/>
<path d="M13.4347 16.0349C13.4283 16.0349 13.422 16.0328 13.4166 16.0286C13.4046 16.0187 13.4027 16.001 13.4127 15.989L13.9194 15.3766L14.6344 14.5807C14.6448 14.5692 14.6628 14.568 14.6745 14.5784C14.6863 14.5887 14.6873 14.6066 14.6768 14.6181L13.9625 15.4132L13.4566 16.0248C13.4509 16.0316 13.4428 16.0351 13.4345 16.0351L13.4347 16.0349Z" fill="#F7DE61"/>
<path d="M13.4204 16.0068C13.4181 16.0068 13.4147 16.0062 13.4115 16.0036C13.4085 16.0012 13.4068 15.9978 13.4063 15.9941C13.4059 15.9903 13.407 15.9867 13.4095 15.9839L13.9162 15.3715L14.6308 14.5759C14.6335 14.573 14.6373 14.5713 14.6414 14.5713C14.645 14.5713 14.6483 14.5726 14.6508 14.5748C14.6537 14.5773 14.6554 14.5807 14.6555 14.5845C14.6558 14.5883 14.6545 14.5918 14.652 14.5947L13.9377 15.3898L13.4313 16.0017C13.4286 16.005 13.4247 16.0069 13.4204 16.0069V16.0068Z" fill="#F7DE61"/>
<g style="mix-blend-mode:overlay" opacity="0.7" filter="url(#filter3_i_1_257453)">
<path d="M10.4699 11.7998C10.4591 11.7998 10.4488 11.7937 10.444 11.7835C10.4375 11.7694 10.4437 11.7526 10.4579 11.7462L11.3448 11.3418L11.9689 10.9998C11.9706 10.9988 11.9726 10.9981 11.9745 10.9974L12.6697 10.7913L13.3015 10.5556L13.3879 10.4293C13.3967 10.4165 13.4143 10.4131 13.4274 10.4218C13.4403 10.4306 13.4437 10.448 13.4349 10.461L13.3434 10.5947C13.3401 10.5995 13.3354 10.6031 13.3299 10.6052L12.6888 10.8445C12.6888 10.8445 12.6875 10.8449 12.6869 10.8451L11.9936 11.0506L11.3713 11.3916C11.3713 11.3916 11.37 11.3923 11.3694 11.3926L10.4815 11.7974C10.4777 11.7991 10.4735 11.7999 10.4697 11.7999L10.4699 11.7998ZM11.3048 13.2067L11.9274 12.9478C11.929 12.9472 11.9304 12.9463 11.9318 12.9455L12.7462 12.4257L13.4677 11.9458L14.161 11.6331C14.1623 11.6326 14.1637 11.6319 14.1648 11.631L14.7535 11.2459C14.7582 11.2428 14.7619 11.2385 14.764 11.2333L14.8577 11.0116C14.8638 10.9972 14.857 10.9808 14.8425 10.9747C14.828 10.9687 14.8114 10.9754 14.8052 10.9898L14.7149 11.2036L14.1353 11.5828L13.442 11.8954C13.4406 11.8961 13.4391 11.8968 13.4379 11.8976L12.7148 12.3786L11.9033 12.8967L11.2829 13.1547C11.2684 13.1607 11.2616 13.1772 11.2677 13.1915C11.2722 13.2024 11.2827 13.2088 11.294 13.2088C11.2977 13.2088 11.3014 13.2081 11.3049 13.2066L11.3048 13.2067ZM11.4877 15.0494L12.0739 14.6372L12.9932 14.0456L13.781 13.5123L14.5534 13.0076L15.2557 12.5924L15.9527 12.1569C15.9565 12.1545 15.9597 12.1512 15.9619 12.1474L16.0993 11.9191C16.1074 11.9058 16.1029 11.8885 16.0895 11.8806C16.076 11.8726 16.0585 11.8771 16.0506 11.8903L15.9168 12.1128L15.2262 12.5442L14.5232 12.9597L13.7494 13.4654L12.962 13.9986L12.0424 14.5905L11.4552 15.0033C11.4424 15.0123 11.4394 15.0299 11.4485 15.0425C11.4541 15.0503 11.4629 15.0544 11.4717 15.0544C11.4774 15.0544 11.4831 15.0527 11.4882 15.0492L11.4877 15.0494ZM12.1293 16.0855L12.9029 15.6495C12.9043 15.6486 12.9057 15.6476 12.9071 15.6465L13.6393 15.0386L14.3454 14.4573L14.9915 13.9797L15.664 13.5119C15.6768 13.503 15.6799 13.4854 15.671 13.4726C15.662 13.4599 15.6443 13.4568 15.6314 13.4657L14.9582 13.9341L14.3109 14.4127C14.3109 14.4127 14.31 14.4132 14.3097 14.4137L13.6029 14.9955L12.8726 15.6019L12.1012 16.0367C12.0875 16.0444 12.0827 16.0616 12.0905 16.0751C12.0958 16.0842 12.1053 16.0893 12.1152 16.0893C12.1201 16.0893 12.1248 16.0882 12.1293 16.0856V16.0855ZM13.4649 16.0296L13.9708 15.4181L14.6851 14.623C14.6954 14.6113 14.6944 14.5936 14.6828 14.5833C14.6711 14.573 14.6531 14.574 14.6427 14.5855L13.9277 15.3815L13.421 15.9939C13.411 16.0058 13.4127 16.0236 13.4249 16.0334C13.4302 16.0377 13.4366 16.0398 13.443 16.0398C13.4512 16.0398 13.4593 16.0362 13.465 16.0295L13.4649 16.0296Z" fill="url(#paint3_linear_1_257453)" style="mix-blend-mode:overlay"/>
</g>
</g>
<path d="M12.012 24C5.395 24 0.0117188 18.6167 0.0117188 11.9997C0.0117188 5.38268 5.395 0 12.012 0C18.629 0 24.0117 5.38328 24.0117 11.9997C24.0117 18.6161 18.6284 24 12.012 24ZM12.012 1.96735C6.47948 1.96735 1.97907 6.46776 1.97907 11.9997C1.97907 17.5316 6.47948 22.0326 12.012 22.0326C17.5446 22.0326 22.0444 17.5322 22.0444 11.9997C22.0444 6.46716 17.544 1.96735 12.012 1.96735Z" fill="#F7DE61"/>
<path d="M0.743532 11.9997C0.743532 5.50545 5.92942 0.200406 12.3779 0.00601821C12.2576 0.00240728 12.1372 0 12.012 0C5.395 0 0.0117188 5.38328 0.0117188 11.9997C0.0117188 18.6161 5.395 24 12.012 24C12.1324 24 12.2564 24 12.3779 23.994C5.92942 23.7996 0.743532 18.4945 0.743532 11.9997Z" fill="#FFF2BD"/>
<path d="M12.0083 1.96777C11.9005 1.96777 11.794 1.96777 11.6875 1.97319C17.072 2.1429 21.4003 6.57531 21.4003 12.0001C21.4003 17.4249 17.072 21.8579 11.6875 22.0271C11.794 22.0307 11.9005 22.0325 12.0083 22.0325C17.5402 22.0325 22.0406 17.5321 22.0406 11.9995C22.0406 6.46698 17.5402 1.96777 12.0083 1.96777Z" fill="#CE9811"/>
</g>
<defs>
<filter id="filter0_i_1_257453" x="11.2578" y="10.1133" width="3.57812" height="5.99373" filterUnits="userSpaceOnUse" color-interpolation-filters="sRGB">
<feFlood flood-opacity="0" result="BackgroundImageFix"/>
<feBlend mode="normal" in="SourceGraphic" in2="BackgroundImageFix" result="shape"/>
<feColorMatrix in="SourceAlpha" type="matrix" values="0 0 0 0 0 0 0 0 0 0 0 0 0 0 0 0 0 0 127 0" result="hardAlpha"/>
<feOffset dy="0.131427"/>
<feGaussianBlur stdDeviation="0.147856"/>
<feComposite in2="hardAlpha" operator="arithmetic" k2="-1" k3="1"/>
<feColorMatrix type="matrix" values="0 0 0 0 0 0 0 0 0 0 0 0 0 0 0 0 0 0 0.25 0"/>
<feBlend mode="normal" in2="shape" result="effect1_innerShadow_1_257453"/>
</filter>
<filter id="filter1_di_1_257453" x="10.7826" y="9.57715" width="5.34293" height="6.77262" filterUnits="userSpaceOnUse" color-interpolation-filters="sRGB">
<feFlood flood-opacity="0" result="BackgroundImageFix"/>
<feColorMatrix in="SourceAlpha" type="matrix" values="0 0 0 0 0 0 0 0 0 0 0 0 0 0 0 0 0 0 127 0" result="hardAlpha"/>
<feOffset dy="0.131427"/>
<feGaussianBlur stdDeviation="0.0657137"/>
<feComposite in2="hardAlpha" operator="out"/>
<feColorMatrix type="matrix" values="0 0 0 0 0 0 0 0 0 0 0 0 0 0 0 0 0 0 0.25 0"/>
<feBlend mode="normal" in2="BackgroundImageFix" result="effect1_dropShadow_1_257453"/>
<feBlend mode="normal" in="SourceGraphic" in2="effect1_dropShadow_1_257453" result="shape"/>
<feColorMatrix in="SourceAlpha" type="matrix" values="0 0 0 0 0 0 0 0 0 0 0 0 0 0 0 0 0 0 127 0" result="hardAlpha"/>
<feOffset dy="0.131427"/>
<feGaussianBlur stdDeviation="0.246427"/>
<feComposite in2="hardAlpha" operator="arithmetic" k2="-1" k3="1"/>
<feColorMatrix type="matrix" values="0 0 0 0 0 0 0 0 0 0 0 0 0 0 0 0 0 0 0.45 0"/>
<feBlend mode="normal" in2="shape" result="effect2_innerShadow_1_257453"/>
</filter>
<filter id="filter2_di_1_257453" x="10.7748" y="9.56641" width="5.36442" height="6.98844" filterUnits="userSpaceOnUse" color-interpolation-filters="sRGB">
<feFlood flood-opacity="0" result="BackgroundImageFix"/>
<feColorMatrix in="SourceAlpha" type="matrix" values="0 0 0 0 0 0 0 0 0 0 0 0 0 0 0 0 0 0 127 0" result="hardAlpha"/>
<feOffset dy="0.131427"/>
<feGaussianBlur stdDeviation="0.0657137"/>
<feComposite in2="hardAlpha" operator="out"/>
<feColorMatrix type="matrix" values="0 0 0 0 0 0 0 0 0 0 0 0 0 0 0 0 0 0 0.25 0"/>
<feBlend mode="normal" in2="BackgroundImageFix" result="effect1_dropShadow_1_257453"/>
<feBlend mode="normal" in="SourceGraphic" in2="effect1_dropShadow_1_257453" result="shape"/>
<feColorMatrix in="SourceAlpha" type="matrix" values="0 0 0 0 0 0 0 0 0 0 0 0 0 0 0 0 0 0 127 0" result="hardAlpha"/>
<feOffset dy="0.131427"/>
<feGaussianBlur stdDeviation="0.344997"/>
<feComposite in2="hardAlpha" operator="arithmetic" k2="-1" k3="1"/>
<feColorMatrix type="matrix" values="0 0 0 0 0 0 0 0 0 0 0 0 0 0 0 0 0 0 0.4 0"/>
<feBlend mode="normal" in2="shape" result="effect2_innerShadow_1_257453"/>
</filter>
<filter id="filter3_i_1_257453" x="10.4414" y="10.417" width="5.66211" height="5.80379" filterUnits="userSpaceOnUse" color-interpolation-filters="sRGB">
<feFlood flood-opacity="0" result="BackgroundImageFix"/>
<feBlend mode="normal" in="SourceGraphic" in2="BackgroundImageFix" result="shape"/>
<feColorMatrix in="SourceAlpha" type="matrix" values="0 0 0 0 0 0 0 0 0 0 0 0 0 0 0 0 0 0 127 0" result="hardAlpha"/>
<feOffset dy="0.131427"/>
<feGaussianBlur stdDeviation="0.197141"/>
<feComposite in2="hardAlpha" operator="arithmetic" k2="-1" k3="1"/>
<feColorMatrix type="matrix" values="0 0 0 0 0 0 0 0 0 0 0 0 0 0 0 0 0 0 0.45 0"/>
<feBlend mode="normal" in2="shape" result="effect1_innerShadow_1_257453"/>
</filter>
<linearGradient id="paint0_linear_1_257453" x1="13.0465" y1="15.9756" x2="13.0465" y2="10.1133" gradientUnits="userSpaceOnUse">
<stop offset="0.15" stop-color="white"/>
<stop offset="0.22" stop-color="#FAFAFA"/>
<stop offset="0.3" stop-color="#EEEEEE"/>
<stop offset="0.38" stop-color="#D9D9D9"/>
<stop offset="0.46" stop-color="#BCBCBC"/>
<stop offset="0.54" stop-color="#969696"/>
<stop offset="0.62" stop-color="#686868"/>
<stop offset="0.71" stop-color="#333333"/>
<stop offset="0.77"/>
<stop offset="1" stop-color="#494949"/>
</linearGradient>
<linearGradient id="paint1_linear_1_257453" x1="13.4543" y1="16.087" x2="13.4543" y2="9.57726" gradientUnits="userSpaceOnUse">
<stop offset="0.15" stop-color="white"/>
<stop offset="0.22" stop-color="#FAFAFA"/>
<stop offset="0.3" stop-color="#EEEEEE"/>
<stop offset="0.38" stop-color="#D9D9D9"/>
<stop offset="0.46" stop-color="#BCBCBC"/>
<stop offset="0.54" stop-color="#969696"/>
<stop offset="0.62" stop-color="#686868"/>
<stop offset="0.71" stop-color="#333333"/>
<stop offset="0.77"/>
<stop offset="1" stop-color="#494949"/>
</linearGradient>
<linearGradient id="paint2_linear_1_257453" x1="10.1966" y1="11.2666" x2="14.9147" y2="14.6011" gradientUnits="userSpaceOnUse">
<stop offset="0.15" stop-color="white"/>
<stop offset="0.22" stop-color="#FAFAFA"/>
<stop offset="0.3" stop-color="#EEEEEE"/>
<stop offset="0.38" stop-color="#D9D9D9"/>
<stop offset="0.46" stop-color="#BCBCBC"/>
<stop offset="0.54" stop-color="#969696"/>
<stop offset="0.62" stop-color="#686868"/>
<stop offset="0.71" stop-color="#333333"/>
<stop offset="0.77"/>
<stop offset="1" stop-color="#494949"/>
</linearGradient>
<linearGradient id="paint3_linear_1_257453" x1="11.1465" y1="11.0614" x2="14.779" y2="14.7278" gradientUnits="userSpaceOnUse">
<stop offset="0.15" stop-color="white"/>
<stop offset="0.22" stop-color="#FAFAFA"/>
<stop offset="0.3" stop-color="#EEEEEE"/>
<stop offset="0.38" stop-color="#D9D9D9"/>
<stop offset="0.46" stop-color="#BCBCBC"/>
<stop offset="0.54" stop-color="#969696"/>
<stop offset="0.62" stop-color="#686868"/>
<stop offset="0.71" stop-color="#333333"/>
<stop offset="0.77"/>
<stop offset="1" stop-color="#494949"/>
</linearGradient>
<clipPath id="clip0_1_257453">
<rect width="24" height="24" fill="white"/>
</clipPath>
</defs>
</svg>
